ply
format ascii 1.0
comment Created by object PlyWriter
element vertex 300
property float x
property float y
property float z
property float nx
property float ny
property float nz
element face 100
property list uchar uint vertex_indices
end_header
0.0806869 -0.00172698 0.45602 0 0 0 
0.00178123 -0.000907474 0.00552645 0 0 0 
-0.0771244 -8.79694e-05 -0.444967 0 0 0 
0.0795471 -0.00197869 0.444092 0 0 0 
0.000887554 -0.00173413 -0.00196536 0 0 0 
-0.077772 -0.00148958 -0.448023 0 0 0 
0.0793618 -0.00129409 0.447715 0 0 0 
0.0011938 -0.000235175 0.00341763 0 0 0 
-0.0769742 0.000823743 -0.44088 0 0 0 
0.0779742 0.000100113 0.441442 0 0 0 
-9.61125e-06 0.000497664 -0.00298984 0 0 0 
-0.0779934 0.000895215 -0.447421 0 0 0 
0.0799632 0.00135253 0.445161 0 0 0 
0.000299975 0.000367911 0.00149992 0 0 0 
-0.0793632 -0.000616702 -0.442161 0 0 0 
0.082653 0.000511065 0.458405 0 0 0 
0.000480179 -0.00028065 0.00141793 0 0 0 
-0.0816926 -0.00107237 -0.45557 0 0 0 
0.0790627 -0.00106536 0.450066 0 0 0 
0.000315528 -2.39069e-05 0.00100014 0 0 0 
-0.0784316 0.00101754 -0.448066 0 0 0 
0.0818014 -0.00156898 0.452441 0 0 0 
0.000785325 -0.00109266 -0.00245488 0 0 0 
-0.0802308 -0.000616335 -0.457351 0 0 0 
0.0776477 0.00190699 0.445067 0 0 0 
-0.000164378 0.00174524 0.00150204 0 0 0 
-0.0779765 0.00158349 -0.442063 0 0 0 
0.0799065 -0.000401466 0.443896 0 0 0 
0.000468276 -0.000494147 -0.00102897 0 0 0 
-0.0789699 -0.000586828 -0.445953 0 0 0 
0.0792314 -0.00167352 0.447729 0 0 0 
-0.000747349 -0.000780006 -0.00310951 0 0 0 
-0.0807261 0.000113505 -0.453948 0 0 0 
0.07922 0.000588161 0.458989 0 0 0 
-0.00132998 0.000707026 0.00278725 0 0 0 
-0.0818799 0.00082589 -0.453414 0 0 0 
0.0783274 0.00149533 0.45081 0 0 0 
-0.000217207 0.000168375 -0.0035312 0 0 0 
-0.0787618 -0.00115858 -0.457873 0 0 0 
0.0790749 -0.0014414 0.459507 0 0 0 
-0.000792954 -0.00142155 0.00547534 0 0 0 
-0.0806608 -0.00140171 -0.448557 0 0 0 
0.080124 0.00143338 0.452922 0 0 0 
-0.000115141 0.000139608 0.00335415 0 0 0 
-0.0803543 -0.00115417 -0.446213 0 0 0 
0.0806728 -0.00163326 0.457879 0 0 0 
0.001819 -0.00139524 0.00615342 0 0 0 
-0.0770348 -0.00115721 -0.445572 0 0 0 
0.0806111 -0.00122743 0.446512 0 0 0 
0.000389565 0.00035445 -0.00347219 0 0 0 
-0.0798319 0.00193633 -0.453456 0 0 0 
0.0785852 -0.000190274 0.441105 0 0 0 
-0.000308935 -0.00101238 -0.00219218 0 0 0 
-0.0792031 -0.00183449 -0.445489 0 0 0 
0.0782303 0.0019338 0.453067 0 0 0 
0.000848927 0.00056433 0.00485714 0 0 0 
-0.0765325 -0.000805139 -0.443353 0 0 0 
0.0827386 -0.000582434 0.459021 0 0 0 
0.00212314 -0.000603381 0.00742699 0 0 0 
-0.0784923 -0.000624328 -0.444167 0 0 0 
0.078605 -0.00128935 0.455097 0 0 0 
-0.000164803 -0.00151269 -0.000953525 0 0 0 
-0.0789347 -0.00173603 -0.457005 0 0 0 
0.0798772 -0.000796958 0.454311 0 0 0 
-0.000198457 -0.00106226 0.00443673 0 0 0 
-0.0802741 -0.00132756 -0.445438 0 0 0 
0.0787012 -0.000979182 0.45614 0 0 0 
-0.000221085 0.000102145 0.00445439 0 0 0 
-0.0791434 0.00118347 -0.447231 0 0 0 
0.0814831 0.000258994 0.458419 0 0 0 
0.000943054 -0.000715843 0.00618637 0 0 0 
-0.079597 -0.00169068 -0.446047 0 0 0 
0.0824059 0.000742716 0.458728 0 0 0 
0.000941254 0.000636982 0.00285938 0 0 0 
-0.0805234 0.000531249 -0.45301 0 0 0 
0.078488 -0.00154186 0.441762 0 0 0 
-0.00121548 -0.00149746 -0.00369267 0 0 0 
-0.080919 -0.00145306 -0.449147 0 0 0 
0.080676 0.000494493 0.45976 0 0 0 
3.47607e-05 0.000599194 0.00384265 0 0 0 
-0.0806065 0.000703894 -0.452074 0 0 0 
0.0782128 0.000165686 0.441541 0 0 0 
-0.00213347 1.1354e-05 -0.00755708 0 0 0 
-0.0824798 -0.000142977 -0.456655 0 0 0 
0.0778196 -0.000335871 0.44248 0 0 0 
-0.0012628 -0.000897403 -0.00799689 0 0 0 
-0.0803452 -0.00145894 -0.458474 0 0 0 
0.0800131 -0.00158922 0.448878 0 0 0 
-3.51295e-06 -0.0013874 -0.00331889 0 0 0 
-0.0800201 -0.00118557 -0.455516 0 0 0 
0.079815 0.000464717 0.449026 0 0 0 
0.000780813 -0.000267759 -0.00114183 0 0 0 
-0.0782534 -0.00100023 -0.45131 0 0 0 
0.0768022 -0.00178041 0.445799 0 0 0 
-0.000382844 -0.00159924 -0.00221811 0 0 0 
-0.0775678 -0.00141806 -0.450236 0 0 0 
0.0783091 0.000417498 0.445777 0 0 0 
-0.000304267 -0.000171036 -0.00526528 0 0 0 
-0.0789177 -0.000759569 -0.456307 0 0 0 
0.0801286 -0.0011609 0.458506 0 0 0 
-0.000766184 -0.000555785 0.00206499 0 0 0 
-0.081661 4.93345e-05 -0.454376 0 0 0 
0.0800875 -0.00110617 0.444914 0 0 0 
0.000396919 -0.000898262 -0.00327793 0 0 0 
-0.0792937 -0.000690354 -0.45147 0 0 0 
0.079981 0.000317784 0.449189 0 0 0 
-0.000212792 -0.000199608 -0.00126159 0 0 0 
-0.0804066 -0.000717001 -0.451712 0 0 0 
0.0811813 0.00102557 0.454486 0 0 0 
0.00112361 0.0010899 0.0046887 0 0 0 
-0.078934 0.00115424 -0.445109 0 0 0 
0.0809486 0.00183255 0.458086 0 0 0 
0.00146971 0.00166599 0.00590001 0 0 0 
-0.0780092 0.00149944 -0.446286 0 0 0 
0.0817832 0.00178056 0.454526 0 0 0 
0.00237191 -8.63667e-05 0.00478922 0 0 0 
-0.0770393 -0.00195329 -0.444947 0 0 0 
0.0797194 0.000473939 0.444566 0 0 0 
0.00174135 0.00112973 0.000801951 0 0 0 
-0.0762367 0.00178552 -0.442962 0 0 0 
0.0781729 0.00109059 0.451579 0 0 0 
-0.000131238 0.00134303 0.00167516 0 0 0 
-0.0784354 0.00159547 -0.448229 0 0 0 
0.0763379 -0.00175843 0.440592 0 0 0 
-0.00233732 -0.00116398 -0.00427805 0 0 0 
-0.0810125 -0.00056954 -0.449148 0 0 0 
0.0802974 0.00191081 0.449499 0 0 0 
-0.00108189 0.00164383 -0.0035104 0 0 0 
-0.0824611 0.00137686 -0.45652 0 0 0 
0.0800973 -0.00110942 0.44505 0 0 0 
0.00177535 -0.0013372 0.000496656 0 0 0 
-0.0765466 -0.00156498 -0.444057 0 0 0 
0.0765746 0.00115791 0.444234 0 0 0 
-0.000635434 0.000419323 -0.0013794 0 0 0 
-0.0778455 -0.000319263 -0.446993 0 0 0 
0.0817718 0.00183503 0.456458 0 0 0 
0.00167122 0.000994873 0.00537822 0 0 0 
-0.0784293 0.000154712 -0.445702 0 0 0 
0.077265 -0.000540286 0.447421 0 0 0 
-0.000760481 0.000611136 -0.00092648 0 0 0 
-0.0787859 0.00176256 -0.449273 0 0 0 
0.0793427 -0.000496966 0.454786 0 0 0 
-0.000960242 0.000731489 -0.00167084 0 0 0 
-0.0812632 0.00195994 -0.458128 0 0 0 
0.0818676 0.00115194 0.453945 0 0 0 
0.000846192 0.00143947 0.000507727 0 0 0 
-0.0801752 0.001727 -0.45293 0 0 0 
0.0810789 -5.93404e-05 0.457038 0 0 0 
0.00176888 0.000855458 0.00675914 0 0 0 
-0.0775411 0.00177026 -0.443519 0 0 0 
0.0791889 0.00148252 0.451018 0 0 0 
0.000450153 0.000777933 0.00316201 0 0 0 
-0.0782886 7.33493e-05 -0.444694 0 0 0 
0.0789439 0.000102129 0.441417 0 0 0 
-0.0011294 -0.000696128 -0.00627822 0 0 0 
-0.0812027 -0.00149438 -0.453974 0 0 0 
0.0794278 -0.00126141 0.441313 0 0 0 
-0.000405557 -0.000373991 -0.00179148 0 0 0 
-0.0802389 0.000513431 -0.444896 0 0 0 
0.0789168 0.000711984 0.443054 0 0 0 
0.00073605 0.00116648 -0.000246391 0 0 0 
-0.0774447 0.00162098 -0.443547 0 0 0 
0.0785009 0.00157592 0.448786 0 0 0 
-0.000845645 0.00178139 -0.00238299 0 0 0 
-0.0801922 0.00198685 -0.453552 0 0 0 
0.0814277 0.00108667 0.45355 0 0 0 
0.00246879 0.000808758 0.00470883 0 0 0 
-0.0764901 0.000530845 -0.444132 0 0 0 
0.078042 -0.00172185 0.4503 0 0 0 
-0.000225473 -0.0018513 0.00440271 0 0 0 
-0.0784929 -0.00198074 -0.441495 0 0 0 
0.0816676 -0.00119275 0.459547 0 0 0 
0.00163049 -0.00111859 0.00387019 0 0 0 
-0.0784066 -0.00104444 -0.451807 0 0 0 
0.0802323 0.00106981 0.452892 0 0 0 
0.00100785 0.00125144 -0.000939637 0 0 0 
-0.0782166 0.00143306 -0.454772 0 0 0 
0.0788182 -0.0011241 0.449148 0 0 0 
-0.00133834 -0.00149415 -0.0038055 0 0 0 
-0.0814949 -0.0018642 -0.456759 0 0 0 
0.0799729 0.000529295 0.447579 0 0 0 
0.00059288 0.000721783 -0.00233006 0 0 0 
-0.0787871 0.000914271 -0.452239 0 0 0 
0.0818196 0.000559976 0.452569 0 0 0 
-0.00014751 0.00011397 -0.00215994 0 0 0 
-0.0821147 -0.000332035 -0.456889 0 0 0 
0.0811531 -6.13953e-05 0.450423 0 0 0 
-0.000326436 0.000380264 -0.00153911 0 0 0 
-0.081806 0.000821922 -0.453501 0 0 0 
0.0775469 -0.0018688 0.449625 0 0 0 
-5.22397e-05 -0.000425596 -0.000201166 0 0 0 
-0.0776514 0.00101761 -0.450028 0 0 0 
0.0808224 0.00160447 0.448821 0 0 0 
0.000828356 0.000912934 -0.00242768 0 0 0 
-0.0791657 0.000221395 -0.453677 0 0 0 
0.0803034 -0.00028193 0.446665 0 0 0 
0.000880424 0.000641269 0.000372797 0 0 0 
-0.0785426 0.00156447 -0.445919 0 0 0 
0.079167 1.84565e-06 0.457177 0 0 0 
-0.000430487 0.000522358 0.00214763 0 0 0 
-0.080028 0.00104287 -0.452882 0 0 0 
0.0790789 0.00119722 0.455056 0 0 0 
-0.000678893 -0.000395459 -0.000283077 0 0 0 
-0.0804367 -0.00198813 -0.455622 0 0 0 
0.0785587 0.00160098 0.450649 0 0 0 
0.000508454 0.00088912 0.00183989 0 0 0 
-0.0775418 0.000177261 -0.446969 0 0 0 
0.0792724 -3.14864e-05 0.457418 0 0 0 
0.0010074 0.000236477 0.00725819 0 0 0 
-0.0772576 0.00050444 -0.442902 0 0 0 
0.079671 0.00134129 0.440814 0 0 0 
0.00032096 0.000788943 -0.000480279 0 0 0 
-0.0790291 0.000236597 -0.441775 0 0 0 
0.0809588 0.0018539 0.452901 0 0 0 
0.000709899 0.00182165 0.00386438 0 0 0 
-0.079539 0.00178939 -0.445172 0 0 0 
0.0786367 0.00182583 0.450872 0 0 0 
0.000555873 0.000104226 0.000241652 0 0 0 
-0.077525 -0.00161737 -0.450389 0 0 0 
0.0784562 0.00118052 0.445442 0 0 0 
-0.000464294 0.00105764 -0.00117464 0 0 0 
-0.0793848 0.000934762 -0.447791 0 0 0 
0.0793477 -0.000839918 0.459231 0 0 0 
-0.000124235 0.000423074 0.00610502 0 0 0 
-0.0795962 0.00168606 -0.447021 0 0 0 
0.0790981 0.000711405 0.455175 0 0 0 
-0.000300571 0.000652307 0.00178322 0 0 0 
-0.0796993 0.000593209 -0.451609 0 0 0 
0.080127 -0.000510704 0.44388 0 0 0 
2.41064e-05 -0.000153378 -0.00195883 0 0 0 
-0.0800788 0.000203948 -0.447798 0 0 0 
0.0794806 -0.00124343 0.45 0 0 0 
0.000145406 -0.00114978 -0.00196676 0 0 0 
-0.0791897 -0.00105613 -0.453934 0 0 0 
0.0778308 -0.00180986 0.448328 0 0 0 
0.0001962 -0.00101147 0.00357273 0 0 0 
-0.0774384 -0.000213072 -0.441182 0 0 0 
0.0821737 0.00041552 0.458683 0 0 0 
0.0012213 -0.000491005 0.00769198 0 0 0 
-0.0797311 -0.00139753 -0.443299 0 0 0 
0.0788963 0.000228811 0.444684 0 0 0 
0.00131759 0.000913498 0.00101343 0 0 0 
-0.0762611 0.00159818 -0.442658 0 0 0 
0.0767663 0.000935607 0.440643 0 0 0 
-0.000382457 2.08616e-05 -0.00277515 0 0 0 
-0.0775313 -0.000893884 -0.446193 0 0 0 
0.0808083 0.00145954 0.45262 0 0 0 
-0.000591546 0.00155489 -0.00102286 0 0 0 
-0.0819914 0.00165025 -0.454666 0 0 0 
0.0794409 -0.00109643 0.450931 0 0 0 
0.000868376 -0.00146676 0.00149924 0 0 0 
-0.0777042 -0.00183709 -0.447933 0 0 0 
0.0786471 0.00167056 0.44275 0 0 0 
0.000653334 0.000518514 -0.000739679 0 0 0 
-0.0773404 -0.000633535 -0.444229 0 0 0 
0.0785561 0.00173783 0.440053 0 0 0 
-0.000177082 0.000533489 -0.00739001 0 0 0 
-0.0789103 -0.000670848 -0.454834 0 0 0 
0.0790622 -0.000297521 0.445296 0 0 0 
0.000678852 0.000469928 -0.00125338 0 0 0 
-0.0777045 0.00123738 -0.447803 0 0 0 
0.0823268 0.00123475 0.458861 0 0 0 
0.00157096 0.00052357 0.00381285 0 0 0 
-0.0791848 -0.000187614 -0.451235 0 0 0 
0.0804441 -0.00134783 0.450421 0 0 0 
-0.000336044 -0.0013547 -0.000805706 0 0 0 
-0.0811162 -0.00136158 -0.452032 0 0 0 
0.0784888 0.00178464 0.441662 0 0 0 
-4.06541e-05 0.00038427 -0.00413929 0 0 0 
-0.0785701 -0.00101611 -0.449941 0 0 0 
0.0787 0.000454592 0.453925 0 0 0 
-0.000934198 0.000132793 -0.000906646 0 0 0 
-0.0805684 -0.000189005 -0.455739 0 0 0 
0.078337 0.00186874 0.443998 0 0 0 
-0.00165926 0.00121712 -0.0037901 0 0 0 
-0.0816555 0.000565496 -0.451578 0 0 0 
0.0808496 0.00104249 0.45012 0 0 0 
0.000411857 0.000332598 -0.00132567 0 0 0 
-0.0800259 -0.000377296 -0.452771 0 0 0 
0.0814872 -0.00163382 0.45849 0 0 0 
0.000790928 -0.000250433 0.00644986 0 0 0 
-0.0799053 0.00113295 -0.44559 0 0 0 
0.0784038 0.00184945 0.453859 0 0 0 
-0.000552081 0.00166055 0.000646532 0 0 0 
-0.0795079 0.00147166 -0.452566 0 0 0 
0.0771927 -0.000584762 0.443295 0 0 0 
4.04902e-05 -0.00103983 6.61463e-05 0 0 0 
-0.0771117 -0.00149489 -0.443163 0 0 0 
0.0822633 0.00142385 0.458594 0 0 0 
0.00164981 0.000728257 0.00562735 0 0 0 
-0.0789637 3.26626e-05 -0.44734 0 0 0 
0.0824044 -0.000880944 0.458464 0 0 0 
0.000976685 -0.000245387 0.00630628 0 0 0 
-0.080451 0.000390171 -0.445852 0 0 0 
0.0804012 0.000159517 0.450369 0 0 0 
-0.000767343 0.000329314 -0.00276139 0 0 0 
-0.0819359 0.000499111 -0.455892 0 0 0 
0.0805854 0.00171674 0.455317 0 0 0 
0.00143829 0.00029456 0.00636531 0 0 0 
-0.0777089 -0.00112762 -0.442586 0 0 0 
3 0 1 2
3 3 4 5
3 6 7 8
3 9 10 11
3 12 13 14
3 15 16 17
3 18 19 20
3 21 22 23
3 24 25 26
3 27 28 29
3 30 31 32
3 33 34 35
3 36 37 38
3 39 40 41
3 42 43 44
3 45 46 47
3 48 49 50
3 51 52 53
3 54 55 56
3 57 58 59
3 60 61 62
3 63 64 65
3 66 67 68
3 69 70 71
3 72 73 74
3 75 76 77
3 78 79 80
3 81 82 83
3 84 85 86
3 87 88 89
3 90 91 92
3 93 94 95
3 96 97 98
3 99 100 101
3 102 103 104
3 105 106 107
3 108 109 110
3 111 112 113
3 114 115 116
3 117 118 119
3 120 121 122
3 123 124 125
3 126 127 128
3 129 130 131
3 132 133 134
3 135 136 137
3 138 139 140
3 141 142 143
3 144 145 146
3 147 148 149
3 150 151 152
3 153 154 155
3 156 157 158
3 159 160 161
3 162 163 164
3 165 166 167
3 168 169 170
3 171 172 173
3 174 175 176
3 177 178 179
3 180 181 182
3 183 184 185
3 186 187 188
3 189 190 191
3 192 193 194
3 195 196 197
3 198 199 200
3 201 202 203
3 204 205 206
3 207 208 209
3 210 211 212
3 213 214 215
3 216 217 218
3 219 220 221
3 222 223 224
3 225 226 227
3 228 229 230
3 231 232 233
3 234 235 236
3 237 238 239
3 240 241 242
3 243 244 245
3 246 247 248
3 249 250 251
3 252 253 254
3 255 256 257
3 258 259 260
3 261 262 263
3 264 265 266
3 267 268 269
3 270 271 272
3 273 274 275
3 276 277 278
3 279 280 281
3 282 283 284
3 285 286 287
3 288 289 290
3 291 292 293
3 294 295 296
3 297 298 299
