ply
format ascii 1.0
comment Created by object PlyWriter
element vertex 300
property float x
property float y
property float z
property float nx
property float ny
property float nz
element face 100
property list uchar uint vertex_indices
end_header
-0.329369 -0.00055578 0.32073 0 0 0 
-0.000325546 -0.000602524 0.00122464 0 0 0 
0.328718 -0.000649268 -0.318281 0 0 0 
-0.324257 -0.00106961 0.312957 0 0 0 
-0.000274584 6.45221e-05 -0.000878915 0 0 0 
0.323708 0.00119865 -0.314715 0 0 0 
-0.3315 0.000504748 0.318513 0 0 0 
0.000173688 0.000523089 -0.000809312 0 0 0 
0.331848 0.000541431 -0.320132 0 0 0 
-0.325864 -0.00184953 0.317459 0 0 0 
0.00269935 -0.000193382 -0.000673354 0 0 0 
0.331263 0.00146277 -0.318806 0 0 0 
-0.330708 0.00169799 0.318075 0 0 0 
0.000337273 0.000481672 -0.000514716 0 0 0 
0.331382 -0.00073465 -0.319105 0 0 0 
-0.323949 0.00194266 0.310778 0 0 0 
0.00328545 0.000989673 -0.00320114 0 0 0 
0.33052 3.66853e-05 -0.31718 0 0 0 
-0.335012 0.000699724 0.322753 0 0 0 
-0.00132836 0.00100135 -0.000196189 0 0 0 
0.332356 0.00130298 -0.323145 0 0 0 
-0.333893 0.000531652 0.321346 0 0 0 
-0.00616798 -0.000390896 0.00429733 0 0 0 
0.321557 -0.00131344 -0.312751 0 0 0 
-0.335089 0.00131889 0.323035 0 0 0 
-0.00231573 0.00128175 0.00217538 0 0 0 
0.330457 0.00124461 -0.318684 0 0 0 
-0.336029 0.000613957 0.321809 0 0 0 
-0.00307962 0.000599253 0.00263305 0 0 0 
0.32987 0.000584549 -0.316543 0 0 0 
-0.336024 0.000705935 0.323407 0 0 0 
-0.00363387 -0.00032279 0.0037487 0 0 0 
0.328756 -0.00135152 -0.31591 0 0 0 
-0.323865 -0.000467156 0.314336 0 0 0 
0.00275995 -0.00086621 -0.00236672 0 0 0 
0.329385 -0.00126526 -0.319069 0 0 0 
-0.326126 -0.000962939 0.317602 0 0 0 
0.000623152 -0.000736107 0.00056465 0 0 0 
0.327372 -0.000509275 -0.316473 0 0 0 
-0.323955 -0.00118516 0.312532 0 0 0 
5.99474e-05 -0.00100389 -0.000174835 0 0 0 
0.324075 -0.000822613 -0.312882 0 0 0 
-0.33447 0.0012402 0.320891 0 0 0 
-0.002259 0.000956135 0.000568852 0 0 0 
0.329952 0.000672068 -0.319753 0 0 0 
-0.331548 -0.000913564 0.321673 0 0 0 
-0.00238946 -7.76072e-05 0.00385241 0 0 0 
0.32677 0.00075835 -0.313968 0 0 0 
-0.335918 0.0013636 0.321731 0 0 0 
-0.00088352 0.000620099 0.000575081 0 0 0 
0.334151 -0.0001234 -0.320581 0 0 0 
-0.321564 0.00129915 0.312245 0 0 0 
0.00124025 0.0005963 0.00056605 0 0 0 
0.324044 -0.000106553 -0.311113 0 0 0 
-0.333236 0.000796089 0.31947 0 0 0 
-0.00622624 0.000491836 0.00355338 0 0 0 
0.320784 0.000187582 -0.312363 0 0 0 
-0.323292 0.000809384 0.310649 0 0 0 
0.00513747 -0.000338939 -0.00656614 0 0 0 
0.333567 -0.00148726 -0.323781 0 0 0 
-0.324649 -7.20691e-05 0.310845 0 0 0 
-0.00140256 -0.000168861 0.000137061 0 0 0 
0.321844 -0.000265653 -0.310571 0 0 0 
-0.329459 -0.00157729 0.318949 0 0 0 
0.00239499 -0.000118943 -0.00208102 0 0 0 
0.334249 0.0013394 -0.323111 0 0 0 
-0.327824 -0.000448049 0.316487 0 0 0 
-0.00250341 0.00011063 0.00136229 0 0 0 
0.322817 0.00066931 -0.313762 0 0 0 
-0.329287 0.00103022 0.316266 0 0 0 
-0.000704885 0.00119599 0.000492603 0 0 0 
0.327877 0.00136177 -0.31528 0 0 0 
-0.32769 0.0019639 0.316902 0 0 0 
0.000488698 0.000466793 0.000873625 0 0 0 
0.328667 -0.00103032 -0.315155 0 0 0 
-0.335371 0.00117321 0.322677 0 0 0 
-0.00407201 0.0009744 0.00368531 0 0 0 
0.327227 0.000775587 -0.315306 0 0 0 
-0.322792 -0.00157949 0.313552 0 0 0 
0.00200711 -0.000308972 -0.00185119 0 0 0 
0.326807 0.000961548 -0.317255 0 0 0 
-0.329398 -0.00151016 0.315358 0 0 0 
0.000148237 -0.000332627 -0.000231266 0 0 0 
0.329694 0.000844903 -0.315821 0 0 0 
-0.330872 0.00107474 0.317448 0 0 0 
-0.00196818 0.000892746 0.000242129 0 0 0 
0.326935 0.000710755 -0.316964 0 0 0 
-0.327536 -0.00139614 0.318467 0 0 0 
0.00223671 -0.00015489 -5.25266e-05 0 0 0 
0.332009 0.00108636 -0.318572 0 0 0 
-0.324069 0.00174049 0.314269 0 0 0 
-0.000938818 0.00162184 0.00123408 0 0 0 
0.322191 0.0015032 -0.3118 0 0 0 
-0.322477 -0.00130122 0.314101 0 0 0 
0.00116171 -0.000382445 6.84112e-05 0 0 0 
0.3248 0.000536328 -0.313964 0 0 0 
-0.332867 0.00186447 0.322654 0 0 0 
0.00214526 0.00186337 -0.000173658 0 0 0 
0.337158 0.00186227 -0.323001 0 0 0 
-0.334394 -0.00120898 0.324432 0 0 0 
-0.0028511 -0.00152266 0.00344628 0 0 0 
0.328692 -0.00183634 -0.317539 0 0 0 
-0.333542 -0.00184297 0.32282 0 0 0 
-0.00184599 -0.00130522 0.00315966 0 0 0 
0.32985 -0.000767482 -0.316501 0 0 0 
-0.329893 -0.00171878 0.318105 0 0 0 
0.00102878 -0.00152047 -0.00150748 0 0 0 
0.33195 -0.00132216 -0.32112 0 0 0 
-0.329627 -0.000215451 0.318294 0 0 0 
0.00279354 -0.00106877 -0.00181256 0 0 0 
0.335214 -0.00192208 -0.321919 0 0 0 
-0.335242 0.00175921 0.323636 0 0 0 
-0.00622997 0.000241856 0.00562923 0 0 0 
0.322782 -0.0012755 -0.312378 0 0 0 
-0.335002 0.00167768 0.32211 0 0 0 
-0.00390041 0.000320032 0.00220184 0 0 0 
0.327201 -0.00103761 -0.317706 0 0 0 
-0.329722 0.000739809 0.31858 0 0 0 
-0.00308663 -0.000332102 0.00241043 0 0 0 
0.323549 -0.00140401 -0.313759 0 0 0 
-0.323908 0.000777396 0.315102 0 0 0 
0.00449973 3.26256e-05 -0.00260797 0 0 0 
0.332908 -0.000712145 -0.320318 0 0 0 
-0.326594 0.000783013 0.315602 0 0 0 
-0.000945956 0.000645795 -6.37323e-05 0 0 0 
0.324702 0.000508576 -0.31573 0 0 0 
-0.325112 -0.00028867 0.3143 0 0 0 
0.00189342 0.000492454 -0.0018263 0 0 0 
0.328899 0.00127358 -0.317952 0 0 0 
-0.328664 0.000995423 0.317341 0 0 0 
0.00357443 -0.000350078 -0.0020991 0 0 0 
0.335813 -0.00169558 -0.321539 0 0 0 
-0.329075 0.00165587 0.318127 0 0 0 
-0.000169978 0.00102703 0.00108409 0 0 0 
0.328735 0.000398182 -0.315958 0 0 0 
-0.332932 -0.000225618 0.320801 0 0 0 
-0.00482322 -0.000102676 0.00444216 0 0 0 
0.323286 2.02665e-05 -0.311917 0 0 0 
-0.32682 -0.00172072 0.316476 0 0 0 
-0.000995278 -0.00133415 0.000527143 0 0 0 
0.324829 -0.000947569 -0.315422 0 0 0 
-0.32897 0.000557385 0.317322 0 0 0 
-0.00134033 0.000478385 0.00230756 0 0 0 
0.326289 0.000399386 -0.312707 0 0 0 
-0.335374 0.00135147 0.322593 0 0 0 
-0.00158797 0.000561949 -0.000176683 0 0 0 
0.332198 -0.000227576 -0.322946 0 0 0 
-0.325756 -0.000139302 0.31578 0 0 0 
0.00390442 -0.000909491 -0.0032627 0 0 0 
0.333565 -0.00167968 -0.322305 0 0 0 
-0.332958 -0.00017086 0.321032 0 0 0 
-0.00229423 2.91358e-06 0.00179614 0 0 0 
0.328369 0.000176687 -0.31744 0 0 0 
-0.329896 -0.000269146 0.31672 0 0 0 
-0.00151365 -0.000481896 0.000154138 0 0 0 
0.326869 -0.000694646 -0.316412 0 0 0 
-0.33182 0.000459219 0.321666 0 0 0 
-0.00256659 0.000614951 0.00386113 0 0 0 
0.326687 0.000770683 -0.313944 0 0 0 
-0.328705 -0.00100797 0.315181 0 0 0 
-0.00127608 1.54775e-05 -5.81145e-07 0 0 0 
0.326153 0.00103892 -0.315182 0 0 0 
-0.335214 0.00176665 0.324278 0 0 0 
-0.00346357 0.000998722 0.00408246 0 0 0 
0.328287 0.000230789 -0.316113 0 0 0 
-0.331266 -0.000667913 0.317805 0 0 0 
-0.00132841 -0.000264583 -0.000839576 0 0 0 
0.32861 0.000138746 -0.319484 0 0 0 
-0.326014 0.000250071 0.31511 0 0 0 
0.000173524 0.000126537 0.00107951 0 0 0 
0.326361 3.00305e-06 -0.312951 0 0 0 
-0.326163 0.00129745 0.314087 0 0 0 
0.00257155 0.0016352 -0.00273171 0 0 0 
0.331307 0.00197295 -0.319551 0 0 0 
-0.327191 0.00163918 0.315886 0 0 0 
0.00248915 0.00125808 -0.00324048 0 0 0 
0.332169 0.00087698 -0.322367 0 0 0 
-0.334763 9.02067e-05 0.320595 0 0 0 
-0.00306799 0.000486204 0.00130522 0 0 0 
0.328628 0.0008822 -0.317984 0 0 0 
-0.328435 0.0011205 0.315754 0 0 0 
-3.60608e-05 0.000760012 0.000115797 0 0 0 
0.328363 0.00039952 -0.315523 0 0 0 
-0.33164 0.00124916 0.318032 0 0 0 
0.00188462 5.35363e-05 -0.00277108 0 0 0 
0.33541 -0.00114209 -0.323574 0 0 0 
-0.322943 0.000806138 0.309881 0 0 0 
0.00476339 -0.000401741 -0.00658193 0 0 0 
0.33247 -0.00160962 -0.323045 0 0 0 
-0.324347 0.00181295 0.315493 0 0 0 
0.00192806 0.00119694 0.000293374 0 0 0 
0.328203 0.000580925 -0.314906 0 0 0 
-0.333411 -0.00120242 0.32062 0 0 0 
0.000468045 -0.00133699 -0.00127541 0 0 0 
0.334347 -0.00147156 -0.323171 0 0 0 
-0.330091 0.000262194 0.317646 0 0 0 
-0.00226137 2.21544e-05 0.00218934 0 0 0 
0.325568 -0.000217885 -0.313268 0 0 0 
-0.33449 0.00193855 0.322846 0 0 0 
-0.00302869 0.000229886 0.00407909 0 0 0 
0.328432 -0.00147878 -0.314688 0 0 0 
-0.323232 -0.00132203 0.311653 0 0 0 
0.00445774 0.000194877 -0.00434922 0 0 0 
0.332148 0.00171179 -0.320352 0 0 0 
-0.324181 0.00162743 0.314294 0 0 0 
0.00337386 0.000474946 -0.00231281 0 0 0 
0.330928 -0.000677532 -0.318919 0 0 0 
-0.335977 -0.000602081 0.321836 0 0 0 
-0.00624035 -0.000209452 0.00442387 0 0 0 
0.323496 0.000183178 -0.312988 0 0 0 
-0.332952 -0.00078262 0.322494 0 0 0 
0.00134693 -0.000657295 -0.000908688 0 0 0 
0.335646 -0.000531969 -0.324311 0 0 0 
-0.33294 -0.000423007 0.324143 0 0 0 
-0.00471155 -0.000271299 0.00565973 0 0 0 
0.323517 -0.00011959 -0.312823 0 0 0 
-0.325725 -0.00119397 0.317021 0 0 0 
0.00188796 0.000390929 -0.000331745 0 0 0 
0.329501 0.00197583 -0.317684 0 0 0 
-0.325144 -0.00113488 0.31483 0 0 0 
-0.000746667 3.73591e-05 0.00169571 0 0 0 
0.32365 0.00120959 -0.311439 0 0 0 
-0.326681 0.00100387 0.316284 0 0 0 
-0.000742108 0.000658659 0.00112917 0 0 0 
0.325197 0.000313448 -0.314025 0 0 0 
-0.330132 -0.00147822 0.320461 0 0 0 
-0.00108664 -0.00108975 0.00308636 0 0 0 
0.327958 -0.000701292 -0.314289 0 0 0 
-0.332291 0.000809027 0.322631 0 0 0 
-0.00491366 0.000129741 0.0063152 0 0 0 
0.322464 -0.000549544 -0.310001 0 0 0 
-0.336221 0.00159803 0.323805 0 0 0 
-0.00419252 -9.05494e-05 0.00492959 0 0 0 
0.327836 -0.00177913 -0.313946 0 0 0 
-0.32943 -0.000781703 0.315427 0 0 0 
-0.000758186 -0.000748878 -0.000337452 0 0 0 
0.327914 -0.000716053 -0.316102 0 0 0 
-0.333132 0.00115172 0.321048 0 0 0 
-0.000695676 0.000631994 0.000187129 0 0 0 
0.331741 0.000112266 -0.320674 0 0 0 
-0.33673 0.00106385 0.323085 0 0 0 
-0.00115986 0.000981542 -0.00110827 0 0 0 
0.334411 0.000899233 -0.325302 0 0 0 
-0.332701 0.00044248 0.319101 0 0 0 
-0.00499575 -0.000187972 0.00318868 0 0 0 
0.32271 -0.000818425 -0.312724 0 0 0 
-0.325917 8.96817e-06 0.316615 0 0 0 
0.00553322 -7.23836e-05 -0.00308181 0 0 0 
0.336984 -0.000153735 -0.322779 0 0 0 
-0.333726 -0.00161195 0.324131 0 0 0 
-0.000969976 -0.00159072 0.00150064 0 0 0 
0.331786 -0.00156949 -0.32113 0 0 0 
-0.335326 -0.00159217 0.321502 0 0 0 
-0.00563666 -0.0017754 0.00421312 0 0 0 
0.324053 -0.00195863 -0.313076 0 0 0 
-0.324506 0.00063549 0.310738 0 0 0 
-0.000375926 -0.000398619 -0.00174674 0 0 0 
0.323754 -0.00143273 -0.314231 0 0 0 
-0.330692 0.00107258 0.320936 0 0 0 
0.00200397 -8.8754e-05 -0.000621811 0 0 0 
0.3347 -0.00125008 -0.32218 0 0 0 
-0.33443 0.00187918 0.325361 0 0 0 
0.000435084 0.000414256 0.00184409 0 0 0 
0.335301 -0.00105067 -0.321673 0 0 0 
-0.326398 -0.00119787 0.313175 0 0 0 
0.000267908 -0.000711585 -0.00167313 0 0 0 
0.326934 -0.000225301 -0.316521 0 0 0 
-0.324466 -0.000749032 0.310911 0 0 0 
0.00589426 -0.00018983 -0.00633335 0 0 0 
0.336255 0.000369371 -0.323578 0 0 0 
-0.322223 0.000349705 0.311164 0 0 0 
1.09076e-05 -0.000581857 -0.00133437 0 0 0 
0.322245 -0.00151342 -0.313833 0 0 0 
-0.331184 0.00105305 0.318363 0 0 0 
0.00233541 0.000364986 -0.00233552 0 0 0 
0.335855 -0.000323081 -0.323034 0 0 0 
-0.330633 -0.000831726 0.317078 0 0 0 
0.00182496 0.000300003 -0.00255752 0 0 0 
0.334283 0.00143173 -0.322193 0 0 0 
-0.326337 -0.00116298 0.313854 0 0 0 
-0.00188251 0.000328414 -0.000199288 0 0 0 
0.322572 0.0018198 -0.314252 0 0 0 
-0.325908 0.000328622 0.313129 0 0 0 
-0.000413671 -7.87852e-06 0.000524551 0 0 0 
0.325081 -0.000344379 -0.31208 0 0 0 
-0.322227 0.00138829 0.311729 0 0 0 
0.00480399 0.00117246 -0.00433524 0 0 0 
0.331835 0.000956637 -0.3204 0 0 0 
-0.323027 0.000908077 0.311447 0 0 0 
-0.000547811 0.000782671 -0.000173166 0 0 0 
0.321931 0.000657264 -0.311793 0 0 0 
-0.323304 0.00141138 0.310096 0 0 0 
0.00286157 0.000690854 -0.00369723 0 0 0 
0.329028 -2.96701e-05 -0.317491 0 0 0 
-0.326764 -0.000723074 0.315841 0 0 0 
0.00299057 -0.000263748 -0.00297041 0 0 0 
0.332745 0.000195579 -0.321782 0 0 0 
-0.329709 -0.00166588 0.321173 0 0 0 
-0.000412807 -0.00059914 0.000758126 0 0 0 
0.328883 0.000467599 -0.319657 0 0 0 
3 0 1 2
3 3 4 5
3 6 7 8
3 9 10 11
3 12 13 14
3 15 16 17
3 18 19 20
3 21 22 23
3 24 25 26
3 27 28 29
3 30 31 32
3 33 34 35
3 36 37 38
3 39 40 41
3 42 43 44
3 45 46 47
3 48 49 50
3 51 52 53
3 54 55 56
3 57 58 59
3 60 61 62
3 63 64 65
3 66 67 68
3 69 70 71
3 72 73 74
3 75 76 77
3 78 79 80
3 81 82 83
3 84 85 86
3 87 88 89
3 90 91 92
3 93 94 95
3 96 97 98
3 99 100 101
3 102 103 104
3 105 106 107
3 108 109 110
3 111 112 113
3 114 115 116
3 117 118 119
3 120 121 122
3 123 124 125
3 126 127 128
3 129 130 131
3 132 133 134
3 135 136 137
3 138 139 140
3 141 142 143
3 144 145 146
3 147 148 149
3 150 151 152
3 153 154 155
3 156 157 158
3 159 160 161
3 162 163 164
3 165 166 167
3 168 169 170
3 171 172 173
3 174 175 176
3 177 178 179
3 180 181 182
3 183 184 185
3 186 187 188
3 189 190 191
3 192 193 194
3 195 196 197
3 198 199 200
3 201 202 203
3 204 205 206
3 207 208 209
3 210 211 212
3 213 214 215
3 216 217 218
3 219 220 221
3 222 223 224
3 225 226 227
3 228 229 230
3 231 232 233
3 234 235 236
3 237 238 239
3 240 241 242
3 243 244 245
3 246 247 248
3 249 250 251
3 252 253 254
3 255 256 257
3 258 259 260
3 261 262 263
3 264 265 266
3 267 268 269
3 270 271 272
3 273 274 275
3 276 277 278
3 279 280 281
3 282 283 284
3 285 286 287
3 288 289 290
3 291 292 293
3 294 295 296
3 297 298 299
