ply
format ascii 1.0
comment Created by object PlyWriter
element vertex 300
property float x
property float y
property float z
property float nx
property float ny
property float nz
element face 100
property list uchar uint vertex_indices
end_header
-0.187233 -0.000905289 0.418848 0 0 0 
-0.00156985 -0.000839659 0.00260682 0 0 0 
0.184093 -0.000774029 -0.413635 0 0 0 
-0.19017 -0.00102673 0.425012 0 0 0 
-0.00296929 0.000287114 0.00591806 0 0 0 
0.184231 0.00160096 -0.413176 0 0 0 
-0.183092 -0.000545659 0.414119 0 0 0 
-0.00127 0.000483113 0.00229335 0 0 0 
0.180552 0.00151188 -0.409532 0 0 0 
-0.183591 0.00164436 0.41159 0 0 0 
0.000223003 0.000257715 -0.000823244 0 0 0 
0.184037 -0.00112893 -0.413236 0 0 0 
-0.183872 0.00189592 0.416324 0 0 0 
0.00235537 0.00015361 -0.00306524 0 0 0 
0.188583 -0.0015887 -0.422455 0 0 0 
-0.188279 0.000876226 0.42159 0 0 0 
-0.00281676 0.000450052 0.00333486 0 0 0 
0.182646 2.38793e-05 -0.41492 0 0 0 
-0.189924 -0.000435819 0.426502 0 0 0 
-0.00462568 -0.000307374 0.00870343 0 0 0 
0.180673 -0.000178928 -0.409095 0 0 0 
-0.181794 0.00107439 0.412089 0 0 0 
0.00161658 0.00064138 0.000688225 0 0 0 
0.185028 0.000208373 -0.410712 0 0 0 
-0.185727 0.000974058 0.418315 0 0 0 
-0.00200604 0.00136374 0.00448118 0 0 0 
0.181715 0.00175343 -0.409353 0 0 0 
-0.181179 -0.00160218 0.409184 0 0 0 
0.0016483 -0.00115989 -0.0045878 0 0 0 
0.184476 -0.000717598 -0.418359 0 0 0 
-0.183573 0.00197272 0.415532 0 0 0 
-0.000499293 0.00154985 0.00221279 0 0 0 
0.182574 0.00112699 -0.411106 0 0 0 
-0.183515 -0.0013859 0.414691 0 0 0 
0.000502318 -0.000930974 0.00242147 0 0 0 
0.18452 -0.000476049 -0.409848 0 0 0 
-0.18785 0.00110396 0.423703 0 0 0 
-0.000881203 0.000604395 0.00386761 0 0 0 
0.186088 0.000104833 -0.415967 0 0 0 
-0.188401 0.0013585 0.425929 0 0 0 
-5.93066e-06 0.000487351 -0.000584185 0 0 0 
0.188389 -0.000383795 -0.427098 0 0 0 
-0.18054 -0.001844 0.410047 0 0 0 
0.000882395 -0.000670617 0.000612438 0 0 0 
0.182304 0.000502767 -0.408822 0 0 0 
-0.181424 0.00147278 0.411137 0 0 0 
0.00292309 0.00031354 -0.00328861 0 0 0 
0.18727 -0.000845704 -0.417714 0 0 0 
-0.187295 0.000795589 0.419375 0 0 0 
-0.00164711 -7.91106e-05 0.00101964 0 0 0 
0.184001 -0.00095381 -0.417336 0 0 0 
-0.187588 -0.000530414 0.418649 0 0 0 
-0.00308598 -0.00104672 0.00493725 0 0 0 
0.181416 -0.00156303 -0.408775 0 0 0 
-0.18193 0.00146182 0.413508 0 0 0 
0.00167517 0.000584351 -8.02875e-05 0 0 0 
0.18528 -0.000293114 -0.413668 0 0 0 
-0.183899 -0.00163626 0.416132 0 0 0 
0.00110181 -0.00169642 -0.00300995 0 0 0 
0.186103 -0.00175658 -0.422152 0 0 0 
-0.181272 -0.000298938 0.409314 0 0 0 
0.00267871 0.000228 -0.00724275 0 0 0 
0.186629 0.000754937 -0.423799 0 0 0 
-0.188823 -6.07127e-05 0.419303 0 0 0 
-0.00235247 -0.000969832 0.00311686 0 0 0 
0.184118 -0.00187895 -0.413069 0 0 0 
-0.187799 0.00180338 0.418051 0 0 0 
-0.000626832 0.000995978 -0.00111547 0 0 0 
0.186545 0.000188575 -0.420282 0 0 0 
-0.188524 0.000508373 0.418822 0 0 0 
-9.17688e-05 0.000926517 -0.000908881 0 0 0 
0.188341 0.00134466 -0.42064 0 0 0 
-0.183289 -7.97665e-05 0.409022 0 0 0 
0.00166585 -0.000508135 -0.00720601 0 0 0 
0.18662 -0.000936503 -0.423434 0 0 0 
-0.184332 -0.00167903 0.409207 0 0 0 
0.000576705 -0.00107067 -0.00154729 0 0 0 
0.185485 -0.000462321 -0.412302 0 0 0 
-0.189199 -0.00130069 0.4201 0 0 0 
-0.000849716 -0.000112301 -0.00131974 0 0 0 
0.1875 0.00107608 -0.42274 0 0 0 
-0.190091 -0.00144422 0.423705 0 0 0 
-0.00209005 -0.00124126 0.00123587 0 0 0 
0.185911 -0.00103829 -0.421233 0 0 0 
-0.188599 0.000613374 0.424974 0 0 0 
-6.71297e-06 0.000120956 -0.00111231 0 0 0 
0.188586 -0.000371463 -0.427198 0 0 0 
-0.188163 -0.00166351 0.419574 0 0 0 
-0.00262082 -0.000415391 0.00402378 0 0 0 
0.182921 0.000832726 -0.411527 0 0 0 
-0.188473 0.00116519 0.424314 0 0 0 
-0.00099159 0.0010891 0.00304611 0 0 0 
0.18649 0.00101301 -0.418222 0 0 0 
-0.187424 -0.00167824 0.419156 0 0 0 
-0.000800997 1.52722e-05 0.00316754 0 0 0 
0.185822 0.00170878 -0.412821 0 0 0 
-0.189696 0.00146563 0.423465 0 0 0 
-0.00402271 0.000142623 0.00742848 0 0 0 
0.18165 -0.00118038 -0.408608 0 0 0 
-0.184678 0.00105589 0.411201 0 0 0 
0.00112458 0.000691429 -0.00614494 0 0 0 
0.186927 0.000326972 -0.423491 0 0 0 
-0.184285 -0.000630327 0.412578 0 0 0 
0.00344593 -0.000382815 -0.00647898 0 0 0 
0.191177 -0.000135303 -0.425536 0 0 0 
-0.185125 0.00103628 0.416531 0 0 0 
0.00189732 0.000432406 -0.00404894 0 0 0 
0.188919 -0.000171473 -0.424629 0 0 0 
-0.189292 0.00130301 0.42621 0 0 0 
-0.00220462 0.00120462 0.00459103 0 0 0 
0.184882 0.00110624 -0.417028 0 0 0 
-0.188863 0.000721804 0.422757 0 0 0 
-0.0030903 0.000854033 0.00549798 0 0 0 
0.182682 0.000986263 -0.411761 0 0 0 
-0.186482 0.000558032 0.417901 0 0 0 
-0.00272566 0.00127083 0.00331943 0 0 0 
0.18103 0.00198362 -0.411262 0 0 0 
-0.186712 -0.00139383 0.41624 0 0 0 
-0.00187989 0.00014067 0.00250396 0 0 0 
0.182952 0.00167517 -0.411232 0 0 0 
-0.187104 0.00148841 0.422857 0 0 0 
-0.00144736 0.00105471 0.0047058 0 0 0 
0.184209 0.000621011 -0.413445 0 0 0 
-0.186248 -0.00104895 0.415088 0 0 0 
-0.00214577 0.000225889 0.00282656 0 0 0 
0.181956 0.00150073 -0.409435 0 0 0 
-0.18463 -0.000981739 0.418459 0 0 0 
-0.0011137 -0.00117632 0.00246571 0 0 0 
0.182403 -0.00137089 -0.413528 0 0 0 
-0.183773 2.53727e-05 0.409076 0 0 0 
-0.00182591 0.000304175 -0.000197992 0 0 0 
0.180121 0.000582978 -0.409472 0 0 0 
-0.187457 0.000797559 0.416944 0 0 0 
0.00204535 0.00125697 -0.00421929 0 0 0 
0.191548 0.00171638 -0.425382 0 0 0 
-0.183934 0.00114537 0.408753 0 0 0 
0.0018002 0.0014402 -0.00750373 0 0 0 
0.187534 0.00173503 -0.423761 0 0 0 
-0.181393 4.89492e-05 0.411702 0 0 0 
0.00236969 -0.000864084 -0.00294845 0 0 0 
0.186132 -0.00177712 -0.417599 0 0 0 
-0.187335 0.00100494 0.423707 0 0 0 
0.00100721 0.00130966 0.000647381 0 0 0 
0.18935 0.00161438 -0.422412 0 0 0 
-0.184568 -0.00164612 0.413797 0 0 0 
-0.00071165 -0.00163042 -0.00105186 0 0 0 
0.183145 -0.00161471 -0.415901 0 0 0 
-0.182055 -0.000379279 0.409318 0 0 0 
0.00255369 0.000483727 -0.00307761 0 0 0 
0.187163 0.00134673 -0.415473 0 0 0 
-0.187814 0.000215381 0.424077 0 0 0 
-0.000387326 0.00109208 0.00042592 0 0 0 
0.18704 0.00196878 -0.423225 0 0 0 
-0.184009 -0.0019067 0.417851 0 0 0 
0.00201887 -0.00162912 -5.54621e-05 0 0 0 
0.188047 -0.00135154 -0.417962 0 0 0 
-0.189897 0.000337559 0.426279 0 0 0 
-0.00109663 7.86127e-05 0.00273873 0 0 0 
0.187704 -0.000180334 -0.420801 0 0 0 
-0.188261 0.00177898 0.419555 0 0 0 
-0.0024988 7.5342e-05 0.00538908 0 0 0 
0.183263 -0.0016283 -0.408777 0 0 0 
-0.183211 -0.000522466 0.410022 0 0 0 
0.000299245 -0.000465441 0.000393242 0 0 0 
0.18381 -0.000408416 -0.409235 0 0 0 
-0.188671 0.00198392 0.426849 0 0 0 
-0.00302568 0.00016924 0.00655343 0 0 0 
0.18262 -0.00164545 -0.413742 0 0 0 
-0.187047 -0.0015032 0.4162 0 0 0 
-0.000607587 -0.000582063 -0.000737712 0 0 0 
0.185832 0.000339077 -0.417676 0 0 0 
-0.185925 -0.000261271 0.420316 0 0 0 
-0.000894733 -0.000199382 0.00271937 0 0 0 
0.184135 -0.000137492 -0.414877 0 0 0 
-0.187809 0.000800289 0.416968 0 0 0 
-0.000743553 0.00017095 0.00147593 0 0 0 
0.186321 -0.00045839 -0.414017 0 0 0 
-0.184162 0.000934832 0.414394 0 0 0 
-0.000719279 0.00119661 0.00212142 0 0 0 
0.182724 0.00145838 -0.410151 0 0 0 
-0.187702 -0.000380721 0.423502 0 0 0 
0.000604868 -0.00055258 0.00138278 0 0 0 
0.188912 -0.000724439 -0.420737 0 0 0 
-0.185177 -0.00106555 0.419419 0 0 0 
0.000279009 6.23323e-06 -0.000341624 0 0 0 
0.185735 0.00107802 -0.420103 0 0 0 
-0.187263 -0.00151529 0.425497 0 0 0 
-0.0024253 -0.000975036 0.00631991 0 0 0 
0.182412 -0.000434784 -0.412857 0 0 0 
-0.187932 -0.000971473 0.42346 0 0 0 
-0.0022823 -0.000240957 0.00770421 0 0 0 
0.183367 0.000489559 -0.408052 0 0 0 
-0.184953 0.000338415 0.419847 0 0 0 
-0.00141604 0.000533546 0.00534934 0 0 0 
0.182121 0.000728677 -0.409148 0 0 0 
-0.183797 0.00190429 0.416792 0 0 0 
0.000637487 0.000360963 0.0024482 0 0 0 
0.185072 -0.00118237 -0.411896 0 0 0 
-0.187208 0.000251652 0.418978 0 0 0 
-6.28009e-05 0.000593305 0.00100933 0 0 0 
0.187082 0.000934959 -0.41696 0 0 0 
-0.188388 2.34828e-05 0.422802 0 0 0 
0.000646666 -0.000296096 0.000179306 0 0 0 
0.189682 -0.000615675 -0.422443 0 0 0 
-0.186546 -0.00190844 0.416653 0 0 0 
-0.000945397 -0.0011539 0.00164311 0 0 0 
0.184655 -0.000399358 -0.413367 0 0 0 
-0.188963 0.000959146 0.423879 0 0 0 
-0.00159565 0.00132203 0.00294399 0 0 0 
0.185771 0.00168492 -0.417991 0 0 0 
-0.18901 0.000692488 0.422482 0 0 0 
0.00039684 0.000112288 -0.00145033 0 0 0 
0.189804 -0.000467912 -0.425382 0 0 0 
-0.185512 -0.001809 0.420633 0 0 0 
0.00156581 -0.00150187 -0.00243458 0 0 0 
0.188644 -0.00119475 -0.425502 0 0 0 
-0.189332 -0.000775306 0.425678 0 0 0 
-0.00330316 0.00042124 0.00868991 0 0 0 
0.182725 0.00161779 -0.408298 0 0 0 
-0.189942 0.00070313 0.426063 0 0 0 
-0.0017755 0.00109229 0.00413345 0 0 0 
0.186391 0.00148144 -0.417796 0 0 0 
-0.18544 -0.000453003 0.421133 0 0 0 
0.000847012 -0.000576764 0.000360608 0 0 0 
0.187134 -0.000700525 -0.420412 0 0 0 
-0.187286 0.00041219 0.423353 0 0 0 
-0.00137696 -0.000269837 0.00527191 0 0 0 
0.184532 -0.000951863 -0.412809 0 0 0 
-0.183525 3.20508e-05 0.410997 0 0 0 
0.00314946 -0.000839546 -0.00542612 0 0 0 
0.189824 -0.00171114 -0.421849 0 0 0 
-0.189946 0.000584904 0.425383 0 0 0 
-0.00314806 0.000771275 0.00617985 0 0 0 
0.18365 0.000957647 -0.413023 0 0 0 
-0.186238 0.00131747 0.415216 0 0 0 
-0.00150941 0.000978735 0.000855088 0 0 0 
0.183219 0.000640001 -0.413506 0 0 0 
-0.187534 0.00193419 0.419863 0 0 0 
-0.00169973 0.0005666 0.00232913 0 0 0 
0.184134 -0.000800994 -0.415205 0 0 0 
-0.189691 0.0016503 0.422134 0 0 0 
-0.00362725 0.000412943 0.00633124 0 0 0 
0.182437 -0.000824417 -0.409472 0 0 0 
-0.189282 -0.000369236 0.424614 0 0 0 
0.000448622 -0.00108348 -0.000449598 0 0 0 
0.190179 -0.00179772 -0.425513 0 0 0 
-0.186549 0.00154377 0.418687 0 0 0 
0.00150758 0.00126257 -0.0011283 0 0 0 
0.189565 0.000981367 -0.420944 0 0 0 
-0.185514 -0.00146621 0.413435 0 0 0 
0.00248657 -0.00149642 -0.00540189 0 0 0 
0.190487 -0.00152662 -0.424239 0 0 0 
-0.187233 0.0002654 0.418193 0 0 0 
-0.00166112 0.00047439 0.00199574 0 0 0 
0.183911 0.000683381 -0.414202 0 0 0 
-0.185541 0.00027423 0.41789 0 0 0 
0.00169453 -0.000261366 -0.00192095 0 0 0 
0.18893 -0.000796961 -0.421732 0 0 0 
-0.18712 -0.000290049 0.420381 0 0 0 
0.000165537 0.000720448 -0.00045073 0 0 0 
0.187451 0.00173095 -0.421283 0 0 0 
-0.185963 -0.00079271 0.417041 0 0 0 
0.000267543 -0.00110013 -0.0025485 0 0 0 
0.186498 -0.00140754 -0.422138 0 0 0 
-0.181504 -0.00125773 0.410639 0 0 0 
0.000904568 3.25168e-05 -0.00151287 0 0 0 
0.183314 0.00132276 -0.413665 0 0 0 
-0.189073 0.0011792 0.421084 0 0 0 
-0.00260308 0.00149745 0.00591432 0 0 0 
0.183867 0.0018157 -0.409255 0 0 0 
-0.180976 -0.000572933 0.410879 0 0 0 
0.000724919 0.000405588 0.00120275 0 0 0 
0.182426 0.00138411 -0.408473 0 0 0 
-0.185395 0.000189379 0.416621 0 0 0 
0.00136088 -0.000327231 -0.00331472 0 0 0 
0.188116 -0.00084384 -0.42325 0 0 0 
-0.189671 -0.000760938 0.421094 0 0 0 
-0.000858419 -0.00111236 -0.00219621 0 0 0 
0.187954 -0.00146379 -0.425486 0 0 0 
-0.189131 -0.000278689 0.425532 0 0 0 
-0.00346515 -0.000403751 0.00770946 0 0 0 
0.182201 -0.000528812 -0.410113 0 0 0 
-0.181444 -0.00127047 0.410487 0 0 0 
0.0021614 -0.000675336 -0.00468709 0 0 0 
0.185767 -8.01986e-05 -0.419861 0 0 0 
-0.188922 0.00194283 0.421951 0 0 0 
-0.00183006 0.00182151 0.00174563 0 0 0 
0.185262 0.0017002 -0.418459 0 0 0 
-0.183727 -0.00151497 0.409859 0 0 0 
0.00132196 -0.00151099 -0.0057582 0 0 0 
0.186371 -0.00150701 -0.421376 0 0 0 
-0.187534 -0.00126418 0.425738 0 0 0 
-0.00143252 0.00026565 0.00418355 0 0 0 
0.184669 0.00179548 -0.417371 0 0 0 
-0.186571 -0.000460416 0.417087 0 0 0 
-0.000786558 -0.00117816 -0.000128791 0 0 0 
0.184998 -0.00189591 -0.417345 0 0 0 
-0.1865 -0.00136188 0.415746 0 0 0 
-0.00182754 -0.000500219 0.000628859 0 0 0 
0.182845 0.000361441 -0.414488 0 0 0 
3 0 1 2
3 3 4 5
3 6 7 8
3 9 10 11
3 12 13 14
3 15 16 17
3 18 19 20
3 21 22 23
3 24 25 26
3 27 28 29
3 30 31 32
3 33 34 35
3 36 37 38
3 39 40 41
3 42 43 44
3 45 46 47
3 48 49 50
3 51 52 53
3 54 55 56
3 57 58 59
3 60 61 62
3 63 64 65
3 66 67 68
3 69 70 71
3 72 73 74
3 75 76 77
3 78 79 80
3 81 82 83
3 84 85 86
3 87 88 89
3 90 91 92
3 93 94 95
3 96 97 98
3 99 100 101
3 102 103 104
3 105 106 107
3 108 109 110
3 111 112 113
3 114 115 116
3 117 118 119
3 120 121 122
3 123 124 125
3 126 127 128
3 129 130 131
3 132 133 134
3 135 136 137
3 138 139 140
3 141 142 143
3 144 145 146
3 147 148 149
3 150 151 152
3 153 154 155
3 156 157 158
3 159 160 161
3 162 163 164
3 165 166 167
3 168 169 170
3 171 172 173
3 174 175 176
3 177 178 179
3 180 181 182
3 183 184 185
3 186 187 188
3 189 190 191
3 192 193 194
3 195 196 197
3 198 199 200
3 201 202 203
3 204 205 206
3 207 208 209
3 210 211 212
3 213 214 215
3 216 217 218
3 219 220 221
3 222 223 224
3 225 226 227
3 228 229 230
3 231 232 233
3 234 235 236
3 237 238 239
3 240 241 242
3 243 244 245
3 246 247 248
3 249 250 251
3 252 253 254
3 255 256 257
3 258 259 260
3 261 262 263
3 264 265 266
3 267 268 269
3 270 271 272
3 273 274 275
3 276 277 278
3 279 280 281
3 282 283 284
3 285 286 287
3 288 289 290
3 291 292 293
3 294 295 296
3 297 298 299
