ply
format ascii 1.0
comment Created by object PlyWriter
element vertex 300
property float x
property float y
property float z
property float nx
property float ny
property float nz
element face 100
property list uchar uint vertex_indices
end_header
-0.449434 0.024391 0.00169841 0 0 0 
0.00721642 -0.000603057 0.0014253 0 0 0 
0.463867 -0.0255971 0.00115219 0 0 0 
-0.452466 0.0229736 -0.000305181 0 0 0 
0.00481158 -0.000186213 9.94849e-05 0 0 0 
0.462089 -0.023346 0.000504151 0 0 0 
-0.453299 0.0256478 -0.000258863 0 0 0 
0.0060847 0.00136269 -0.000140416 0 0 0 
0.465468 -0.0229224 -2.19697e-05 0 0 0 
-0.458717 0.025386 -0.00196615 0 0 0 
-0.00302438 0.00129239 -0.00050371 0 0 0 
0.452668 -0.0228012 0.000958734 0 0 0 
-0.462013 0.0226623 -0.00182813 0 0 0 
-0.00274548 -0.000594241 -0.000960594 0 0 0 
0.456522 -0.0238508 -9.30587e-05 0 0 0 
-0.447917 0.0231299 -0.00148793 0 0 0 
0.00730127 -0.00050219 -0.00114439 0 0 0 
0.46252 -0.0241343 -0.000800856 0 0 0 
-0.454592 0.0247887 -0.000454499 0 0 0 
0.00435215 -0.000221394 0.000535821 0 0 0 
0.463297 -0.0252315 0.00152614 0 0 0 
-0.45122 0.0238092 -0.00135542 0 0 0 
-0.000130221 -0.000521802 -0.000695254 0 0 0 
0.45096 -0.0248528 -3.50839e-05 0 0 0 
-0.463467 0.0249763 -0.000625096 0 0 0 
7.28965e-05 0.000715193 -0.000437541 0 0 0 
0.463613 -0.0235459 -0.000249985 0 0 0 
-0.453933 0.0220789 0.000963819 0 0 0 
0.00635931 -0.000519397 0.00110195 0 0 0 
0.466652 -0.0231177 0.00124009 0 0 0 
-0.456431 0.0246032 0.000438081 0 0 0 
-0.00044848 0.00108561 7.2776e-05 0 0 0 
0.455535 -0.022432 -0.000292529 0 0 0 
-0.447763 0.0226826 -0.0013673 0 0 0 
0.00418743 -0.00147189 0.000126715 0 0 0 
0.456138 -0.0256263 0.00162073 0 0 0 
-0.461829 0.0252449 0.00122272 0 0 0 
0.00165202 4.77154e-05 0.000264863 0 0 0 
0.465133 -0.0251495 -0.000692988 0 0 0 
-0.451745 0.0244762 0.00173403 0 0 0 
0.00702032 -0.000126901 0.000197477 0 0 0 
0.465785 -0.02473 -0.00133907 0 0 0 
-0.459354 0.0222834 0.000494438 0 0 0 
-0.000623137 -0.000364982 0.0011811 0 0 0 
0.458108 -0.0230134 0.00186775 0 0 0 
-0.459832 0.0246792 0.0016461 0 0 0 
0.00129674 0.000893097 0.00129625 0 0 0 
0.462426 -0.022893 0.00094641 0 0 0 
-0.466048 0.0233799 0.000572231 0 0 0 
-0.0086824 0.00063095 0.000315802 0 0 0 
0.448683 -0.022118 5.9373e-05 0 0 0 
-0.465852 0.023803 0.00173069 0 0 0 
-0.0073151 0.000203411 0.000548474 0 0 0 
0.451222 -0.0233962 -0.000633742 0 0 0 
-0.46072 0.0252211 0.00170099 0 0 0 
0.000567123 0.00104888 0.000448451 0 0 0 
0.461854 -0.0231234 -0.000804093 0 0 0 
-0.454945 0.0233928 -0.000975259 0 0 0 
0.00558846 -0.00128594 -0.000368871 0 0 0 
0.466122 -0.0259647 0.000237517 0 0 0 
-0.463334 0.0246055 -0.0014941 0 0 0 
-0.00467694 0.000272444 -0.000577073 0 0 0 
0.45398 -0.0240606 0.000339956 0 0 0 
-0.462706 0.0224136 0.00109927 0 0 0 
0.000140086 -0.00139704 0.00103331 0 0 0 
0.462986 -0.0252077 0.000967351 0 0 0 
-0.465644 0.0230879 0.00189939 0 0 0 
-0.00281477 -0.00130827 0.00168432 0 0 0 
0.460014 -0.0257044 0.00146925 0 0 0 
-0.451835 0.0226123 -0.000458703 0 0 0 
0.00378531 0.000271487 -0.000805549 0 0 0 
0.459405 -0.0220693 -0.0011524 0 0 0 
-0.452194 0.0235535 0.000204857 0 0 0 
0.0028263 0.00055889 -0.00020366 0 0 0 
0.457846 -0.0224357 -0.000612177 0 0 0 
-0.46592 0.0237733 -0.000498694 0 0 0 
-0.00518349 -0.000394586 0.00049485 0 0 0 
0.455553 -0.0245625 0.00148839 0 0 0 
-0.456206 0.0231232 -0.000983695 0 0 0 
0.00071612 -0.000293505 -0.000164349 0 0 0 
0.457638 -0.0237102 0.000654996 0 0 0 
-0.463956 0.0244452 -0.000617028 0 0 0 
-0.00800414 -0.000291387 -0.000382072 0 0 0 
0.447947 -0.025028 -0.000147116 0 0 0 
-0.454001 0.0226598 -0.000148401 0 0 0 
-0.00264616 0.000303745 -0.000874914 0 0 0 
0.448709 -0.0220523 -0.00160143 0 0 0 
-0.466614 0.0257634 0.000741936 0 0 0 
-0.00347264 0.000285172 -0.000470599 0 0 0 
0.459669 -0.025193 -0.00168313 0 0 0 
-0.449506 0.0221223 -0.00175289 0 0 0 
0.00779748 -0.000804472 -0.00151517 0 0 0 
0.465101 -0.0237312 -0.00127746 0 0 0 
-0.466458 0.0222089 0.00027228 0 0 0 
-0.0083003 -0.000284317 -0.000821433 0 0 0 
0.449857 -0.0227775 -0.00191515 0 0 0 
-0.456969 0.0243823 0.000472804 0 0 0 
0.00486855 0.000855641 -0.000288457 0 0 0 
0.466706 -0.022671 -0.00104972 0 0 0 
-0.453895 0.0230698 0.00083638 0 0 0 
-0.0024991 -0.000165488 0.000229007 0 0 0 
0.448897 -0.0234008 -0.000378366 0 0 0 
-0.457553 0.0246488 -0.00149718 0 0 0 
0.00166915 -0.000467704 0.000158196 0 0 0 
0.460891 -0.0255842 0.00181358 0 0 0 
-0.466808 0.0242309 -0.000875232 0 0 0 
-0.000585318 0.000792179 -0.000922045 0 0 0 
0.465637 -0.0226466 -0.000968858 0 0 0 
-0.46193 0.0223943 0.0019958 0 0 0 
-0.000942141 -0.00148727 0.000960519 0 0 0 
0.460045 -0.0253689 -7.47646e-05 0 0 0 
-0.448026 0.0233195 0.00188978 0 0 0 
0.0024626 -0.00129578 0.0010028 0 0 0 
0.452951 -0.025911 0.000115824 0 0 0 
-0.454015 0.0232009 -0.00122919 0 0 0 
0.00591375 -0.000182412 -0.00158378 0 0 0 
0.465842 -0.0235657 -0.00193837 0 0 0 
-0.449786 0.0227891 0.00182875 0 0 0 
-0.00131682 -0.00108838 -3.67512e-05 0 0 0 
0.447153 -0.0249659 -0.00190225 0 0 0 
-0.458785 0.0220164 0.000584769 0 0 0 
-0.00029324 -0.001852 0.00126271 0 0 0 
0.458199 -0.0257204 0.00194065 0 0 0 
-0.457552 0.0223897 0.00039625 0 0 0 
0.00108086 -0.000610084 0.0010081 0 0 0 
0.459714 -0.0236099 0.00161996 0 0 0 
-0.459429 0.0257213 0.00046524 0 0 0 
-0.00538199 0.000859466 0.000478138 0 0 0 
0.448665 -0.0240024 0.000491036 0 0 0 
-0.465928 0.0224442 -0.00184618 0 0 0 
-0.006616 -0.000914883 -0.00174912 0 0 0 
0.452696 -0.024274 -0.00165207 0 0 0 
-0.461434 0.0248871 0.000329626 0 0 0 
0.000794291 0.00135858 0.000742653 0 0 0 
0.463022 -0.0221699 0.00115568 0 0 0 
-0.454273 0.0248408 -0.0016739 0 0 0 
0.00100666 0.000386861 -0.000192116 0 0 0 
0.456286 -0.024067 0.00128966 0 0 0 
-0.454799 0.0250443 0.00148764 0 0 0 
0.00388704 6.25383e-06 0.000881659 0 0 0 
0.462573 -0.0250318 0.00027568 0 0 0 
-0.45872 0.0234666 0.000188187 0 0 0 
-0.0044581 -0.00116605 0.000191872 0 0 0 
0.449804 -0.0257987 0.000195558 0 0 0 
-0.454597 0.0222015 -0.00157365 0 0 0 
0.00310315 -0.000911962 -0.000666725 0 0 0 
0.460804 -0.0240254 0.000240195 0 0 0 
-0.451803 0.0221366 -0.000989747 0 0 0 
-0.000111103 -5.99464e-05 -0.000107886 0 0 0 
0.45158 -0.0222565 0.000773975 0 0 0 
-0.46448 0.0252375 -0.00182274 0 0 0 
-0.00373931 -3.77279e-06 -0.000286194 0 0 0 
0.457001 -0.025245 0.00125036 0 0 0 
-0.461281 0.0229082 0.0015035 0 0 0 
-0.007122 -0.000697012 -2.56257e-05 0 0 0 
0.447037 -0.0243022 -0.00155475 0 0 0 
-0.449395 0.023683 0.00154644 0 0 0 
0.00248279 0.000450486 0.00125874 0 0 0 
0.45436 -0.0227821 0.000971048 0 0 0 
-0.449252 0.0253723 0.00188183 0 0 0 
0.00361669 -3.17125e-05 0.00189964 0 0 0 
0.456486 -0.0254357 0.00191746 0 0 0 
-0.461124 0.0255489 0.000847798 0 0 0 
-0.00536862 0.00169742 0.00111066 0 0 0 
0.450387 -0.0221541 0.00137352 0 0 0 
-0.457578 0.0259083 0.00107346 0 0 0 
-0.000443578 0.00129739 0.000780002 0 0 0 
0.456691 -0.0233136 0.00048654 0 0 0 
-0.463301 0.0233362 2.85974e-05 0 0 0 
-0.000815183 -0.000524304 0.000656139 0 0 0 
0.46167 -0.0243848 0.00128368 0 0 0 
-0.463993 0.0232751 6.07851e-05 0 0 0 
-0.00540805 7.76658e-05 0.000698393 0 0 0 
0.453177 -0.0231198 0.001336 0 0 0 
-0.453883 0.0232654 0.000753492 0 0 0 
0.00509767 0.00010745 0.00101625 0 0 0 
0.464078 -0.0230505 0.00127901 0 0 0 
-0.451734 0.0232917 -0.00194526 0 0 0 
0.00104995 -0.00050279 -0.000385909 0 0 0 
0.453834 -0.0242973 0.00117345 0 0 0 
-0.449941 0.0234711 -0.00168242 0 0 0 
0.00634822 -1.74195e-05 -0.00152526 0 0 0 
0.462637 -0.023506 -0.00136809 0 0 0 
-0.463228 0.0255316 -0.00168406 0 0 0 
-0.00663543 0.000433799 -0.001027 0 0 0 
0.449957 -0.024664 -0.000369943 0 0 0 
-0.447779 0.0235557 -0.00142383 0 0 0 
0.00182907 0.000230864 -0.00141008 0 0 0 
0.451437 -0.023094 -0.00139633 0 0 0 
-0.454965 0.0225566 -0.000922582 0 0 0 
-0.00170097 -0.00121292 -0.000612702 0 0 0 
0.451563 -0.0249824 -0.000302822 0 0 0 
-0.460533 0.022769 6.63162e-05 0 0 0 
-0.00568232 3.32901e-05 -0.000928439 0 0 0 
0.449169 -0.0227024 -0.00192319 0 0 0 
-0.461351 0.0235523 -0.000721587 0 0 0 
0.00219557 -0.000107809 5.26179e-05 0 0 0 
0.465742 -0.0237679 0.000826823 0 0 0 
-0.452526 0.0252103 0.000323477 0 0 0 
-0.00128512 0.00123243 0.000335955 0 0 0 
0.449956 -0.0227454 0.000348434 0 0 0 
-0.463727 0.0227294 -0.00116864 0 0 0 
-0.00800404 -0.000396164 -0.000789592 0 0 0 
0.447719 -0.0235217 -0.00041054 0 0 0 
-0.450426 0.0241487 0.00144036 0 0 0 
0.00404997 -0.000570135 0.00114123 0 0 0 
0.458526 -0.025289 0.000842107 0 0 0 
-0.460001 0.0228436 -0.000948652 0 0 0 
-0.00381871 -0.00143991 0.000326617 0 0 0 
0.452364 -0.0257235 0.00160189 0 0 0 
-0.461165 0.0247849 0.000630545 0 0 0 
0.00266911 9.46447e-05 0.00102999 0 0 0 
0.466504 -0.0245956 0.00142944 0 0 0 
-0.460402 0.0222068 -0.00010846 0 0 0 
-0.00204076 -0.000587367 -0.000624602 0 0 0 
0.45632 -0.0233816 -0.00114074 0 0 0 
-0.454218 0.0220249 0.000547137 0 0 0 
-0.00343607 -0.00154249 0.000858511 0 0 0 
0.447346 -0.0251099 0.00116988 0 0 0 
-0.452409 0.0233451 0.001839 0 0 0 
0.0057015 -0.000431048 0.00177438 0 0 0 
0.463812 -0.0242072 0.00170977 0 0 0 
-0.455127 0.0258249 -0.00141693 0 0 0 
0.00528912 0.00160435 -7.11837e-05 0 0 0 
0.465705 -0.0226162 0.00127456 0 0 0 
-0.455407 0.0254513 0.00138039 0 0 0 
0.00256427 -0.000247464 0.0011824 0 0 0 
0.460535 -0.0259462 0.000984402 0 0 0 
-0.461263 0.0221379 0.000630221 0 0 0 
-0.00196607 -0.00179568 0.00118042 0 0 0 
0.457331 -0.0257292 0.00173061 0 0 0 
-0.453714 0.0233603 -0.00194205 0 0 0 
0.0044056 -0.000432845 -0.00182974 0 0 0 
0.462526 -0.024226 -0.00171743 0 0 0 
-0.456548 0.0240398 0.000104275 0 0 0 
-0.00446373 -0.000226602 -0.000363648 0 0 0 
0.44762 -0.024493 -0.00083157 0 0 0 
-0.464774 0.0242565 0.00151166 0 0 0 
-0.00580321 -0.000493709 0.00123627 0 0 0 
0.453167 -0.025244 0.000960877 0 0 0 
-0.449696 0.0252847 0.00173884 0 0 0 
0.0058175 0.000886058 0.000545634 0 0 0 
0.461331 -0.0235126 -0.000647575 0 0 0 
-0.460745 0.0227861 0.000284507 0 0 0 
-0.00483051 -0.000726978 -0.000269881 0 0 0 
0.451084 -0.02424 -0.000824269 0 0 0 
-0.448138 0.0239752 -0.00198311 0 0 0 
0.00909607 0.000766696 -0.00120827 0 0 0 
0.46633 -0.0224418 -0.000433433 0 0 0 
-0.464179 0.0240301 -5.24462e-05 0 0 0 
-0.0020172 -0.000488755 -0.000301943 0 0 0 
0.460144 -0.0250076 -0.000551439 0 0 0 
-0.448457 0.0239937 -0.00195207 0 0 0 
0.00415313 0.00050032 -0.00146483 0 0 0 
0.456763 -0.022993 -0.000977582 0 0 0 
-0.447788 0.0256062 -0.000537296 0 0 0 
0.000466809 0.000432177 0.000390445 0 0 0 
0.448721 -0.0247419 0.00131819 0 0 0 
-0.464812 0.0239597 -0.00148613 0 0 0 
0.000237852 -0.000168607 -3.65976e-05 0 0 0 
0.465288 -0.0242969 0.00141293 0 0 0 
-0.466034 0.0234347 -0.000439786 0 0 0 
-0.00927667 0.000380141 -0.000128053 0 0 0 
0.44748 -0.0226744 0.00018368 0 0 0 
-0.448534 0.025849 0.000817003 0 0 0 
0.00606687 0.00112658 0.000952272 0 0 0 
0.460668 -0.0235958 0.00108754 0 0 0 
-0.447746 0.0230453 -0.00100275 0 0 0 
0.00783062 -0.00123447 0.000124971 0 0 0 
0.463408 -0.0255143 0.0012527 0 0 0 
-0.453589 0.0249714 -0.00131177 0 0 0 
0.00436597 0.00105856 2.79683e-05 0 0 0 
0.462321 -0.0228543 0.00136771 0 0 0 
-0.465805 0.0238486 0.00163879 0 0 0 
-0.0051741 -0.00101493 0.000705588 0 0 0 
0.455457 -0.0258784 -0.000227619 0 0 0 
-0.45447 0.0242864 -0.000948 0 0 0 
-0.000526205 0.000855504 -0.00136561 0 0 0 
0.453418 -0.0225754 -0.00178322 0 0 0 
-0.464566 0.0259223 -0.0009556 0 0 0 
-0.00432679 0.00123135 -0.00050171 0 0 0 
0.455913 -0.0234596 -4.78192e-05 0 0 0 
-0.451689 0.0228842 -0.00167832 0 0 0 
0.003309 -0.000342997 -0.000687931 0 0 0 
0.458307 -0.0235702 0.000302455 0 0 0 
-0.466481 0.0236906 0.00147127 0 0 0 
-0.00669883 -0.00085352 0.00157818 0 0 0 
0.453083 -0.0253977 0.00168509 0 0 0 
-0.454253 0.0251467 0.000340119 0 0 0 
0.00233115 0.00136919 0.000988396 0 0 0 
0.458915 -0.0224083 0.00163667 0 0 0 
-0.465367 0.0254844 0.00014259 0 0 0 
-0.00396693 0.00105696 -0.000923349 0 0 0 
0.457433 -0.0233705 -0.00198929 0 0 0 
-0.459648 0.0242048 0.00109596 0 0 0 
0.000890091 0.000197869 -0.000305842 0 0 0 
0.461428 -0.023809 -0.00170764 0 0 0 
-0.457313 0.0220765 -0.00191652 0 0 0 
-0.00261834 -0.000887498 -0.00149211 0 0 0 
0.452076 -0.0238515 -0.0010677 0 0 0 
3 0 1 2
3 3 4 5
3 6 7 8
3 9 10 11
3 12 13 14
3 15 16 17
3 18 19 20
3 21 22 23
3 24 25 26
3 27 28 29
3 30 31 32
3 33 34 35
3 36 37 38
3 39 40 41
3 42 43 44
3 45 46 47
3 48 49 50
3 51 52 53
3 54 55 56
3 57 58 59
3 60 61 62
3 63 64 65
3 66 67 68
3 69 70 71
3 72 73 74
3 75 76 77
3 78 79 80
3 81 82 83
3 84 85 86
3 87 88 89
3 90 91 92
3 93 94 95
3 96 97 98
3 99 100 101
3 102 103 104
3 105 106 107
3 108 109 110
3 111 112 113
3 114 115 116
3 117 118 119
3 120 121 122
3 123 124 125
3 126 127 128
3 129 130 131
3 132 133 134
3 135 136 137
3 138 139 140
3 141 142 143
3 144 145 146
3 147 148 149
3 150 151 152
3 153 154 155
3 156 157 158
3 159 160 161
3 162 163 164
3 165 166 167
3 168 169 170
3 171 172 173
3 174 175 176
3 177 178 179
3 180 181 182
3 183 184 185
3 186 187 188
3 189 190 191
3 192 193 194
3 195 196 197
3 198 199 200
3 201 202 203
3 204 205 206
3 207 208 209
3 210 211 212
3 213 214 215
3 216 217 218
3 219 220 221
3 222 223 224
3 225 226 227
3 228 229 230
3 231 232 233
3 234 235 236
3 237 238 239
3 240 241 242
3 243 244 245
3 246 247 248
3 249 250 251
3 252 253 254
3 255 256 257
3 258 259 260
3 261 262 263
3 264 265 266
3 267 268 269
3 270 271 272
3 273 274 275
3 276 277 278
3 279 280 281
3 282 283 284
3 285 286 287
3 288 289 290
3 291 292 293
3 294 295 296
3 297 298 299
