ply
format ascii 1.0
comment Created by object PlyWriter
element vertex 300
property float x
property float y
property float z
property float nx
property float ny
property float nz
element face 100
property list uchar uint vertex_indices
end_header
-0.46033 -0.0237782 0.00188126 0 0 0 
0.00187451 -0.0247427 -3.99535e-05 0 0 0 
0.464079 -0.0257073 -0.00196117 0 0 0 
-0.455951 -0.0229828 0.000385458 0 0 0 
-0.000126705 -0.023332 -0.000697052 0 0 0 
0.455698 -0.0236813 -0.00177956 0 0 0 
-0.456905 -0.0242851 -9.35162e-05 0 0 0 
0.000107214 -0.0246963 -0.000301831 0 0 0 
0.45712 -0.0251075 -0.000510145 0 0 0 
-0.460879 -0.0255318 0.000400128 0 0 0 
0.000265166 -0.0239104 -1.4064e-05 0 0 0 
0.46141 -0.022289 -0.000428256 0 0 0 
-0.463242 -0.0253784 0.000852912 0 0 0 
-0.00297102 -0.0249328 0.00086632 0 0 0 
0.4573 -0.0244872 0.000879729 0 0 0 
-0.459895 -0.0246529 -0.000441257 0 0 0 
-0.00465924 -0.0250371 -0.000324028 0 0 0 
0.450577 -0.0254213 -0.000206798 0 0 0 
-0.462381 -0.0239622 0.000659981 0 0 0 
-0.00578941 -0.0246571 -0.000116095 0 0 0 
0.450802 -0.0253519 -0.000892171 0 0 0 
-0.461731 -0.0251001 0.000437543 0 0 0 
-0.0056192 -0.0235826 0.00113284 0 0 0 
0.450492 -0.0220651 0.00182814 0 0 0 
-0.449726 -0.0235315 -0.0013932 0 0 0 
0.000852942 -0.0237866 -0.000891065 0 0 0 
0.451432 -0.0240416 -0.00038893 0 0 0 
-0.453555 -0.0236078 0.000854055 0 0 0 
0.00367069 -0.0237108 -6.52508e-08 0 0 0 
0.460896 -0.0238138 -0.000854186 0 0 0 
-0.466769 -0.0229619 0.000556751 0 0 0 
-0.0047349 -0.0228517 0.000353921 0 0 0 
0.4573 -0.0227415 0.00015109 0 0 0 
-0.464136 -0.0250215 0.00147205 0 0 0 
-0.00541829 -0.0250604 0.000731979 0 0 0 
0.453299 -0.0250993 -8.09156e-06 0 0 0 
-0.450029 -0.0251926 -0.000418547 0 0 0 
-0.000871137 -0.0241543 0.000678454 0 0 0 
0.448286 -0.023116 0.00177545 0 0 0 
-0.45503 -0.0235277 -0.000841174 0 0 0 
0.000326619 -0.0233435 -0.00102605 0 0 0 
0.455684 -0.0231593 -0.00121093 0 0 0 
-0.456648 -0.0242767 0.00192969 0 0 0 
-0.00465702 -0.0234681 0.0013026 0 0 0 
0.447334 -0.0226594 0.000675511 0 0 0 
-0.46035 -0.0225969 0.00110801 0 0 0 
-0.000683904 -0.0241517 -0.000313682 0 0 0 
0.458982 -0.0257065 -0.00173537 0 0 0 
-0.45197 -0.0227913 0.000478523 0 0 0 
-0.00204757 -0.0242979 8.10188e-05 0 0 0 
0.447875 -0.0258044 -0.000316485 0 0 0 
-0.454277 -0.0228603 9.45358e-05 0 0 0 
0.00212127 -0.0233643 -0.000693582 0 0 0 
0.458519 -0.0238683 -0.0014817 0 0 0 
-0.464943 -0.0227738 -0.00155995 0 0 0 
-0.00379655 -0.0240562 -0.00129382 0 0 0 
0.45735 -0.0253386 -0.00102768 0 0 0 
-0.455001 -0.0259109 1.83405e-05 0 0 0 
-0.00229181 -0.0240587 -0.000384113 0 0 0 
0.450418 -0.0222064 -0.000786567 0 0 0 
-0.466658 -0.0230627 -0.00187664 0 0 0 
-0.00792478 -0.0238826 2.05738e-05 0 0 0 
0.450808 -0.0247025 0.00191779 0 0 0 
-0.46508 -0.0224024 0.00190203 0 0 0 
-0.00396928 -0.0227484 0.000288831 0 0 0 
0.457142 -0.0230944 -0.00132437 0 0 0 
-0.453519 -0.0240209 -0.00149006 0 0 0 
0.00252292 -0.024691 -0.000276396 0 0 0 
0.458565 -0.025361 0.000937265 0 0 0 
-0.459661 -0.0238665 0.00163931 0 0 0 
-0.000920609 -0.02436 0.00137648 0 0 0 
0.457819 -0.0248535 0.00111366 0 0 0 
-0.453312 -0.0235432 -0.00176025 0 0 0 
-0.000279203 -0.0238257 -0.00171838 0 0 0 
0.452753 -0.0241081 -0.00167651 0 0 0 
-0.461587 -0.0231979 0.000263178 0 0 0 
-0.000224069 -0.0228342 -0.000758257 0 0 0 
0.461139 -0.0224705 -0.00177969 0 0 0 
-0.44949 -0.0231347 5.26891e-05 0 0 0 
0.0081329 -0.0232705 -0.000240871 0 0 0 
0.465756 -0.0234064 -0.000534432 0 0 0 
-0.460507 -0.0220776 -0.00122082 0 0 0 
-0.003218 -0.0226363 -0.0009938 0 0 0 
0.454071 -0.023195 -0.00076678 0 0 0 
-0.463573 -0.0250312 0.0011207 0 0 0 
-0.00110695 -0.0235418 -0.000201804 0 0 0 
0.461359 -0.0220524 -0.00152431 0 0 0 
-0.450479 -0.0233066 0.00127839 0 0 0 
0.00412959 -0.0227147 0.0012077 0 0 0 
0.458739 -0.0221229 0.00113701 0 0 0 
-0.459151 -0.0224689 -0.00082721 0 0 0 
0.000874206 -0.0225135 -0.000636434 0 0 0 
0.4609 -0.022558 -0.000445658 0 0 0 
-0.45612 -0.0240175 -0.000564107 0 0 0 
0.00276472 -0.0247573 0.000184116 0 0 0 
0.46165 -0.0254972 0.00093234 0 0 0 
-0.458513 -0.0224386 -0.000611974 0 0 0 
0.00347729 -0.0233064 -0.000377636 0 0 0 
0.465468 -0.0241742 -0.000143298 0 0 0 
-0.465058 -0.0246374 -0.00106124 0 0 0 
-0.00429772 -0.0243051 -0.00103594 0 0 0 
0.456462 -0.0239727 -0.00101064 0 0 0 
-0.454627 -0.0248865 0.00183312 0 0 0 
0.00418836 -0.0249383 4.80428e-05 0 0 0 
0.463003 -0.0249901 -0.00173703 0 0 0 
-0.449948 -0.0235329 -0.000145008 0 0 0 
-0.000828519 -0.0229865 -0.00101621 0 0 0 
0.448291 -0.0224402 -0.00188742 0 0 0 
-0.464423 -0.0232497 -0.000666977 0 0 0 
0.00103128 -0.0240588 0.000105612 0 0 0 
0.466485 -0.0248678 0.000878201 0 0 0 
-0.45202 -0.0220071 0.00153754 0 0 0 
0.0066646 -0.0226743 1.13914e-05 0 0 0 
0.465349 -0.0233416 -0.00151476 0 0 0 
-0.466834 -0.0241992 0.00010732 0 0 0 
-0.00281908 -0.0237575 0.000171998 0 0 0 
0.461196 -0.0233158 0.000236677 0 0 0 
-0.452834 -0.0231605 0.00146518 0 0 0 
0.00673844 -0.0236258 0.00106855 0 0 0 
0.466311 -0.0240912 0.000671925 0 0 0 
-0.459666 -0.0233233 -0.000677854 0 0 0 
-0.00452386 -0.0229798 0.000507234 0 0 0 
0.450618 -0.0226363 0.00169232 0 0 0 
-0.447953 -0.025204 0.000660608 0 0 0 
-0.000414774 -0.0243364 -0.000338739 0 0 0 
0.447123 -0.0234688 -0.00133809 0 0 0 
-0.466586 -0.025664 0.000159949 0 0 0 
-0.00377688 -0.0243334 0.000297408 0 0 0 
0.459032 -0.0230027 0.000434866 0 0 0 
-0.450128 -0.0251265 0.000397883 0 0 0 
0.00647563 -0.0236126 -0.00066759 0 0 0 
0.463079 -0.0220987 -0.00173306 0 0 0 
-0.451427 -0.022693 0.00127686 0 0 0 
0.00563908 -0.0242276 -0.00015743 0 0 0 
0.462705 -0.0257622 -0.00159172 0 0 0 
-0.460809 -0.0254995 0.00136209 0 0 0 
0.0017674 -0.0240246 0.000769605 0 0 0 
0.464344 -0.0225497 0.000177118 0 0 0 
-0.462754 -0.0226003 -0.00175462 0 0 0 
-0.00175783 -0.02294 -0.00123098 0 0 0 
0.459239 -0.0232798 -0.000707337 0 0 0 
-0.458941 -0.0258242 0.00127157 0 0 0 
-0.00118196 -0.0257999 0.000925317 0 0 0 
0.456577 -0.0257756 0.000579058 0 0 0 
-0.456988 -0.0226939 0.00070407 0 0 0 
-0.00383896 -0.0241527 -0.000634336 0 0 0 
0.44931 -0.0256116 -0.00197274 0 0 0 
-0.458868 -0.0251628 0.000185736 0 0 0 
-0.00413056 -0.0239233 -0.000135288 0 0 0 
0.450607 -0.0226839 -0.000456313 0 0 0 
-0.46534 -0.0250975 0.00142767 0 0 0 
-0.00415394 -0.0254761 0.00152341 0 0 0 
0.457032 -0.0258547 0.00161915 0 0 0 
-0.448294 -0.0228922 -0.00116133 0 0 0 
0.00930271 -0.0240649 -8.12502e-05 0 0 0 
0.4669 -0.0252375 0.000998832 0 0 0 
-0.464569 -0.0254561 0.000124005 0 0 0 
-0.00166935 -0.0252018 -0.000800009 0 0 0 
0.46123 -0.0249474 -0.00172402 0 0 0 
-0.464008 -0.023708 -0.00124059 0 0 0 
-0.00378968 -0.0241833 -0.00114931 0 0 0 
0.456429 -0.0246586 -0.00105804 0 0 0 
-0.466884 -0.0223501 0.00165969 0 0 0 
-0.00206998 -0.0238258 0.0015775 0 0 0 
0.462744 -0.0253014 0.00149532 0 0 0 
-0.461004 -0.0221495 8.62235e-05 0 0 0 
-0.00535133 -0.0221169 0.00090414 0 0 0 
0.450301 -0.0220843 0.00172206 0 0 0 
-0.448216 -0.0254671 0.00101222 0 0 0 
0.00631143 -0.0240756 0.000611425 0 0 0 
0.460839 -0.022684 0.000210632 0 0 0 
-0.448033 -0.0227932 -0.000435964 0 0 0 
0.00484256 -0.0234712 -0.00049212 0 0 0 
0.457719 -0.0241493 -0.000548276 0 0 0 
-0.466046 -0.0233456 -0.00112025 0 0 0 
-0.00535719 -0.0240248 -0.000815042 0 0 0 
0.455332 -0.024704 -0.000509838 0 0 0 
-0.462271 -0.022862 -0.000413005 0 0 0 
-0.000287518 -0.0235562 -0.000915006 0 0 0 
0.461696 -0.0242503 -0.00141701 0 0 0 
-0.448582 -0.0246763 -0.00181781 0 0 0 
0.00533125 -0.0233388 -0.000806304 0 0 0 
0.459245 -0.0220013 0.000205206 0 0 0 
-0.464596 -0.0228748 0.0014068 0 0 0 
-0.000910118 -0.0234664 0.00167096 0 0 0 
0.462776 -0.0240581 0.00193512 0 0 0 
-0.457665 -0.0229689 0.0019952 0 0 0 
-0.00219825 -0.0228741 5.18702e-05 0 0 0 
0.453268 -0.0227794 -0.00189146 0 0 0 
-0.459152 -0.0240535 -0.000167852 0 0 0 
0.00114249 -0.0236621 -0.00077761 0 0 0 
0.461437 -0.0232708 -0.00138737 0 0 0 
-0.450319 -0.0243641 0.00033778 0 0 0 
-0.0011137 -0.0235132 -8.11203e-05 0 0 0 
0.448092 -0.0226623 -0.00050002 0 0 0 
-0.45549 -0.0240032 -0.000404718 0 0 0 
0.00435214 -0.0249739 -0.000203567 0 0 0 
0.464195 -0.0259446 -2.41562e-06 0 0 0 
-0.452367 -0.0230036 0.00152671 0 0 0 
0.00390281 -0.0225603 0.000624926 0 0 0 
0.460172 -0.0221171 -0.000276859 0 0 0 
-0.451032 -0.0249028 -0.000188649 0 0 0 
0.00395326 -0.0246998 0.000320022 0 0 0 
0.458939 -0.0244968 0.000828693 0 0 0 
-0.461613 -0.0237333 0.00176616 0 0 0 
0.00222987 -0.0235985 -0.000106302 0 0 0 
0.466073 -0.0234636 -0.00197876 0 0 0 
-0.460901 -0.0230542 -0.000835262 0 0 0 
-0.00533275 -0.0236765 -0.00139614 0 0 0 
0.450236 -0.0242988 -0.00195702 0 0 0 
-0.45812 -0.0240007 -0.000416652 0 0 0 
0.00407152 -0.0245224 -0.00112685 0 0 0 
0.466263 -0.025044 -0.00183706 0 0 0 
-0.451555 -0.0234833 -0.000233152 0 0 0 
-0.00139865 -0.0234889 0.000688781 0 0 0 
0.448758 -0.0234944 0.00161071 0 0 0 
-0.455407 -0.0240974 -0.00126512 0 0 0 
0.00120036 -0.0233509 -0.00094237 0 0 0 
0.457808 -0.0226044 -0.000619615 0 0 0 
-0.458926 -0.0258488 -0.0003813 0 0 0 
0.00368701 -0.0245302 0.000298895 0 0 0 
0.466301 -0.0232115 0.00097909 0 0 0 
-0.461438 -0.024176 0.000207323 0 0 0 
0.00210097 -0.0250691 0.000234583 0 0 0 
0.465639 -0.0259623 0.000261843 0 0 0 
-0.449635 -0.0226357 0.0012176 0 0 0 
-0.000665084 -0.0240132 0.00035826 0 0 0 
0.448305 -0.0253908 -0.000501079 0 0 0 
-0.457055 -0.0236974 0.00103804 0 0 0 
0.00455609 -0.0245079 0.000215717 0 0 0 
0.466167 -0.0253185 -0.000606609 0 0 0 
-0.452583 -0.023167 0.00110241 0 0 0 
0.00412755 -0.0240319 0.00104443 0 0 0 
0.460838 -0.0248967 0.000986446 0 0 0 
-0.461357 -0.0221627 -0.00108311 0 0 0 
-0.000591666 -0.0238923 -0.00104366 0 0 0 
0.460173 -0.025622 -0.00100421 0 0 0 
-0.449387 -0.0241874 0.00041184 0 0 0 
0.00380544 -0.0246718 3.28518e-05 0 0 0 
0.456998 -0.0251561 -0.000346136 0 0 0 
-0.461309 -0.0235036 -0.0018414 0 0 0 
0.00125726 -0.0232632 -0.000958065 0 0 0 
0.463824 -0.0230228 -7.4732e-05 0 0 0 
-0.461644 -0.025769 0.000707692 0 0 0 
-0.00483911 -0.0254311 0.000815614 0 0 0 
0.451966 -0.0250932 0.000923536 0 0 0 
-0.45072 -0.0230784 0.0015143 0 0 0 
0.000350505 -0.0237999 0.000718078 0 0 0 
0.451421 -0.0245213 -7.81397e-05 0 0 0 
-0.450943 -0.0236354 -0.00067507 0 0 0 
0.00165226 -0.0235751 -0.000343917 0 0 0 
0.454248 -0.0235147 -1.27647e-05 0 0 0 
-0.460923 -0.0240091 0.000523403 0 0 0 
-0.00640085 -0.0239223 -9.56529e-05 0 0 0 
0.448122 -0.0238356 -0.000714708 0 0 0 
-0.454682 -0.0246906 -0.00166584 0 0 0 
0.00381088 -0.0251165 -0.00165591 0 0 0 
0.462304 -0.0255424 -0.00164598 0 0 0 
-0.448783 -0.0253285 -0.00107441 0 0 0 
0.00514123 -0.0246959 7.79793e-05 0 0 0 
0.459065 -0.0240634 0.00123037 0 0 0 
-0.455729 -0.025253 0.00120485 0 0 0 
-0.000910178 -0.0239218 0.000789212 0 0 0 
0.453909 -0.0225906 0.000373579 0 0 0 
-0.465729 -0.0236406 0.000852189 0 0 0 
-1.42753e-05 -0.0241287 -0.00053653 0 0 0 
0.465701 -0.0246169 -0.00192525 0 0 0 
-0.459837 -0.0234701 -0.00121174 0 0 0 
-0.00253434 -0.0232053 -2.52926e-05 0 0 0 
0.454768 -0.0229405 0.00116116 0 0 0 
-0.458643 -0.0229244 -0.000446002 0 0 0 
0.00102425 -0.0226763 -0.000399429 0 0 0 
0.460692 -0.0224282 -0.000352855 0 0 0 
-0.455097 -0.0231072 -0.00194367 0 0 0 
-0.000418678 -0.0226832 -0.000589608 0 0 0 
0.454259 -0.0222591 0.000764451 0 0 0 
-0.453679 -0.0232975 -0.00032975 0 0 0 
-0.000452563 -0.0231536 7.73848e-05 0 0 0 
0.452774 -0.0230098 0.00048452 0 0 0 
-0.454275 -0.0252065 0.00156095 0 0 0 
0.00548135 -0.0255101 0.000770184 0 0 0 
0.465238 -0.0258137 -2.05792e-05 0 0 0 
-0.46609 -0.0259584 0.00087808 0 0 0 
-0.00429119 -0.0252996 -0.000348185 0 0 0 
0.457507 -0.0246407 -0.00157445 0 0 0 
-0.464046 -0.0256543 0.001898 0 0 0 
-0.000793934 -0.025412 0.00129387 0 0 0 
0.462458 -0.0251696 0.000689743 0 0 0 
-0.454217 -0.0220313 0.00129793 0 0 0 
-0.000601724 -0.0235356 0.000878924 0 0 0 
0.453013 -0.0250399 0.000459923 0 0 0 
-0.44741 -0.0255298 -0.000286434 0 0 0 
-5.02318e-05 -0.0254002 0.000199021 0 0 0 
0.447309 -0.0252707 0.000684476 0 0 0 
-0.448933 -0.0223353 0.00164741 0 0 0 
0.00265731 -0.0236553 0.00153089 0 0 0 
0.454248 -0.0249753 0.00141438 0 0 0 
-0.452787 -0.024674 -0.000465938 0 0 0 
0.00492761 -0.0249583 0.000552707 0 0 0 
0.462642 -0.0252425 0.00157135 0 0 0 
3 0 1 2
3 3 4 5
3 6 7 8
3 9 10 11
3 12 13 14
3 15 16 17
3 18 19 20
3 21 22 23
3 24 25 26
3 27 28 29
3 30 31 32
3 33 34 35
3 36 37 38
3 39 40 41
3 42 43 44
3 45 46 47
3 48 49 50
3 51 52 53
3 54 55 56
3 57 58 59
3 60 61 62
3 63 64 65
3 66 67 68
3 69 70 71
3 72 73 74
3 75 76 77
3 78 79 80
3 81 82 83
3 84 85 86
3 87 88 89
3 90 91 92
3 93 94 95
3 96 97 98
3 99 100 101
3 102 103 104
3 105 106 107
3 108 109 110
3 111 112 113
3 114 115 116
3 117 118 119
3 120 121 122
3 123 124 125
3 126 127 128
3 129 130 131
3 132 133 134
3 135 136 137
3 138 139 140
3 141 142 143
3 144 145 146
3 147 148 149
3 150 151 152
3 153 154 155
3 156 157 158
3 159 160 161
3 162 163 164
3 165 166 167
3 168 169 170
3 171 172 173
3 174 175 176
3 177 178 179
3 180 181 182
3 183 184 185
3 186 187 188
3 189 190 191
3 192 193 194
3 195 196 197
3 198 199 200
3 201 202 203
3 204 205 206
3 207 208 209
3 210 211 212
3 213 214 215
3 216 217 218
3 219 220 221
3 222 223 224
3 225 226 227
3 228 229 230
3 231 232 233
3 234 235 236
3 237 238 239
3 240 241 242
3 243 244 245
3 246 247 248
3 249 250 251
3 252 253 254
3 255 256 257
3 258 259 260
3 261 262 263
3 264 265 266
3 267 268 269
3 270 271 272
3 273 274 275
3 276 277 278
3 279 280 281
3 282 283 284
3 285 286 287
3 288 289 290
3 291 292 293
3 294 295 296
3 297 298 299
