ply
format ascii 1.0
comment Created by object PlyWriter
element vertex 300
property float x
property float y
property float z
property float nx
property float ny
property float nz
element face 100
property list uchar uint vertex_indices
end_header
-0.462414 -0.00177634 0.000361392 0 0 0 
-0.00279528 -0.00147267 -6.85272e-05 0 0 0 
0.456824 -0.00116899 -0.000498446 0 0 0 
-0.459792 0.000174778 0.00108949 0 0 0 
0.00297716 6.58173e-05 0.00154195 0 0 0 
0.465746 -4.31435e-05 0.00199442 0 0 0 
-0.450315 -0.000261284 -0.000489446 0 0 0 
0.00317851 -0.000351459 -0.000165127 0 0 0 
0.456672 -0.000441634 0.000159193 0 0 0 
-0.458743 -0.00154101 -0.001346 0 0 0 
-0.00284576 -0.000994157 0.000259397 0 0 0 
0.453052 -0.000447304 0.0018648 0 0 0 
-0.449308 -0.00124113 -0.00029768 0 0 0 
0.0086147 -0.000681416 -0.000335065 0 0 0 
0.466537 -0.000121707 -0.000372449 0 0 0 
-0.454212 0.000811215 0.0019779 0 0 0 
-0.00016512 0.00133083 0.00182639 0 0 0 
0.453882 0.00185045 0.00167487 0 0 0 
-0.458063 0.00124615 0.000331415 0 0 0 
0.00276731 0.000587908 0.00100647 0 0 0 
0.463597 -7.03286e-05 0.00168152 0 0 0 
-0.448729 -0.000510731 -0.000112518 0 0 0 
0.00161245 -3.65628e-05 0.000427256 0 0 0 
0.451954 0.000437605 0.000967031 0 0 0 
-0.459337 -0.000358072 -0.0018251 0 0 0 
0.00273044 0.000534795 -0.00112078 0 0 0 
0.464797 0.00142766 -0.000416453 0 0 0 
-0.448308 -0.00197131 0.00115383 0 0 0 
0.0035165 -0.00148232 0.000574316 0 0 0 
0.455341 -0.000993336 -5.19957e-06 0 0 0 
-0.466872 -0.000368975 -0.000427401 0 0 0 
-0.00668135 0.000639451 -0.00046505 0 0 0 
0.453509 0.00164788 -0.000502698 0 0 0 
-0.451087 0.000249582 -0.0013698 0 0 0 
0.0034924 -0.000814941 -0.000491498 0 0 0 
0.458071 -0.00187946 0.000386804 0 0 0 
-0.464863 -0.00123172 0.000245145 0 0 0 
0.000201225 -0.000260789 -0.000626355 0 0 0 
0.465266 0.000710137 -0.00149785 0 0 0 
-0.45204 -0.000438483 -0.00176467 0 0 0 
-0.000153467 -0.00103283 -0.000352 0 0 0 
0.451733 -0.00162717 0.00106067 0 0 0 
-0.452142 -0.000359188 -0.000507754 0 0 0 
0.00330919 -6.75339e-05 -9.64501e-07 0 0 0 
0.45876 0.00022412 0.000505825 0 0 0 
-0.459387 0.00183486 -0.00179868 0 0 0 
0.00312524 0.00182025 -0.00123522 0 0 0 
0.465637 0.00180564 -0.000671767 0 0 0 
-0.452259 -0.00126681 0.00119372 0 0 0 
0.000247464 -0.000278746 -0.000137484 0 0 0 
0.452753 0.000709314 -0.00146869 0 0 0 
-0.458202 -0.00141442 -0.00148697 0 0 0 
0.00386496 -0.000961153 -0.000414638 0 0 0 
0.465932 -0.00050789 0.000657693 0 0 0 
-0.449924 0.000504129 0.000474863 0 0 0 
0.00656112 -0.000713226 0.00038406 0 0 0 
0.463046 -0.00193058 0.000293257 0 0 0 
-0.453811 -0.00162426 7.37533e-05 0 0 0 
0.00513849 -0.000807159 -0.000782871 0 0 0 
0.464088 9.9435e-06 -0.0016395 0 0 0 
-0.455614 0.000976304 -0.00198247 0 0 0 
-0.00319509 -0.000319096 -0.0018413 0 0 0 
0.449223 -0.0016145 -0.00170012 0 0 0 
-0.457482 -0.000225889 -0.000479317 0 0 0 
-0.00401199 -0.000832039 -0.000589162 0 0 0 
0.449459 -0.00143819 -0.000699007 0 0 0 
-0.452765 0.000773497 -0.000100822 0 0 0 
-0.00283268 -0.000489901 -0.000816878 0 0 0 
0.4471 -0.0017533 -0.00153293 0 0 0 
-0.453176 -0.00137227 -0.00085528 0 0 0 
0.000121608 -0.000858278 -0.00107477 0 0 0 
0.453419 -0.000344284 -0.00129427 0 0 0 
-0.456624 -5.77396e-05 0.00123352 0 0 0 
-0.00271381 -0.00050836 -6.40585e-05 0 0 0 
0.451196 -0.000958981 -0.00136164 0 0 0 
-0.448724 -0.00161631 0.00091494 0 0 0 
0.00241153 -0.00117461 0.000782701 0 0 0 
0.453547 -0.00073291 0.000650462 0 0 0 
-0.46116 1.2805e-05 -0.00108967 0 0 0 
-0.00359692 -0.000373086 -0.000332947 0 0 0 
0.453966 -0.000758978 0.000423772 0 0 0 
-0.45402 -0.000960065 -0.000441902 0 0 0 
0.00396156 -0.00138018 8.11777e-05 0 0 0 
0.461943 -0.0018003 0.000604257 0 0 0 
-0.450366 -0.00061803 -0.00049994 0 0 0 
0.00505269 9.37678e-05 -0.000264105 0 0 0 
0.460471 0.000805565 -2.82701e-05 0 0 0 
-0.453245 0.00198096 -0.000757487 0 0 0 
0.0057013 0.000881483 -0.000781868 0 0 0 
0.464648 -0.000217992 -0.000806249 0 0 0 
-0.463921 0.00111263 0.000599299 0 0 0 
-0.00752391 0.00133985 4.87582e-05 0 0 0 
0.448873 0.00156708 -0.000501783 0 0 0 
-0.46522 0.000612383 0.000712786 0 0 0 
-0.00524762 -0.000550522 0.000542012 0 0 0 
0.454725 -0.00171343 0.000371237 0 0 0 
-0.459624 0.000430807 0.000669614 0 0 0 
-0.00339663 0.000697147 0.000276152 0 0 0 
0.452831 0.000963486 -0.00011731 0 0 0 
-0.455812 -0.00058494 0.000748904 0 0 0 
0.000528678 -0.00120191 0.000233782 0 0 0 
0.456869 -0.00181888 -0.00028134 0 0 0 
-0.449756 -0.000464721 0.000657803 0 0 0 
0.00805248 -0.000250032 -0.000520908 0 0 0 
0.465861 -3.53421e-05 -0.00169962 0 0 0 
-0.448811 -0.000668233 0.000977103 0 0 0 
0.000636086 -0.000172123 0.00127952 0 0 0 
0.450083 0.000323988 0.00158194 0 0 0 
-0.46101 -0.000817089 -0.00149386 0 0 0 
-0.00138867 0.00049668 -0.000334839 0 0 0 
0.458232 0.00181045 0.000824185 0 0 0 
-0.456925 -8.73e-05 0.000795618 0 0 0 
-0.0046168 -0.000514976 0.000469492 0 0 0 
0.447692 -0.000942652 0.000143366 0 0 0 
-0.456194 -0.000600162 -0.000818179 0 0 0 
0.00357763 0.000553081 0.000113655 0 0 0 
0.463349 0.00170633 0.00104549 0 0 0 
-0.45177 -0.00169078 -0.00109935 0 0 0 
0.00179255 -0.000941228 -0.00139497 0 0 0 
0.455355 -0.000191681 -0.00169058 0 0 0 
-0.4572 0.000402012 -0.00180556 0 0 0 
-0.00224352 0.00020844 -0.000563952 0 0 0 
0.452713 1.48686e-05 0.000677655 0 0 0 
-0.462062 0.00193383 0.000971331 0 0 0 
-0.00526844 0.0017197 -0.000244012 0 0 0 
0.451525 0.00150558 -0.00145936 0 0 0 
-0.456 0.0011665 -0.000315467 0 0 0 
-0.00170606 0.000517551 0.00076777 0 0 0 
0.452588 -0.000131394 0.00185101 0 0 0 
-0.453361 0.00147058 -0.000818625 0 0 0 
-0.00255023 0.00118628 -0.00111109 0 0 0 
0.44826 0.000901985 -0.00140356 0 0 0 
-0.458901 -0.00110466 0.00133934 0 0 0 
0.00262493 -0.000769457 0.000590388 0 0 0 
0.46415 -0.000434253 -0.000158559 0 0 0 
-0.456437 -0.00189962 -0.000649387 0 0 0 
0.00438125 -0.00168475 -0.000727704 0 0 0 
0.4652 -0.00146988 -0.000806022 0 0 0 
-0.462813 -0.0013311 0.000798188 0 0 0 
-0.00472973 -0.00140103 0.000953732 0 0 0 
0.453353 -0.00147095 0.00110928 0 0 0 
-0.455473 0.00158264 0.00116703 0 0 0 
0.00507651 -5.58745e-05 0.000861878 0 0 0 
0.465626 -0.00169439 0.000556723 0 0 0 
-0.453087 1.26178e-05 -7.14578e-05 0 0 0 
0.00237432 -0.000332318 -0.000924101 0 0 0 
0.457836 -0.000677253 -0.00177674 0 0 0 
-0.453134 -0.00187666 0.00146202 0 0 0 
-0.000301108 3.34308e-05 0.00083759 0 0 0 
0.452532 0.00194352 0.000213163 0 0 0 
-0.460493 0.000632892 -0.000450918 0 0 0 
0.00217378 -0.000489225 0.000492869 0 0 0 
0.46484 -0.00161134 0.00143666 0 0 0 
-0.461264 0.00163322 -0.00111665 0 0 0 
0.00221163 -8.27794e-05 -0.000647516 0 0 0 
0.465687 -0.00179878 -0.000178383 0 0 0 
-0.456182 0.000881464 -0.0018103 0 0 0 
-0.0039769 0.000884735 -0.00118889 0 0 0 
0.448229 0.000888006 -0.000567473 0 0 0 
-0.458225 -0.00157969 0.000758952 0 0 0 
0.00325586 -0.00148588 0.000371629 0 0 0 
0.464737 -0.00139208 -1.56946e-05 0 0 0 
-0.450044 -0.000475144 0.000401034 0 0 0 
-0.00142045 -0.000606764 -0.000426274 0 0 0 
0.447203 -0.000738384 -0.00125358 0 0 0 
-0.451695 0.00115121 -0.000359599 0 0 0 
0.0035719 0.000203505 -0.00116977 0 0 0 
0.458838 -0.000744199 -0.00197994 0 0 0 
-0.450905 0.00105416 -0.00091229 0 0 0 
0.00130111 0.000771001 -0.000835209 0 0 0 
0.453507 0.000487839 -0.000758127 0 0 0 
-0.45594 -0.000175858 0.00145467 0 0 0 
-0.0032623 0.000483003 0.000476412 0 0 0 
0.449415 0.00114186 -0.000501845 0 0 0 
-0.45885 0.00088603 0.000643611 0 0 0 
0.0013895 2.1978e-05 -0.000249446 0 0 0 
0.461629 -0.000842074 -0.0011425 0 0 0 
-0.447514 0.0008708 -0.000965478 0 0 0 
0.00581166 -7.99808e-05 0.000129846 0 0 0 
0.459137 -0.00103076 0.00122517 0 0 0 
-0.456721 -0.00142673 0.00127131 0 0 0 
0.000309661 -0.000760901 8.55596e-05 0 0 0 
0.457341 -9.50688e-05 -0.00110019 0 0 0 
-0.464256 -0.0016924 0.00065911 0 0 0 
-0.00628184 -3.81492e-05 -0.000113152 0 0 0 
0.451692 0.0016161 -0.000885414 0 0 0 
-0.466177 -0.00176322 0.000319669 0 0 0 
-0.00814161 -0.000994053 -0.000665042 0 0 0 
0.449894 -0.000224887 -0.00164975 0 0 0 
-0.454651 -1.33524e-05 0.00187944 0 0 0 
-0.00153866 0.000979731 0.000135005 0 0 0 
0.451573 0.00197281 -0.00160943 0 0 0 
-0.458802 -0.000850835 -0.000292925 0 0 0 
-0.00226311 -0.00043399 0.000135443 0 0 0 
0.454276 -1.71459e-05 0.00056381 0 0 0 
-0.448173 -0.00147921 -0.00103713 0 0 0 
-0.000300482 -0.00162621 0.000133269 0 0 0 
0.447572 -0.0017732 0.00130367 0 0 0 
-0.46121 0.00114001 0.00184448 0 0 0 
0.000946566 0.000788334 0.000528299 0 0 0 
0.463103 0.000436653 -0.000787877 0 0 0 
-0.462541 -0.000253993 -0.000582757 0 0 0 
-0.00652088 -0.000949959 -3.19964e-05 0 0 0 
0.449499 -0.00164592 0.000518764 0 0 0 
-0.453749 0.00168029 -0.00176149 0 0 0 
-0.0027476 -8.55443e-06 -0.00140396 0 0 0 
0.448253 -0.0016974 -0.00104643 0 0 0 
-0.462056 0.000285664 -0.00126506 0 0 0 
-0.00614707 -0.00027583 0.000301727 0 0 0 
0.449762 -0.000837325 0.00186852 0 0 0 
-0.461999 -0.00143745 -0.00116171 0 0 0 
0.000681892 -0.000958826 -0.000409558 0 0 0 
0.463363 -0.000480198 0.000342599 0 0 0 
-0.457709 0.000713937 -0.00132839 0 0 0 
0.00228329 -3.18693e-05 7.76487e-05 0 0 0 
0.462276 -0.000777675 0.00148369 0 0 0 
-0.460223 0.000787823 0.00134307 0 0 0 
-0.0034623 0.000523132 0.000282233 0 0 0 
0.453298 0.000258441 -0.000778607 0 0 0 
-0.460857 -0.000595278 0.000582735 0 0 0 
0.00118935 -0.000411712 -0.000358673 0 0 0 
0.463235 -0.000228147 -0.00130008 0 0 0 
-0.457803 0.000505641 0.00153401 0 0 0 
0.00413966 0.00100777 0.00139126 0 0 0 
0.466083 0.0015099 0.00124851 0 0 0 
-0.454533 -0.00100111 -0.00177749 0 0 0 
0.00492862 -0.00130313 -0.000482751 0 0 0 
0.46439 -0.00160516 0.000811991 0 0 0 
-0.453855 0.000845052 0.00198118 0 0 0 
0.00572202 -0.000166172 0.0012756 0 0 0 
0.465299 -0.0011774 0.000570021 0 0 0 
-0.45409 -0.00132984 -0.000775802 0 0 0 
0.0025176 -0.0011299 0.000425418 0 0 0 
0.459125 -0.000929954 0.00162664 0 0 0 
-0.448375 0.00159323 0.0010598 0 0 0 
0.000592068 0.000663494 0.001327 0 0 0 
0.449559 -0.000266245 0.0015942 0 0 0 
-0.453739 0.00020977 6.35944e-05 0 0 0 
0.000931531 0.00100957 0.000137268 0 0 0 
0.455602 0.00180937 0.000210942 0 0 0 
-0.461465 0.000243494 -0.000667686 0 0 0 
-0.00077486 0.000631032 0.000281052 0 0 0 
0.459915 0.00101857 0.00122979 0 0 0 
-0.458671 -0.00133239 0.00140607 0 0 0 
-0.00348124 -0.000898361 0.000543862 0 0 0 
0.451708 -0.000464329 -0.000318345 0 0 0 
-0.465304 0.000261575 0.00084614 0 0 0 
-0.00487001 -0.000675078 -0.000435857 0 0 0 
0.455564 -0.00161173 -0.00171785 0 0 0 
-0.466532 0.00120547 -0.000349115 0 0 0 
-0.00162603 0.000481019 -0.000810214 0 0 0 
0.46328 -0.00024343 -0.00127131 0 0 0 
-0.461548 -0.00086962 0.000218121 0 0 0 
-0.00238451 -0.00122754 0.000283768 0 0 0 
0.456779 -0.00158546 0.000349414 0 0 0 
-0.458213 0.000766779 -0.00105279 0 0 0 
-0.00238207 -0.000164487 -0.000544892 0 0 0 
0.453448 -0.00109575 -3.69933e-05 0 0 0 
-0.452292 1.47221e-05 -0.00171615 0 0 0 
0.00172444 3.05045e-05 -0.00111916 0 0 0 
0.455741 4.6287e-05 -0.000522167 0 0 0 
-0.45267 -0.000852801 -0.00033907 0 0 0 
0.00132437 -0.00110788 -3.52699e-05 0 0 0 
0.455319 -0.00136297 0.00026853 0 0 0 
-0.4524 -0.00164227 -0.000983956 0 0 0 
0.00662607 -0.000977472 0.000194127 0 0 0 
0.465652 -0.000312674 0.00137221 0 0 0 
-0.45036 -0.000786003 -0.0010757 0 0 0 
-0.00076066 -0.0007685 -0.00114381 0 0 0 
0.448839 -0.000750996 -0.00121193 0 0 0 
-0.45075 -0.00144746 0.00113214 0 0 0 
0.00573897 0.000264635 -0.000201893 0 0 0 
0.462228 0.00197673 -0.00153593 0 0 0 
-0.461442 -0.0018575 0.00033071 0 0 0 
-0.0053423 -0.000360528 3.24415e-05 0 0 0 
0.450758 0.00113644 -0.000265827 0 0 0 
-0.453128 -7.19398e-05 -0.000546935 0 0 0 
0.00182368 -0.000242221 -0.000154667 0 0 0 
0.456775 -0.000412502 0.000237601 0 0 0 
-0.460162 0.0013617 0.00111374 0 0 0 
-0.00590734 0.000460859 0.000423544 0 0 0 
0.448348 -0.000439978 -0.000266657 0 0 0 
-0.461321 0.000160221 0.000430304 0 0 0 
-0.000777513 0.000491594 0.000942048 0 0 0 
0.459766 0.000822968 0.00145379 0 0 0 
-0.464022 0.0010252 -0.0019701 0 0 0 
-0.000648022 0.000799742 -0.000407781 0 0 0 
0.462726 0.000574285 0.00115453 0 0 0 
-0.466154 -0.000254587 -0.000661736 0 0 0 
-0.00819339 -0.000164425 2.68304e-05 0 0 0 
0.449767 -7.42632e-05 0.000715396 0 0 0 
-0.463214 -0.00195451 0.00162621 0 0 0 
-4.57913e-05 -4.6738e-05 0.00110058 0 0 0 
0.463122 0.00186103 0.000574958 0 0 0 
-0.46479 0.000599121 -0.00168332 0 0 0 
-0.00536416 0.0010103 7.96941e-05 0 0 0 
0.454062 0.00142147 0.00184271 0 0 0 
-0.464425 -0.000779123 -9.58319e-05 0 0 0 
-0.00343074 -0.00124398 -0.000805539 0 0 0 
0.457563 -0.00170883 -0.00151525 0 0 0 
3 0 1 2
3 3 4 5
3 6 7 8
3 9 10 11
3 12 13 14
3 15 16 17
3 18 19 20
3 21 22 23
3 24 25 26
3 27 28 29
3 30 31 32
3 33 34 35
3 36 37 38
3 39 40 41
3 42 43 44
3 45 46 47
3 48 49 50
3 51 52 53
3 54 55 56
3 57 58 59
3 60 61 62
3 63 64 65
3 66 67 68
3 69 70 71
3 72 73 74
3 75 76 77
3 78 79 80
3 81 82 83
3 84 85 86
3 87 88 89
3 90 91 92
3 93 94 95
3 96 97 98
3 99 100 101
3 102 103 104
3 105 106 107
3 108 109 110
3 111 112 113
3 114 115 116
3 117 118 119
3 120 121 122
3 123 124 125
3 126 127 128
3 129 130 131
3 132 133 134
3 135 136 137
3 138 139 140
3 141 142 143
3 144 145 146
3 147 148 149
3 150 151 152
3 153 154 155
3 156 157 158
3 159 160 161
3 162 163 164
3 165 166 167
3 168 169 170
3 171 172 173
3 174 175 176
3 177 178 179
3 180 181 182
3 183 184 185
3 186 187 188
3 189 190 191
3 192 193 194
3 195 196 197
3 198 199 200
3 201 202 203
3 204 205 206
3 207 208 209
3 210 211 212
3 213 214 215
3 216 217 218
3 219 220 221
3 222 223 224
3 225 226 227
3 228 229 230
3 231 232 233
3 234 235 236
3 237 238 239
3 240 241 242
3 243 244 245
3 246 247 248
3 249 250 251
3 252 253 254
3 255 256 257
3 258 259 260
3 261 262 263
3 264 265 266
3 267 268 269
3 270 271 272
3 273 274 275
3 276 277 278
3 279 280 281
3 282 283 284
3 285 286 287
3 288 289 290
3 291 292 293
3 294 295 296
3 297 298 299
