ply
format ascii 1.0
comment Created by object PlyWriter
element vertex 300
property float x
property float y
property float z
property float nx
property float ny
property float nz
element face 100
property list uchar uint vertex_indices
end_header
-0.466305 -0.0170978 -0.000864283 0 0 0 
-0.00119853 -0.0167884 -0.000301837 0 0 0 
0.463908 -0.016479 0.00026061 0 0 0 
-0.460587 -0.0176107 -6.1639e-05 0 0 0 
-0.00254273 -0.0161414 0.00049504 0 0 0 
0.455502 -0.0146721 0.00105172 0 0 0 
-0.466197 -0.0154018 0.000815722 0 0 0 
-0.00525402 -0.0166207 0.000949607 0 0 0 
0.455689 -0.0178397 0.00108349 0 0 0 
-0.464271 -0.0164873 0.00151324 0 0 0 
-0.0039628 -0.0165618 0.000333681 0 0 0 
0.456346 -0.0166362 -0.000845879 0 0 0 
-0.451734 -0.0163475 -0.00165202 0 0 0 
-0.00124377 -0.0152719 -0.000465174 0 0 0 
0.449246 -0.0141963 0.000721667 0 0 0 
-0.448961 -0.014687 0.00131323 0 0 0 
0.00786382 -0.016222 0.000176657 0 0 0 
0.464689 -0.0177569 -0.00095992 0 0 0 
-0.448745 -0.0174488 -0.000612486 0 0 0 
0.00459123 -0.0165187 -0.00106037 0 0 0 
0.457927 -0.0155887 -0.00150826 0 0 0 
-0.464069 -0.0150232 0.000649272 0 0 0 
-0.00124389 -0.0155802 0.00030793 0 0 0 
0.461582 -0.0161372 -3.34119e-05 0 0 0 
-0.462516 -0.0170061 0.000525091 0 0 0 
9.13888e-05 -0.016109 0.000739136 0 0 0 
0.462698 -0.0152119 0.000953181 0 0 0 
-0.463222 -0.0177744 -0.00179714 0 0 0 
-0.0040573 -0.0175065 -0.00102608 0 0 0 
0.455108 -0.0172385 -0.00025503 0 0 0 
-0.448485 -0.014696 -0.00163556 0 0 0 
0.00299361 -0.0148079 -0.00119444 0 0 0 
0.454473 -0.0149198 -0.000753314 0 0 0 
-0.448612 -0.0166712 -0.00164178 0 0 0 
0.00767283 -0.0162377 -0.000626425 0 0 0 
0.463958 -0.0158042 0.000388926 0 0 0 
-0.44957 -0.0160847 -0.000592877 0 0 0 
0.00507429 -0.0158938 0.000676927 0 0 0 
0.459718 -0.0157028 0.00194673 0 0 0 
-0.447895 -0.0155823 0.000328224 0 0 0 
0.00317432 -0.0156337 0.000408228 0 0 0 
0.454244 -0.0156852 0.000488232 0 0 0 
-0.448934 -0.0160108 -0.00058649 0 0 0 
0.00154606 -0.0156299 -0.00107293 0 0 0 
0.452027 -0.0152491 -0.00155937 0 0 0 
-0.454042 -0.0140954 0.00113223 0 0 0 
0.00591452 -0.0159958 0.000803492 0 0 0 
0.465871 -0.0178961 0.000474751 0 0 0 
-0.453723 -0.0151823 0.0006964 0 0 0 
-0.000943601 -0.015474 0.000316304 0 0 0 
0.451836 -0.0157657 -6.37925e-05 0 0 0 
-0.466687 -0.0178568 0.000522308 0 0 0 
-0.00582537 -0.0171904 0.000867179 0 0 0 
0.455036 -0.016524 0.00121205 0 0 0 
-0.457655 -0.0145133 0.000396138 0 0 0 
0.000185132 -0.014831 0.00114855 0 0 0 
0.458025 -0.0151487 0.00190096 0 0 0 
-0.456872 -0.015105 0.000642258 0 0 0 
-0.00198947 -0.0154916 -0.000574652 0 0 0 
0.452893 -0.0158783 -0.00179156 0 0 0 
-0.45317 -0.0157457 0.000662292 0 0 0 
0.00257164 -0.0161667 0.00114216 0 0 0 
0.458313 -0.0165878 0.00162202 0 0 0 
-0.456 -0.0158725 -0.000118541 0 0 0 
-0.00237277 -0.0168783 0.000714025 0 0 0 
0.451254 -0.0178842 0.00154659 0 0 0 
-0.457767 -0.0151196 0.000759426 0 0 0 
0.00242895 -0.015559 0.000404792 0 0 0 
0.462625 -0.0159985 5.01589e-05 0 0 0 
-0.453115 -0.016257 0.00183407 0 0 0 
0.00187084 -0.0163309 0.00118243 0 0 0 
0.456857 -0.0164049 0.000530786 0 0 0 
-0.456219 -0.0141061 -0.000253916 0 0 0 
0.00112037 -0.0144903 -5.68784e-05 0 0 0 
0.458459 -0.0148744 0.000140159 0 0 0 
-0.447111 -0.0159473 0.000429936 0 0 0 
0.00504705 -0.0166457 -0.000341572 0 0 0 
0.457205 -0.0173441 -0.00111308 0 0 0 
-0.465672 -0.0171488 -0.00164646 0 0 0 
-0.00749104 -0.0159783 0.000125675 0 0 0 
0.45069 -0.0148078 0.00189781 0 0 0 
-0.466887 -0.0152324 0.000247274 0 0 0 
-0.00746098 -0.0148355 -0.000564612 0 0 0 
0.451965 -0.0144386 -0.0013765 0 0 0 
-0.447732 -0.0153562 0.00021724 0 0 0 
0.00641368 -0.0150645 0.00104699 0 0 0 
0.460559 -0.0147728 0.00187674 0 0 0 
-0.457499 -0.016726 -0.00127025 0 0 0 
0.00397304 -0.0168353 -4.75164e-05 0 0 0 
0.465445 -0.0169445 0.00117522 0 0 0 
-0.45507 -0.0142872 0.00152359 0 0 0 
0.00294742 -0.0148451 0.00137803 0 0 0 
0.460965 -0.015403 0.00123247 0 0 0 
-0.449378 -0.0175084 0.000120428 0 0 0 
0.00775145 -0.0174095 -0.000918271 0 0 0 
0.46488 -0.0173107 -0.00195697 0 0 0 
-0.451537 -0.017716 0.00143124 0 0 0 
-0.00116803 -0.0177575 0.00040344 0 0 0 
0.449201 -0.017799 -0.00062436 0 0 0 
-0.455245 -0.0165285 0.0014909 0 0 0 
0.00133023 -0.0163544 0.00159225 0 0 0 
0.457906 -0.0161802 0.00169359 0 0 0 
-0.461449 -0.0160486 -0.00151517 0 0 0 
-0.00108339 -0.0152373 -0.000635065 0 0 0 
0.459282 -0.0144261 0.000245044 0 0 0 
-0.457583 -0.0179614 0.00023981 0 0 0 
0.00299358 -0.0165619 4.09296e-05 0 0 0 
0.46357 -0.0151623 -0.000157951 0 0 0 
-0.461969 -0.0144692 0.00113063 0 0 0 
0.00127867 -0.0143094 0.00117395 0 0 0 
0.464526 -0.0141496 0.00121728 0 0 0 
-0.454136 -0.0171862 0.00088895 0 0 0 
-0.000886142 -0.0172075 0.000331007 0 0 0 
0.452364 -0.0172287 -0.000226937 0 0 0 
-0.45247 -0.0147789 -0.00195103 0 0 0 
-0.00112645 -0.0158877 -0.00179599 0 0 0 
0.450217 -0.0169966 -0.00164095 0 0 0 
-0.44842 -0.0163409 -0.000597983 0 0 0 
0.00219978 -0.0167043 0.00039685 0 0 0 
0.452819 -0.0170677 0.00139168 0 0 0 
-0.44775 -0.015495 -0.0006954 0 0 0 
0.00200337 -0.015317 -0.00012469 0 0 0 
0.451757 -0.015139 0.00044602 0 0 0 
-0.458394 -0.0164452 -0.00190965 0 0 0 
-0.0053547 -0.0152287 -0.000666032 0 0 0 
0.447685 -0.0140121 0.000577589 0 0 0 
-0.45037 -0.0142382 -0.00122546 0 0 0 
0.00210258 -0.0154045 -3.26189e-05 0 0 0 
0.454575 -0.0165707 0.00116022 0 0 0 
-0.447149 -0.0154561 0.00181732 0 0 0 
0.00273809 -0.0150489 0.00125163 0 0 0 
0.452625 -0.0146416 0.000685943 0 0 0 
-0.462674 -0.0153855 -0.00125178 0 0 0 
7.79629e-05 -0.0159607 -0.000194366 0 0 0 
0.46283 -0.016536 0.000863048 0 0 0 
-0.455512 -0.0176116 -0.00119151 0 0 0 
0.00287111 -0.0158866 -0.00134208 0 0 0 
0.461255 -0.0141615 -0.00149264 0 0 0 
-0.44721 -0.0167713 0.000669766 0 0 0 
0.00163959 -0.0166823 0.000499567 0 0 0 
0.450489 -0.0165933 0.000329368 0 0 0 
-0.46609 -0.0166364 -0.00128908 0 0 0 
-0.00878583 -0.0161968 -0.000149064 0 0 0 
0.448518 -0.0157572 0.000990947 0 0 0 
-0.466868 -0.015303 -0.00145284 0 0 0 
-0.00287385 -0.015414 -0.00061257 0 0 0 
0.46112 -0.015525 0.000227697 0 0 0 
-0.450515 -0.0170824 -0.000532023 0 0 0 
0.00610258 -0.0163871 0.000655807 0 0 0 
0.46272 -0.0156917 0.00184364 0 0 0 
-0.447866 -0.0176572 0.0011106 0 0 0 
0.00644191 -0.016477 -0.000345239 0 0 0 
0.460749 -0.0152967 -0.00180108 0 0 0 
-0.459903 -0.0140296 0.00180581 0 0 0 
-0.0021951 -0.0147045 0.00122639 0 0 0 
0.455512 -0.0153794 0.000646973 0 0 0 
-0.459265 -0.0178431 0.00124601 0 0 0 
0.00220597 -0.0165638 0.00109208 0 0 0 
0.463677 -0.0152845 0.000938147 0 0 0 
-0.453498 -0.0158297 -4.77065e-05 0 0 0 
0.000181571 -0.0152221 0.000874693 0 0 0 
0.453862 -0.0146146 0.00179709 0 0 0 
-0.458413 -0.0147085 -0.00173379 0 0 0 
0.00317425 -0.01596 -0.00125836 0 0 0 
0.464762 -0.0172115 -0.000782927 0 0 0 
-0.466968 -0.0174077 -0.00163092 0 0 0 
-0.00286309 -0.0171504 -0.00105427 0 0 0 
0.461241 -0.0168931 -0.000477624 0 0 0 
-0.462047 -0.0160835 -0.000732196 0 0 0 
-0.00451225 -0.0158322 0.000231986 0 0 0 
0.453022 -0.0155809 0.00119617 0 0 0 
-0.450532 -0.0168807 -2.01697e-05 0 0 0 
0.0001176 -0.0154507 -0.00084094 0 0 0 
0.450767 -0.0140208 -0.00166171 0 0 0 
-0.456667 -0.0164251 0.00146508 0 0 0 
-0.00331579 -0.015895 0.000228971 0 0 0 
0.450036 -0.015365 -0.00100714 0 0 0 
-0.460503 -0.0162091 0.00101039 0 0 0 
-0.00560559 -0.0161935 -0.000398621 0 0 0 
0.449291 -0.016178 -0.00180763 0 0 0 
-0.450414 -0.0174883 -0.00182793 0 0 0 
0.00480536 -0.0163561 -0.00136277 0 0 0 
0.460025 -0.0152239 -0.000897611 0 0 0 
-0.456887 -0.015709 0.00105595 0 0 0 
0.000844374 -0.0165936 -0.000176033 0 0 0 
0.458575 -0.0174782 -0.00140802 0 0 0 
-0.462808 -0.0158099 0.000523098 0 0 0 
-0.00635935 -0.0153802 0.000411756 0 0 0 
0.450089 -0.0149504 0.000300414 0 0 0 
-0.448276 -0.0178262 -0.00156582 0 0 0 
0.00290141 -0.0169026 -0.00065165 0 0 0 
0.454079 -0.015979 0.000262523 0 0 0 
-0.457368 -0.0170001 -0.00091068 0 0 0 
0.00178075 -0.0169522 -0.00047444 0 0 0 
0.460929 -0.0169042 -3.82003e-05 0 0 0 
-0.466072 -0.0147233 0.000290117 0 0 0 
0.000395268 -0.0159896 -0.000513287 0 0 0 
0.466862 -0.0172558 -0.00131669 0 0 0 
-0.463103 -0.014501 0.00187323 0 0 0 
-0.00224566 -0.015448 0.00083926 0 0 0 
0.458612 -0.0163949 -0.000194713 0 0 0 
-0.45305 -0.0147788 -0.00170844 0 0 0 
0.00336277 -0.0157337 -0.00146908 0 0 0 
0.459776 -0.0166886 -0.00122973 0 0 0 
-0.461392 -0.0161715 -0.00124079 0 0 0 
-0.00484684 -0.0153732 -0.000122957 0 0 0 
0.451699 -0.014575 0.000994877 0 0 0 
-0.465755 -0.0149554 -0.00188467 0 0 0 
-0.00846298 -0.0153364 -0.00117847 0 0 0 
0.448829 -0.0157173 -0.000472274 0 0 0 
-0.454088 -0.0165216 0.0018099 0 0 0 
0.00115567 -0.0165717 0.00181533 0 0 0 
0.456399 -0.0166219 0.00182076 0 0 0 
-0.453259 -0.0175167 0.000565906 0 0 0 
0.00265379 -0.0170727 0.000284524 0 0 0 
0.458566 -0.0166288 3.14205e-06 0 0 0 
-0.447349 -0.0153826 -0.00178232 0 0 0 
0.00896104 -0.01584 -0.00157453 0 0 0 
0.465271 -0.0162974 -0.00136674 0 0 0 
-0.448236 -0.0171302 0.00105081 0 0 0 
0.00655028 -0.0168625 0.0012508 0 0 0 
0.461337 -0.0165947 0.00145078 0 0 0 
-0.459972 -0.0150661 0.000998612 0 0 0 
0.00276767 -0.015144 -0.000236643 0 0 0 
0.465508 -0.0152219 -0.0014719 0 0 0 
-0.459275 -0.0173267 -0.000188327 0 0 0 
0.00363283 -0.0172449 0.000889181 0 0 0 
0.46654 -0.0171631 0.00196669 0 0 0 
-0.455536 -0.0173926 2.08619e-05 0 0 0 
0.00178894 -0.0171884 -0.000789415 0 0 0 
0.459114 -0.0169842 -0.00159969 0 0 0 
-0.464356 -0.0148788 0.00110663 0 0 0 
-0.00668375 -0.0145975 0.00072133 0 0 0 
0.450989 -0.0143162 0.000336029 0 0 0 
-0.450229 -0.0163606 0.000978549 0 0 0 
-0.00159049 -0.0166704 0.000791874 0 0 0 
0.447048 -0.0169803 0.000605198 0 0 0 
-0.465249 -0.0146387 0.00189777 0 0 0 
-0.00580975 -0.0162402 0.00105627 0 0 0 
0.45363 -0.0178417 0.000214762 0 0 0 
-0.453642 -0.0162657 -0.00183606 0 0 0 
0.00180383 -0.0153306 -1.7976e-05 0 0 0 
0.45725 -0.0143956 0.0018001 0 0 0 
-0.45747 -0.0168451 0.000848828 0 0 0 
0.00347993 -0.0173249 0.000989346 0 0 0 
0.464429 -0.0178046 0.00112986 0 0 0 
-0.465755 -0.0152162 -0.000357798 0 0 0 
-0.00725017 -0.0150937 -0.00113474 0 0 0 
0.451255 -0.0149712 -0.00191168 0 0 0 
-0.461009 -0.0147206 -0.000933902 0 0 0 
0.00212489 -0.0145595 -0.000436647 0 0 0 
0.465259 -0.0143985 6.06088e-05 0 0 0 
-0.447652 -0.017874 -0.000607401 0 0 0 
0.000522718 -0.0165113 -4.52099e-07 0 0 0 
0.448697 -0.0151487 0.000606496 0 0 0 
-0.462846 -0.0154134 -0.00193243 0 0 0 
-0.000720024 -0.0166545 -0.00157155 0 0 0 
0.461406 -0.0178957 -0.00121066 0 0 0 
-0.461759 -0.0140565 0.00195891 0 0 0 
-0.00545564 -0.0148318 0.00195903 0 0 0 
0.450848 -0.0156071 0.00195916 0 0 0 
-0.450755 -0.0170915 -0.00168351 0 0 0 
0.00125344 -0.0165728 -0.000400386 0 0 0 
0.453262 -0.0160541 0.000882735 0 0 0 
-0.463114 -0.0160866 0.00164761 0 0 0 
-0.00593436 -0.0169653 0.00070487 0 0 0 
0.451245 -0.017844 -0.000237865 0 0 0 
-0.457163 -0.0142762 -0.00196062 0 0 0 
-0.00164682 -0.0153246 -0.000750421 0 0 0 
0.453869 -0.0163731 0.000459775 0 0 0 
-0.456703 -0.0150492 0.00167794 0 0 0 
0.00290972 -0.0148277 0.0017497 0 0 0 
0.462522 -0.0146061 0.00182146 0 0 0 
-0.457787 -0.0177236 -0.000443594 0 0 0 
-0.00236039 -0.0171861 -0.000520566 0 0 0 
0.453067 -0.0166486 -0.000597537 0 0 0 
-0.464402 -0.0155268 0.00103795 0 0 0 
-0.00646518 -0.0160698 0.001297 0 0 0 
0.451472 -0.0166129 0.00155605 0 0 0 
-0.448051 -0.0155574 0.000444984 0 0 0 
0.00627951 -0.0156 -5.25228e-05 0 0 0 
0.46061 -0.0156426 -0.00055003 0 0 0 
-0.455089 -0.0159807 0.000496826 0 0 0 
7.2673e-05 -0.0151443 0.00107183 0 0 0 
0.455235 -0.0143079 0.00164684 0 0 0 
-0.452228 -0.0153367 0.00182113 0 0 0 
0.00456142 -0.0159236 0.00138906 0 0 0 
0.461351 -0.0165105 0.000957001 0 0 0 
-0.459332 -0.0158589 0.00093929 0 0 0 
-0.00386482 -0.015871 -0.000375043 0 0 0 
0.451602 -0.0158831 -0.00168938 0 0 0 
-0.466301 -0.0150238 1.24271e-05 0 0 0 
-0.00166601 -0.0157406 0.000261412 0 0 0 
0.462969 -0.0164573 0.000510398 0 0 0 
-0.448281 -0.015462 0.000637673 0 0 0 
0.00450669 -0.0165921 0.000643815 0 0 0 
0.457294 -0.0177221 0.000649957 0 0 0 
-0.459172 -0.0161321 -0.000402655 0 0 0 
-0.0036864 -0.0161337 -0.000388642 0 0 0 
0.451799 -0.0161352 -0.000374629 0 0 0 
3 0 1 2
3 3 4 5
3 6 7 8
3 9 10 11
3 12 13 14
3 15 16 17
3 18 19 20
3 21 22 23
3 24 25 26
3 27 28 29
3 30 31 32
3 33 34 35
3 36 37 38
3 39 40 41
3 42 43 44
3 45 46 47
3 48 49 50
3 51 52 53
3 54 55 56
3 57 58 59
3 60 61 62
3 63 64 65
3 66 67 68
3 69 70 71
3 72 73 74
3 75 76 77
3 78 79 80
3 81 82 83
3 84 85 86
3 87 88 89
3 90 91 92
3 93 94 95
3 96 97 98
3 99 100 101
3 102 103 104
3 105 106 107
3 108 109 110
3 111 112 113
3 114 115 116
3 117 118 119
3 120 121 122
3 123 124 125
3 126 127 128
3 129 130 131
3 132 133 134
3 135 136 137
3 138 139 140
3 141 142 143
3 144 145 146
3 147 148 149
3 150 151 152
3 153 154 155
3 156 157 158
3 159 160 161
3 162 163 164
3 165 166 167
3 168 169 170
3 171 172 173
3 174 175 176
3 177 178 179
3 180 181 182
3 183 184 185
3 186 187 188
3 189 190 191
3 192 193 194
3 195 196 197
3 198 199 200
3 201 202 203
3 204 205 206
3 207 208 209
3 210 211 212
3 213 214 215
3 216 217 218
3 219 220 221
3 222 223 224
3 225 226 227
3 228 229 230
3 231 232 233
3 234 235 236
3 237 238 239
3 240 241 242
3 243 244 245
3 246 247 248
3 249 250 251
3 252 253 254
3 255 256 257
3 258 259 260
3 261 262 263
3 264 265 266
3 267 268 269
3 270 271 272
3 273 274 275
3 276 277 278
3 279 280 281
3 282 283 284
3 285 286 287
3 288 289 290
3 291 292 293
3 294 295 296
3 297 298 299
