ply
format ascii 1.0
comment Created by object PlyWriter
element vertex 300
property float x
property float y
property float z
property float nx
property float ny
property float nz
element face 100
property list uchar uint vertex_indices
end_header
-0.460022 -0.0239819 -0.000167332 0 0 0 
-0.00441204 -0.000230287 -0.000631971 0 0 0 
0.451198 0.0235214 -0.00109661 0 0 0 
-0.452619 -0.02519 0.00172665 0 0 0 
-0.000610918 -0.00152335 0.00149005 0 0 0 
0.451397 0.0221433 0.00125344 0 0 0 
-0.454128 -0.0220572 0.00112589 0 0 0 
0.00195593 5.103e-05 0.000496451 0 0 0 
0.45804 0.0221593 -0.000132987 0 0 0 
-0.447207 -0.0243348 -0.00172351 0 0 0 
0.00653282 8.3819e-06 -0.00112125 0 0 0 
0.460272 0.0243516 -0.000518987 0 0 0 
-0.456176 -0.0239103 -0.0011477 0 0 0 
0.00256915 9.2878e-05 -2.53603e-05 0 0 0 
0.461314 0.0240961 0.00109698 0 0 0 
-0.458041 -0.0224087 -0.000741954 0 0 0 
0.00204386 0.00122157 -0.000882441 0 0 0 
0.462129 0.0248519 -0.00102293 0 0 0 
-0.458435 -0.023912 -0.0013833 0 0 0 
-0.00213397 2.39061e-05 -0.00150699 0 0 0 
0.454167 0.0239598 -0.00163069 0 0 0 
-0.46663 -0.0241462 0.0019962 0 0 0 
-0.00560014 6.77286e-05 0.000805588 0 0 0 
0.455429 0.0242816 -0.000385027 0 0 0 
-0.460054 -0.0220105 -0.000970033 0 0 0 
0.00275594 0.000422996 1.45052e-05 0 0 0 
0.465566 0.0228565 0.000999043 0 0 0 
-0.465286 -0.025989 0.00117647 0 0 0 
-0.00898436 -0.00154448 0.000880804 0 0 0 
0.447317 0.0229 0.000585133 0 0 0 
-0.453804 -0.022314 -0.000901572 0 0 0 
0.000210911 0.000157547 0.000182617 0 0 0 
0.454226 0.0226291 0.00126681 0 0 0 
-0.460912 -0.0224522 -0.000473009 0 0 0 
-0.00435485 0.000991943 -0.00105586 0 0 0 
0.452202 0.0244361 -0.0016387 0 0 0 
-0.447309 -0.0220087 -0.00118501 0 0 0 
0.0097021 0.00115244 -0.00117828 0 0 0 
0.466713 0.0243135 -0.00117155 0 0 0 
-0.461131 -0.0238038 0.000700827 0 0 0 
-0.000852257 0.00108534 -0.000556804 0 0 0 
0.459426 0.0259745 -0.00181443 0 0 0 
-0.466975 -0.0255123 0.000227268 0 0 0 
-0.00972833 -0.00140817 -0.000647495 0 0 0 
0.447518 0.0226959 -0.00152226 0 0 0 
-0.453934 -0.0257972 0.000710082 0 0 0 
0.000838488 -0.00029859 0.000420661 0 0 0 
0.455611 0.0252 0.000131239 0 0 0 
-0.457725 -0.0224497 -0.000395639 0 0 0 
-0.000734597 5.46677e-05 -0.000974279 0 0 0 
0.456255 0.0225591 -0.00155292 0 0 0 
-0.451447 -0.0258694 0.00158488 0 0 0 
0.00146858 -0.0018927 0.00108352 0 0 0 
0.454385 0.022084 0.000582159 0 0 0 
-0.462619 -0.0244956 -0.000848501 0 0 0 
-0.00178175 -0.000225956 -0.000517391 0 0 0 
0.459056 0.0240436 -0.00018628 0 0 0 
-0.447927 -0.0257078 0.00120081 0 0 0 
0.00817356 -0.00139268 2.60458e-05 0 0 0 
0.464274 0.0229225 -0.00114871 0 0 0 
-0.450168 -0.0246899 0.000640208 0 0 0 
0.00716914 -0.000644244 0.000997501 0 0 0 
0.464507 0.0234015 0.00135479 0 0 0 
-0.462353 -0.0254294 0.000313947 0 0 0 
-0.00197428 -0.000738807 0.000927662 0 0 0 
0.458405 0.0239518 0.00154138 0 0 0 
-0.451491 -0.0236153 0.00135734 0 0 0 
-0.00117871 -0.000419888 0.000814349 0 0 0 
0.449134 0.0227755 0.000271361 0 0 0 
-0.464004 -0.0231309 -0.00195686 0 0 0 
-0.00226925 0.000236684 -0.000613991 0 0 0 
0.459465 0.0236042 0.000728878 0 0 0 
-0.453661 -0.0221996 -0.000933944 0 0 0 
-0.00186294 0.001059 -0.000511334 0 0 0 
0.449935 0.0243176 -8.87231e-05 0 0 0 
-0.457277 -0.0227823 -0.000584788 0 0 0 
0.00242864 0.000243817 0.000162297 0 0 0 
0.462135 0.0232699 0.000909383 0 0 0 
-0.459842 -0.0233226 -0.00153523 0 0 0 
0.00117424 0.000551078 -0.00120404 0 0 0 
0.462191 0.0244247 -0.000872858 0 0 0 
-0.466448 -0.0257509 -0.000589235 0 0 0 
-0.00317372 -0.00144603 -0.000168858 0 0 0 
0.4601 0.0228588 0.000251519 0 0 0 
-0.457424 -0.0234199 0.00016477 0 0 0 
-0.00170155 -0.000492701 -0.000545081 0 0 0 
0.454021 0.0224345 -0.00125493 0 0 0 
-0.459562 -0.0220478 0.00194658 0 0 0 
-0.00259525 0.00138828 3.26816e-05 0 0 0 
0.454372 0.0248243 -0.00188122 0 0 0 
-0.45121 -0.0246726 -0.00118941 0 0 0 
0.00778244 -0.00102343 0.000386666 0 0 0 
0.466775 0.0226257 0.00196274 0 0 0 
-0.456358 -0.0246538 -0.000358154 0 0 0 
0.000623181 -0.000113991 -0.00116036 0 0 0 
0.457604 0.0244258 -0.00196257 0 0 0 
-0.466746 -0.0220528 -0.000149454 0 0 0 
-0.00393909 0.000227475 -6.3014e-05 0 0 0 
0.458868 0.0225078 2.34265e-05 0 0 0 
-0.452943 -0.0230671 -0.00013819 0 0 0 
0.00441545 0.000201898 -0.000760885 0 0 0 
0.461773 0.0234709 -0.00138358 0 0 0 
-0.461726 -0.0246395 0.00183068 0 0 0 
-0.00310242 0.000623722 0.00107025 0 0 0 
0.455521 0.025887 0.000309825 0 0 0 
-0.466999 -0.0220995 -0.0017827 0 0 0 
-0.00602096 0.000910993 -0.000201925 0 0 0 
0.454957 0.0239214 0.00137885 0 0 0 
-0.466309 -0.0252446 -0.000428954 0 0 0 
-0.00821003 -0.000224981 -0.000988468 0 0 0 
0.449889 0.0247946 -0.00154798 0 0 0 
-0.463912 -0.0256985 -0.00148005 0 0 0 
0.000441343 -0.000429012 -0.00117909 0 0 0 
0.464795 0.0248404 -0.00087813 0 0 0 
-0.451551 -0.0255927 -0.00165383 0 0 0 
0.0023631 -8.60607e-05 -0.00175236 0 0 0 
0.456277 0.0254206 -0.00185089 0 0 0 
-0.461729 -0.0253482 0.00119867 0 0 0 
0.00151406 -0.00145216 -0.00026395 0 0 0 
0.464757 0.0224439 -0.00172657 0 0 0 
-0.463263 -0.0254792 0.000575593 0 0 0 
-0.00367406 -8.95187e-05 -0.00032225 0 0 0 
0.455915 0.0253002 -0.00122009 0 0 0 
-0.461012 -0.0249334 -0.000494601 0 0 0 
-0.0023607 -0.000518845 0.000284483 0 0 0 
0.45629 0.0238957 0.00106357 0 0 0 
-0.46165 -0.0226197 0.000270241 0 0 0 
-0.00728367 -0.000192087 -0.000604285 0 0 0 
0.447082 0.0222355 -0.00147881 0 0 0 
-0.457347 -0.0246892 -0.000131616 0 0 0 
0.00300044 -0.000888243 0.000829748 0 0 0 
0.463348 0.0229127 0.00179111 0 0 0 
-0.466778 -0.0224787 -0.000786297 0 0 0 
-0.00400917 0.00174714 -9.42516e-06 0 0 0 
0.45876 0.025973 0.000767447 0 0 0 
-0.458099 -0.02283 -0.000451081 0 0 0 
-0.00239678 0.00115299 -0.00116806 0 0 0 
0.453305 0.0251359 -0.00188504 0 0 0 
-0.461206 -0.0249172 -0.00115811 0 0 0 
-0.00606132 0.000389528 -0.00083904 0 0 0 
0.449084 0.0256962 -0.000519971 0 0 0 
-0.457965 -0.024028 -0.000489167 0 0 0 
0.00262164 0.00019918 -0.000858005 0 0 0 
0.463208 0.0244264 -0.00122684 0 0 0 
-0.448436 -0.0229506 0.00128269 0 0 0 
0.00214675 0.000654235 0.00121327 0 0 0 
0.452729 0.024259 0.00114386 0 0 0 
-0.448092 -0.0242498 0.00107494 0 0 0 
0.000401542 0.000421459 -6.38678e-05 0 0 0 
0.448895 0.0250927 -0.00120268 0 0 0 
-0.457837 -0.0238584 -0.000934956 0 0 0 
0.0030323 0.000873704 -0.00125601 0 0 0 
0.463901 0.0256058 -0.00157707 0 0 0 
-0.455785 -0.0228141 -0.00196891 0 0 0 
-0.00284995 0.00141869 -0.000380969 0 0 0 
0.450085 0.0256515 0.00120697 0 0 0 
-0.449514 -0.0242493 0.00101063 0 0 0 
0.00131999 -0.000170179 0.00113412 0 0 0 
0.452154 0.0239089 0.00125761 0 0 0 
-0.462253 -0.0248152 0.000903383 0 0 0 
-0.00483355 -0.00126531 0.00112125 0 0 0 
0.452586 0.0222846 0.00133912 0 0 0 
-0.455436 -0.022137 -0.000186549 0 0 0 
-0.00365725 0.00178137 3.87628e-05 0 0 0 
0.448121 0.0256998 0.000264074 0 0 0 
-0.462914 -0.0236869 -0.00109042 0 0 0 
-0.00636427 0.0010249 -0.000407646 0 0 0 
0.450186 0.0257367 0.000275124 0 0 0 
-0.452495 -0.0238044 -0.000379814 0 0 0 
0.00300394 0.000365377 -0.00046258 0 0 0 
0.458503 0.0245351 -0.000545346 0 0 0 
-0.448757 -0.0252884 0.00042279 0 0 0 
0.00576404 -0.00147445 -0.000628386 0 0 0 
0.460285 0.0223395 -0.00167956 0 0 0 
-0.465436 -0.0255212 0.00101672 0 0 0 
-0.00513326 -0.000871556 -0.000429922 0 0 0 
0.455169 0.0237781 -0.00187657 0 0 0 
-0.456819 -0.0241488 0.000339099 0 0 0 
0.00473875 -0.000580296 0.000524595 0 0 0 
0.466297 0.0229882 0.000710092 0 0 0 
-0.452331 -0.0253598 -0.00164367 0 0 0 
-0.00100137 -0.00164668 -0.00150433 0 0 0 
0.450329 0.0220664 -0.00136499 0 0 0 
-0.456678 -0.0235579 0.00078578 0 0 0 
0.0036329 0.000601978 4.72754e-05 0 0 0 
0.463944 0.0247619 -0.000691229 0 0 0 
-0.453616 -0.0249369 0.000565484 0 0 0 
-0.00210857 -0.000980796 0.00069509 0 0 0 
0.449399 0.0229753 0.000824696 0 0 0 
-0.448773 -0.0224251 0.000685273 0 0 0 
0.00444542 0.00140102 -0.000434599 0 0 0 
0.457663 0.0252271 -0.00155447 0 0 0 
-0.459008 -0.0248191 -9.87314e-05 0 0 0 
0.000423267 0.000535145 0.000753672 0 0 0 
0.459854 0.0258894 0.00160608 0 0 0 
-0.463655 -0.0236862 0.000700854 0 0 0 
0.00153966 0.000788799 -9.96019e-05 0 0 0 
0.466735 0.0252638 -0.000900058 0 0 0 
-0.465449 -0.0231958 0.0018114 0 0 0 
-0.00117207 0.000602915 0.000512126 0 0 0 
0.463105 0.0244017 -0.000787143 0 0 0 
-0.462508 -0.024365 0.000419789 0 0 0 
0.000975907 0.000169159 -3.02034e-05 0 0 0 
0.46446 0.0247033 -0.000480196 0 0 0 
-0.464951 -0.0243867 0.00131589 0 0 0 
-0.00367497 7.6171e-05 0.000574921 0 0 0 
0.457602 0.024539 -0.000166044 0 0 0 
-0.453277 -0.0245934 -0.00136343 0 0 0 
0.00213116 -0.000512957 0.000211185 0 0 0 
0.45754 0.0235674 0.0017858 0 0 0 
-0.458692 -0.0236851 -0.000938843 0 0 0 
-0.00370608 0.0010026 -0.00107353 0 0 0 
0.45128 0.0256903 -0.00120822 0 0 0 
-0.466224 -0.0223185 0.0012876 0 0 0 
-0.00795706 0.00160545 -9.96396e-05 0 0 0 
0.45031 0.0255294 -0.00148688 0 0 0 
-0.466783 -0.0231499 -0.00161799 0 0 0 
-0.00636236 9.06987e-05 -0.00121021 0 0 0 
0.454058 0.0233313 -0.000802427 0 0 0 
-0.459781 -0.0247511 -8.90951e-05 0 0 0 
0.00196229 -0.000113036 0.00084122 0 0 0 
0.463705 0.024525 0.00177154 0 0 0 
-0.461046 -0.0230411 0.000698184 0 0 0 
-0.00271395 -0.000159376 0.000504488 0 0 0 
0.455618 0.0227224 0.000310791 0 0 0 
-0.450976 -0.0226159 0.00190914 0 0 0 
0.00448516 0.000103609 0.00151432 0 0 0 
0.459947 0.0228231 0.00111949 0 0 0 
-0.464983 -0.0254749 0.00109288 0 0 0 
-0.00707187 -0.000858349 0.00018465 0 0 0 
0.45084 0.0237582 -0.000723582 0 0 0 
-0.458707 -0.0229969 0.000306748 0 0 0 
0.00297983 0.000384773 0.000179789 0 0 0 
0.464667 0.0237665 5.2829e-05 0 0 0 
-0.448893 -0.0253469 0.00176226 0 0 0 
0.0064757 -0.00164071 0.00124218 0 0 0 
0.461844 0.0220655 0.000722097 0 0 0 
-0.448331 -0.024288 -0.000459069 0 0 0 
0.00152481 0.000334369 -0.000917165 0 0 0 
0.451381 0.0249567 -0.00137526 0 0 0 
-0.454109 -0.0223597 3.54417e-05 0 0 0 
0.00625268 0.000436696 0.000869188 0 0 0 
0.466614 0.0232331 0.00170293 0 0 0 
-0.461057 -0.0258934 0.00171174 0 0 0 
2.8953e-05 -0.000282686 0.0017074 0 0 0 
0.461115 0.025328 0.00170307 0 0 0 
-0.460463 -0.0242924 0.00188146 0 0 0 
-0.000250474 0.000513047 0.000994625 0 0 0 
0.459962 0.0253184 0.000107792 0 0 0 
-0.453031 -0.0259108 0.00115559 0 0 0 
0.00269967 -0.00166393 -0.000148495 0 0 0 
0.458431 0.0225829 -0.00145258 0 0 0 
-0.456026 -0.024748 -0.000269517 0 0 0 
0.00525653 -0.00120746 -0.000749266 0 0 0 
0.466539 0.022333 -0.00122902 0 0 0 
-0.461635 -0.0227788 -0.00185891 0 0 0 
0.00197588 -0.000374263 -0.00127725 0 0 0 
0.465586 0.0220303 -0.000695587 0 0 0 
-0.465144 -0.024763 0.000517544 0 0 0 
-4.59254e-05 -0.000480942 -0.000102826 0 0 0 
0.465052 0.0238011 -0.000723197 0 0 0 
-0.465309 -0.0256213 0.000411681 0 0 0 
-0.00241692 -0.00151847 0.00114793 0 0 0 
0.460475 0.0225844 0.00188418 0 0 0 
-0.449851 -0.0258233 0.000767271 0 0 0 
0.00406432 -0.00152834 0.000909923 0 0 0 
0.45798 0.0227666 0.00105257 0 0 0 
-0.462189 -0.023686 -0.00115069 0 0 0 
-0.00518644 0.00070963 -0.000281403 0 0 0 
0.451816 0.0251053 0.000587882 0 0 0 
-0.463677 -0.022224 0.00145937 0 0 0 
-0.0061312 0.00181171 -8.0347e-05 0 0 0 
0.451415 0.0258475 -0.00162006 0 0 0 
-0.457657 -0.0221551 -0.000883916 0 0 0 
-0.000933945 0.00172514 -0.00137647 0 0 0 
0.455789 0.0256054 -0.00186903 0 0 0 
-0.459122 -0.0253897 0.000205497 0 0 0 
-0.0045837 -0.000445255 -0.000880453 0 0 0 
0.449954 0.0244992 -0.0019664 0 0 0 
-0.463006 -0.0243714 -0.000652814 0 0 0 
-0.00718753 9.4356e-05 -0.0012863 0 0 0 
0.448631 0.0245601 -0.00191978 0 0 0 
-0.450466 -0.0225252 -0.000142719 0 0 0 
0.00726548 0.00130372 0.000214615 0 0 0 
0.464997 0.0251326 0.00057195 0 0 0 
-0.451354 -0.0245118 -0.00086326 0 0 0 
0.00739123 9.06428e-05 -0.000257448 0 0 0 
0.466137 0.0246931 0.000348363 0 0 0 
-0.453278 -0.022247 -0.00131828 0 0 0 
6.67274e-05 0.00145013 -7.29326e-05 0 0 0 
0.453411 0.0251473 0.00117241 0 0 0 
-0.452765 -0.0245289 -0.0016328 0 0 0 
0.00313832 0.000433908 -0.00157465 0 0 0 
0.459041 0.0253967 -0.00151649 0 0 0 
-0.457307 -0.0227705 0.00101231 0 0 0 
-0.00482853 0.00139074 -0.000102597 0 0 0 
0.44765 0.0255519 -0.0012175 0 0 0 
-0.466709 -0.0249289 -0.00179015 0 0 0 
-0.00437352 3.90103e-05 -0.000933079 0 0 0 
0.457962 0.0250069 -7.60054e-05 0 0 0 
3 0 1 2
3 3 4 5
3 6 7 8
3 9 10 11
3 12 13 14
3 15 16 17
3 18 19 20
3 21 22 23
3 24 25 26
3 27 28 29
3 30 31 32
3 33 34 35
3 36 37 38
3 39 40 41
3 42 43 44
3 45 46 47
3 48 49 50
3 51 52 53
3 54 55 56
3 57 58 59
3 60 61 62
3 63 64 65
3 66 67 68
3 69 70 71
3 72 73 74
3 75 76 77
3 78 79 80
3 81 82 83
3 84 85 86
3 87 88 89
3 90 91 92
3 93 94 95
3 96 97 98
3 99 100 101
3 102 103 104
3 105 106 107
3 108 109 110
3 111 112 113
3 114 115 116
3 117 118 119
3 120 121 122
3 123 124 125
3 126 127 128
3 129 130 131
3 132 133 134
3 135 136 137
3 138 139 140
3 141 142 143
3 144 145 146
3 147 148 149
3 150 151 152
3 153 154 155
3 156 157 158
3 159 160 161
3 162 163 164
3 165 166 167
3 168 169 170
3 171 172 173
3 174 175 176
3 177 178 179
3 180 181 182
3 183 184 185
3 186 187 188
3 189 190 191
3 192 193 194
3 195 196 197
3 198 199 200
3 201 202 203
3 204 205 206
3 207 208 209
3 210 211 212
3 213 214 215
3 216 217 218
3 219 220 221
3 222 223 224
3 225 226 227
3 228 229 230
3 231 232 233
3 234 235 236
3 237 238 239
3 240 241 242
3 243 244 245
3 246 247 248
3 249 250 251
3 252 253 254
3 255 256 257
3 258 259 260
3 261 262 263
3 264 265 266
3 267 268 269
3 270 271 272
3 273 274 275
3 276 277 278
3 279 280 281
3 282 283 284
3 285 286 287
3 288 289 290
3 291 292 293
3 294 295 296
3 297 298 299
