ply
format ascii 1.0
comment Created by object PlyWriter
element vertex 300
property float x
property float y
property float z
property float nx
property float ny
property float nz
element face 100
property list uchar uint vertex_indices
end_header
-0.173527 0.000796688 0.424844 0 0 0 
-0.00106325 -6.69555e-05 0.00125197 0 0 0 
0.171401 -0.000930598 -0.42234 0 0 0 
-0.170866 0.0016731 0.418168 0 0 0 
0.00154047 0.000400186 -0.0035944 0 0 0 
0.173947 -0.000872732 -0.425357 0 0 0 
-0.173626 0.00034211 0.430541 0 0 0 
-0.00147982 0.000315531 0.00320156 0 0 0 
0.170667 0.000288952 -0.424138 0 0 0 
-0.169062 -0.000556208 0.417391 0 0 0 
-0.000449523 -0.000852539 -0.00165242 0 0 0 
0.168163 -0.00114887 -0.420696 0 0 0 
-0.173667 -0.000469452 0.430825 0 0 0 
-0.00113617 0.000353883 0.0031864 0 0 0 
0.171395 0.00117722 -0.424452 0 0 0 
-0.172318 -0.000487341 0.428616 0 0 0 
0.000771806 -0.000328665 0.000588149 0 0 0 
0.173862 -0.000169989 -0.427439 0 0 0 
-0.170274 0.00081628 0.423242 0 0 0 
0.000131346 0.000786623 6.19143e-05 0 0 0 
0.170537 0.000756965 -0.423119 0 0 0 
-0.16823 -0.00183346 0.419463 0 0 0 
0.00201777 -0.00162322 -0.00467677 0 0 0 
0.172266 -0.00141298 -0.428817 0 0 0 
-0.166549 0.000767621 0.414931 0 0 0 
0.00241353 0.000402647 -0.00407711 0 0 0 
0.171376 3.76741e-05 -0.423085 0 0 0 
-0.17543 0.00143896 0.43036 0 0 0 
-0.00308902 0.00170696 0.00708434 0 0 0 
0.169252 0.00197496 -0.416191 0 0 0 
-0.171216 0.000565194 0.427959 0 0 0 
8.67993e-06 0.000110587 0.00314383 0 0 0 
0.171233 -0.000344021 -0.421671 0 0 0 
-0.176311 0.00164878 0.43244 0 0 0 
-0.00151484 0.00115789 0.000400782 0 0 0 
0.173281 0.000667001 -0.431638 0 0 0 
-0.172765 0.00131991 0.428425 0 0 0 
0.000133298 0.00164809 0.000961915 0 0 0 
0.173031 0.00197626 -0.426501 0 0 0 
-0.169812 0.00125413 0.414986 0 0 0 
0.00229172 -0.000264223 -0.0065759 0 0 0 
0.174395 -0.00178257 -0.428138 0 0 0 
-0.169551 0.00162343 0.420897 0 0 0 
-0.000357315 9.08421e-05 0.0024135 0 0 0 
0.168837 -0.00144174 -0.41607 0 0 0 
-0.171237 -0.000379347 0.421375 0 0 0 
0.000428028 -0.000999602 -0.000560105 0 0 0 
0.172094 -0.00161986 -0.422495 0 0 0 
-0.168782 -0.00191702 0.418165 0 0 0 
0.000618339 -0.0016275 -0.00315395 0 0 0 
0.170019 -0.00133797 -0.424473 0 0 0 
-0.169381 0.00109093 0.4236 0 0 0 
0.000108868 0.000531398 0.00159855 0 0 0 
0.169599 -2.8132e-05 -0.420403 0 0 0 
-0.17502 -0.000510382 0.431521 0 0 0 
-0.00400121 -0.000440843 0.00823015 0 0 0 
0.167018 -0.000371305 -0.415061 0 0 0 
-0.171992 0.00187951 0.425084 0 0 0 
-0.000276402 0.000313678 0.00214432 0 0 0 
0.171439 -0.00125215 -0.420795 0 0 0 
-0.166397 0.000322745 0.415364 0 0 0 
0.004793 -5.12262e-05 -0.00783259 0 0 0 
0.175983 -0.000425198 -0.431029 0 0 0 
-0.170798 -0.000722772 0.418476 0 0 0 
0.00187717 -0.000320057 -0.00678106 0 0 0 
0.174553 8.26591e-05 -0.432039 0 0 0 
-0.16999 -0.00134078 0.423857 0 0 0 
0.00133657 -0.00167033 -0.00295106 0 0 0 
0.172663 -0.00199988 -0.429759 0 0 0 
-0.168039 -0.00154602 0.414423 0 0 0 
0.000991523 9.31991e-05 -0.00305232 0 0 0 
0.170022 0.00173241 -0.420528 0 0 0 
-0.169919 -0.00150332 0.422653 0 0 0 
0.00278918 -0.00101122 -0.00500396 0 0 0 
0.175498 -0.000519134 -0.432661 0 0 0 
-0.173168 0.0015946 0.424225 0 0 0 
-0.00168698 0.00025594 0.00370218 0 0 0 
0.169794 -0.00108272 -0.416821 0 0 0 
-0.171626 -0.000721659 0.427524 0 0 0 
-0.00111833 0.000552315 0.00465278 0 0 0 
0.169389 0.00182629 -0.418219 0 0 0 
-0.170147 0.00132474 0.422822 0 0 0 
-0.000542216 0.00125372 0.00366043 0 0 0 
0.169062 0.0011827 -0.415501 0 0 0 
-0.167969 0.000713179 0.415373 0 0 0 
0.00216762 0.000376518 -0.00757971 0 0 0 
0.172304 3.98576e-05 -0.430533 0 0 0 
-0.175462 -0.00111291 0.430729 0 0 0 
-0.00235207 0.000394518 0.00143789 0 0 0 
0.170758 0.00190194 -0.427853 0 0 0 
-0.167141 0.000320886 0.415739 0 0 0 
0.00294971 -0.000599958 -0.0053326 0 0 0 
0.173041 -0.0015208 -0.426404 0 0 0 
-0.166765 -0.000561666 0.415808 0 0 0 
0.00351263 -0.00101674 -0.00834116 0 0 0 
0.17379 -0.00147182 -0.432491 0 0 0 
-0.171359 -0.00193372 0.41902 0 0 0 
-0.00239007 -0.00166917 0.000973597 0 0 0 
0.166579 -0.00140462 -0.417073 0 0 0 
-0.174621 -0.00082668 0.433055 0 0 0 
-0.000610188 -0.000462829 0.00409371 0 0 0 
0.1734 -9.89775e-05 -0.424868 0 0 0 
-0.173535 -0.00110493 0.425565 0 0 0 
-0.000134781 -0.0012988 -0.00186692 0 0 0 
0.173265 -0.00149267 -0.429299 0 0 0 
-0.172633 0.0019174 0.427012 0 0 0 
0.00060682 0.000372895 -0.00150515 0 0 0 
0.173847 -0.00117161 -0.430022 0 0 0 
-0.17491 -3.4017e-05 0.432963 0 0 0 
-0.00189144 0.000940157 0.00268748 0 0 0 
0.171127 0.00191433 -0.427588 0 0 0 
-0.173849 -0.000688783 0.432085 0 0 0 
-0.000164494 -0.000652632 -0.000153482 0 0 0 
0.17352 -0.00061648 -0.432392 0 0 0 
-0.168677 0.00183382 0.419677 0 0 0 
2.00495e-05 0.000164501 0.00111155 0 0 0 
0.168717 -0.00150482 -0.417454 0 0 0 
-0.174584 0.000497181 0.432133 0 0 0 
-0.00262824 0.000421554 0.00477277 0 0 0 
0.169328 0.000345927 -0.422588 0 0 0 
-0.175319 0.000166103 0.429683 0 0 0 
-0.000306219 0.000539951 0.000632823 0 0 0 
0.174707 0.000913798 -0.428418 0 0 0 
-0.17374 0.000160692 0.429519 0 0 0 
0.00104633 -0.000403761 -0.00052011 0 0 0 
0.175833 -0.000968214 -0.430559 0 0 0 
-0.167122 0.000224303 0.418657 0 0 0 
1.4931e-05 0.00042336 0.00135443 0 0 0 
0.167152 0.000622417 -0.415948 0 0 0 
-0.173902 0.00171168 0.426857 0 0 0 
-0.000278123 0.00179298 -0.00283289 0 0 0 
0.173346 0.00187427 -0.432522 0 0 0 
-0.171246 0.000158222 0.427197 0 0 0 
-0.00023935 -0.000121905 0.00200649 0 0 0 
0.170767 -0.000402031 -0.423184 0 0 0 
-0.174529 -0.00126505 0.427313 0 0 0 
-0.00243498 -0.000604306 0.00352791 0 0 0 
0.169659 5.64368e-05 -0.420257 0 0 0 
-0.171383 0.00016075 0.421291 0 0 0 
0.00137553 0.000105834 -0.00283732 0 0 0 
0.174134 5.09187e-05 -0.426965 0 0 0 
-0.170371 0.000676857 0.419072 0 0 0 
0.00152344 0.000369377 -0.00415739 0 0 0 
0.173418 6.18976e-05 -0.427386 0 0 0 
-0.168848 -0.00186301 0.418446 0 0 0 
0.00105333 2.77013e-05 0.000218615 0 0 0 
0.170954 0.00191841 -0.418009 0 0 0 
-0.175269 0.0016357 0.42994 0 0 0 
-0.00172714 0.00119603 0.00168896 0 0 0 
0.171815 0.000756366 -0.426562 0 0 0 
-0.171102 -0.00110152 0.424896 0 0 0 
0.000492923 -0.000311005 0.00138669 0 0 0 
0.172088 0.000479508 -0.422123 0 0 0 
-0.175503 0.00173807 0.432681 0 0 0 
-0.00270408 0.000909462 0.00428671 0 0 0 
0.170095 8.0856e-05 -0.424107 0 0 0 
-0.175401 0.000933727 0.431702 0 0 0 
-0.0029209 0.00113742 0.00442679 0 0 0 
0.169559 0.00134112 -0.422848 0 0 0 
-0.171322 0.000225886 0.429344 0 0 0 
0.00195364 -0.000249312 -0.000251666 0 0 0 
0.17523 -0.000724511 -0.429847 0 0 0 
-0.173508 0.000483435 0.428668 0 0 0 
-0.00235427 -0.000103187 0.00660019 0 0 0 
0.168799 -0.000689809 -0.415467 0 0 0 
-0.169132 -0.000789364 0.414463 0 0 0 
-0.000449903 -0.000783015 -0.000198036 0 0 0 
0.168233 -0.000776666 -0.414859 0 0 0 
-0.175923 -0.0015453 0.431672 0 0 0 
-0.000929788 -0.00173933 -0.000595227 0 0 0 
0.174064 -0.00193336 -0.432862 0 0 0 
-0.169679 0.00108066 0.421811 0 0 0 
0.00175859 0.000416218 -0.000790387 0 0 0 
0.173196 -0.000248225 -0.423392 0 0 0 
-0.168835 -0.000874388 0.420041 0 0 0 
0.00166943 -0.000339455 -0.00207248 0 0 0 
0.172174 0.000195477 -0.424186 0 0 0 
-0.175597 -0.00154481 0.430462 0 0 0 
-0.00268748 -0.000429511 0.00697607 0 0 0 
0.170222 0.000685783 -0.41651 0 0 0 
-0.169218 0.00172599 0.422645 0 0 0 
0.000122264 0.00138414 0.00210324 0 0 0 
0.169462 0.00104229 -0.418439 0 0 0 
-0.174355 -0.00105779 0.428795 0 0 0 
-0.00354241 0.000346979 0.0059786 0 0 0 
0.16727 0.00175175 -0.416838 0 0 0 
-0.1701 0.00166374 0.424681 0 0 0 
0.00104927 0.00167879 0.000716299 0 0 0 
0.172199 0.00169384 -0.423249 0 0 0 
-0.170116 0.000515247 0.416377 0 0 0 
-1.52737e-05 -0.000542813 -0.00290827 0 0 0 
0.170086 -0.00160087 -0.422194 0 0 0 
-0.174614 -7.69726e-05 0.432881 0 0 0 
-0.0034333 0.000323426 0.00842552 0 0 0 
0.167748 0.000723824 -0.41603 0 0 0 
-0.174102 -0.000809755 0.426295 0 0 0 
-0.000173725 -0.00102533 -0.000528738 0 0 0 
0.173755 -0.00124091 -0.427353 0 0 0 
-0.170796 -0.0007469 0.423406 0 0 0 
-0.00235388 -6.59601e-05 0.00410497 0 0 0 
0.166088 0.000614979 -0.415196 0 0 0 
-0.173012 -0.0015893 0.431837 0 0 0 
-0.00114877 -0.00158023 0.00528602 0 0 0 
0.170715 -0.00157116 -0.421265 0 0 0 
-0.171765 -0.000908576 0.42223 0 0 0 
0.000122733 -0.000118206 0.000818893 0 0 0 
0.172011 0.000672164 -0.420592 0 0 0 
-0.168174 -0.000563012 0.415155 0 0 0 
0.00109199 8.99072e-05 -0.0040098 0 0 0 
0.170358 0.000742827 -0.423175 0 0 0 
-0.171142 -0.000929843 0.420144 0 0 0 
-0.000510335 -0.00107021 0.000427693 0 0 0 
0.170121 -0.00121057 -0.419289 0 0 0 
-0.169868 -0.00115791 0.418546 0 0 0 
0.000626683 -0.000922199 -0.000866115 0 0 0 
0.171121 -0.00068649 -0.420278 0 0 0 
-0.168702 -0.000611081 0.419756 0 0 0 
-0.000939846 -0.000928364 0.00209631 0 0 0 
0.166822 -0.00124565 -0.415563 0 0 0 
-0.170699 -0.00141137 0.422888 0 0 0 
0.00108662 -0.00141146 -0.00180869 0 0 0 
0.172872 -0.00141156 -0.426505 0 0 0 
-0.166787 -0.000688356 0.417168 0 0 0 
0.00308759 3.98002e-05 -0.00728177 0 0 0 
0.172962 0.000767957 -0.431732 0 0 0 
-0.166774 3.13555e-05 0.415424 0 0 0 
0.00209286 0.000775244 -0.00511086 0 0 0 
0.17096 0.00151913 -0.425645 0 0 0 
-0.170985 -0.000231483 0.42237 0 0 0 
-0.0016176 0.000430328 0.00196393 0 0 0 
0.16775 0.00109214 -0.418442 0 0 0 
-0.173512 0.000799386 0.433304 0 0 0 
-0.00148451 0.00045502 0.00789449 0 0 0 
0.170543 0.000110654 -0.417515 0 0 0 
-0.173696 0.00138232 0.432854 0 0 0 
-0.00320032 -0.000228455 0.00884984 0 0 0 
0.167295 -0.00183923 -0.415155 0 0 0 
-0.168144 0.00154791 0.419647 0 0 0 
0.00191904 0.000599118 -0.00430894 0 0 0 
0.171982 -0.000349678 -0.428265 0 0 0 
-0.172273 -0.00020138 0.429102 0 0 0 
0.00126105 0.000505475 -0.000292391 0 0 0 
0.174795 0.00121233 -0.429687 0 0 0 
-0.174051 0.00026129 0.429649 0 0 0 
-0.00187209 -0.00050751 0.00170368 0 0 0 
0.170307 -0.00127631 -0.426241 0 0 0 
-0.170611 0.00196178 0.426437 0 0 0 
0.00187343 0.0018576 -0.000594795 0 0 0 
0.174358 0.00175343 -0.427626 0 0 0 
-0.170275 0.000741993 0.422237 0 0 0 
-0.00184664 -0.000517584 0.00319001 0 0 0 
0.166581 -0.00177716 -0.415857 0 0 0 
-0.173411 0.00136148 0.425216 0 0 0 
-0.00173382 8.13401e-05 0.00447032 0 0 0 
0.169944 -0.0011988 -0.416276 0 0 0 
-0.169928 -0.000110882 0.420003 0 0 0 
-0.0014664 0.000561748 0.00111488 0 0 0 
0.166995 0.00123438 -0.417774 0 0 0 
-0.170626 -0.00193113 0.426482 0 0 0 
0.000522651 -0.00156713 0.00279312 0 0 0 
0.171672 -0.00120313 -0.420895 0 0 0 
-0.175305 -0.00019086 0.4293 0 0 0 
-0.00318542 -0.00105628 0.00360228 0 0 0 
0.168934 -0.0019217 -0.422096 0 0 0 
-0.167679 -0.000292567 0.416631 0 0 0 
0.00265666 -0.000533592 -0.0046479 0 0 0 
0.172993 -0.000774616 -0.425927 0 0 0 
-0.169326 0.00140437 0.420097 0 0 0 
0.00143043 -0.000295008 -0.00283213 0 0 0 
0.172187 -0.00199438 -0.425762 0 0 0 
-0.169267 -0.000667904 0.42209 0 0 0 
0.00200436 0.000622077 -0.00189842 0 0 0 
0.173276 0.00191206 -0.425886 0 0 0 
-0.168559 -0.000162752 0.416121 0 0 0 
0.000267774 -2.63784e-05 -0.00177512 0 0 0 
0.169094 0.000109996 -0.419672 0 0 0 
-0.16967 -0.00025863 0.422569 0 0 0 
0.00171113 -5.65418e-05 -0.0025547 0 0 0 
0.173093 0.000145546 -0.427678 0 0 0 
-0.169042 0.00171906 0.414611 0 0 0 
0.00157769 0.00102326 -0.00638708 0 0 0 
0.172197 0.000327458 -0.427385 0 0 0 
-0.174793 0.00161746 0.432372 0 0 0 
-0.00300487 0.000932675 0.00888701 0 0 0 
0.168783 0.00024789 -0.414598 0 0 0 
-0.170324 -0.00151712 0.422167 0 0 0 
0.00124255 0.000109872 -0.00136092 0 0 0 
0.172809 0.00173687 -0.424889 0 0 0 
-0.17388 0.000336615 0.425577 0 0 0 
-0.000740148 -0.000494831 -0.0017606 0 0 0 
0.172399 -0.00132628 -0.429098 0 0 0 
-0.170128 -0.00118658 0.421163 0 0 0 
-0.0010464 0.000261291 0.00120527 0 0 0 
0.168035 0.00170916 -0.418752 0 0 0 
-0.170956 -0.00184181 0.41933 0 0 0 
6.25551e-05 -0.00041674 -0.00216718 0 0 0 
0.171081 0.00100833 -0.423664 0 0 0 
-0.172791 -0.0015887 0.427291 0 0 0 
-0.00107227 -0.00125335 0.00460202 0 0 0 
0.170646 -0.00091801 -0.418087 0 0 0 
3 0 1 2
3 3 4 5
3 6 7 8
3 9 10 11
3 12 13 14
3 15 16 17
3 18 19 20
3 21 22 23
3 24 25 26
3 27 28 29
3 30 31 32
3 33 34 35
3 36 37 38
3 39 40 41
3 42 43 44
3 45 46 47
3 48 49 50
3 51 52 53
3 54 55 56
3 57 58 59
3 60 61 62
3 63 64 65
3 66 67 68
3 69 70 71
3 72 73 74
3 75 76 77
3 78 79 80
3 81 82 83
3 84 85 86
3 87 88 89
3 90 91 92
3 93 94 95
3 96 97 98
3 99 100 101
3 102 103 104
3 105 106 107
3 108 109 110
3 111 112 113
3 114 115 116
3 117 118 119
3 120 121 122
3 123 124 125
3 126 127 128
3 129 130 131
3 132 133 134
3 135 136 137
3 138 139 140
3 141 142 143
3 144 145 146
3 147 148 149
3 150 151 152
3 153 154 155
3 156 157 158
3 159 160 161
3 162 163 164
3 165 166 167
3 168 169 170
3 171 172 173
3 174 175 176
3 177 178 179
3 180 181 182
3 183 184 185
3 186 187 188
3 189 190 191
3 192 193 194
3 195 196 197
3 198 199 200
3 201 202 203
3 204 205 206
3 207 208 209
3 210 211 212
3 213 214 215
3 216 217 218
3 219 220 221
3 222 223 224
3 225 226 227
3 228 229 230
3 231 232 233
3 234 235 236
3 237 238 239
3 240 241 242
3 243 244 245
3 246 247 248
3 249 250 251
3 252 253 254
3 255 256 257
3 258 259 260
3 261 262 263
3 264 265 266
3 267 268 269
3 270 271 272
3 273 274 275
3 276 277 278
3 279 280 281
3 282 283 284
3 285 286 287
3 288 289 290
3 291 292 293
3 294 295 296
3 297 298 299
