ply
format ascii 1.0
comment Created by object PlyWriter
element vertex 300
property float x
property float y
property float z
property float nx
property float ny
property float nz
element face 100
property list uchar uint vertex_indices
end_header
-0.452402 -0.00934448 -0.00106134 0 0 0 
0.00400068 -0.00928451 -0.000500489 0 0 0 
0.460403 -0.00922454 6.03641e-05 0 0 0 
-0.466186 -0.00986176 0.00125198 0 0 0 
-0.00667256 -0.00805196 0.000588886 0 0 0 
0.452841 -0.00624216 -7.42034e-05 0 0 0 
-0.46338 -0.00758629 0.000401333 0 0 0 
-0.00512782 -0.00807438 0.000290753 0 0 0 
0.453124 -0.00856247 0.000180172 0 0 0 
-0.464609 -0.00942905 -0.00142806 0 0 0 
0.000107527 -0.00864077 -5.31966e-05 0 0 0 
0.464824 -0.00785249 0.00132166 0 0 0 
-0.460086 -0.00977997 -0.00186812 0 0 0 
-0.00392783 -0.0090608 -1.71515e-06 0 0 0 
0.452231 -0.00834163 0.00186469 0 0 0 
-0.449825 -0.00835652 0.00124914 0 0 0 
0.000862345 -0.00778572 0.00152583 0 0 0 
0.451549 -0.00721493 0.00180253 0 0 0 
-0.44766 -0.00989119 0.00075729 0 0 0 
0.000190049 -0.00889547 0.00126515 0 0 0 
0.44804 -0.00789974 0.001773 0 0 0 
-0.455128 -0.00998597 -0.00135528 0 0 0 
-0.00141056 -0.00849916 -0.00108972 0 0 0 
0.452307 -0.00701236 -0.000824153 0 0 0 
-0.44943 -0.00919164 0.00141082 0 0 0 
0.00371961 -0.00860152 0.000739361 0 0 0 
0.456869 -0.00801141 6.79065e-05 0 0 0 
-0.450291 -0.00754313 0.000618984 0 0 0 
0.00603053 -0.00763754 0.000981962 0 0 0 
0.462352 -0.00773196 0.00134494 0 0 0 
-0.456801 -0.00633408 0.00109892 0 0 0 
-0.00148168 -0.0068347 0.000469976 0 0 0 
0.453838 -0.00733533 -0.000158963 0 0 0 
-0.461079 -0.00862754 -0.000155915 0 0 0 
-0.00277779 -0.00753746 -5.56157e-05 0 0 0 
0.455523 -0.00644737 4.46832e-05 0 0 0 
-0.464766 -0.00834257 0.00107431 0 0 0 
-0.00650325 -0.00741547 -0.000157599 0 0 0 
0.451759 -0.00648837 -0.0013895 0 0 0 
-0.466502 -0.00972679 0.000891996 0 0 0 
-0.000884339 -0.00968498 -0.000223476 0 0 0 
0.464734 -0.00964316 -0.00133895 0 0 0 
-0.461385 -0.00674198 -0.00140193 0 0 0 
-0.00106044 -0.00671093 -0.00144333 0 0 0 
0.459264 -0.00667987 -0.00148472 0 0 0 
-0.449243 -0.00649967 0.00193053 0 0 0 
0.00694767 -0.00740612 0.000786084 0 0 0 
0.463138 -0.00831256 -0.000358365 0 0 0 
-0.449843 -0.00916469 -5.6461e-05 0 0 0 
0.00375275 -0.0091776 2.57322e-05 0 0 0 
0.457348 -0.0091905 0.000107925 0 0 0 
-0.449271 -0.00693326 -0.000632136 0 0 0 
0.00451417 -0.00711453 0.000253194 0 0 0 
0.4583 -0.0072958 0.00113852 0 0 0 
-0.462463 -0.00656533 -0.00107165 0 0 0 
0.00161579 -0.00657051 -0.000177668 0 0 0 
0.465695 -0.00657568 0.000716309 0 0 0 
-0.455759 -0.00639353 -0.00072271 0 0 0 
0.00223781 -0.00664525 -0.000800577 0 0 0 
0.460234 -0.00689698 -0.000878443 0 0 0 
-0.451455 -0.00897274 0.00118306 0 0 0 
0.000933304 -0.0091584 0.000463392 0 0 0 
0.453321 -0.00934405 -0.000256274 0 0 0 
-0.450123 -0.00721141 0.00126427 0 0 0 
0.00590807 -0.00762872 0.00159123 0 0 0 
0.461939 -0.00804604 0.00191818 0 0 0 
-0.455719 -0.00988246 -0.00169809 0 0 0 
0.000491753 -0.00916751 -0.00164354 0 0 0 
0.456702 -0.00845255 -0.00158899 0 0 0 
-0.457502 -0.00718856 -0.00189052 0 0 0 
-0.00182082 -0.00680425 -0.00146136 0 0 0 
0.453861 -0.00641994 -0.0010322 0 0 0 
-0.46487 -0.00742503 -0.00135009 0 0 0 
-0.00501147 -0.00758791 -0.00156065 0 0 0 
0.454847 -0.00775079 -0.00177121 0 0 0 
-0.459606 -0.00612698 -0.00140448 0 0 0 
-0.00418456 -0.00621715 -0.00023152 0 0 0 
0.451237 -0.00630733 0.000941443 0 0 0 
-0.464049 -0.0094818 -0.00104557 0 0 0 
-0.00729017 -0.0083762 -0.00138002 0 0 0 
0.449468 -0.0072706 -0.00171447 0 0 0 
-0.452879 -0.00679416 0.000262353 0 0 0 
-0.000989273 -0.00793322 6.40201e-05 0 0 0 
0.4509 -0.00907229 -0.000134312 0 0 0 
-0.459952 -0.00830048 -0.000850335 0 0 0 
0.00222328 -0.0075518 -0.000745667 0 0 0 
0.464398 -0.00680312 -0.000640998 0 0 0 
-0.448051 -0.00937848 -0.00182907 0 0 0 
0.00282401 -0.00948471 -0.00108845 0 0 0 
0.453699 -0.00959094 -0.000347842 0 0 0 
-0.462146 -0.00679062 -0.000608543 0 0 0 
-0.00727075 -0.00639735 -0.000792586 0 0 0 
0.447604 -0.00600407 -0.000976629 0 0 0 
-0.450451 -0.00881731 0.00179963 0 0 0 
0.00706156 -0.00890484 0.00157714 0 0 0 
0.464574 -0.00899237 0.00135464 0 0 0 
-0.459252 -0.00842843 0.0013905 0 0 0 
-0.00591506 -0.00788028 7.98658e-05 0 0 0 
0.447422 -0.00733213 -0.00123077 0 0 0 
-0.456979 -0.00905113 -0.00168273 0 0 0 
0.00227131 -0.00917886 -0.00177519 0 0 0 
0.461521 -0.00930659 -0.00186765 0 0 0 
-0.461521 -0.00604098 -0.000191702 0 0 0 
-0.00420363 -0.00652011 -0.000982877 0 0 0 
0.453114 -0.00699925 -0.00177405 0 0 0 
-0.452837 -0.00914957 -0.000409549 0 0 0 
0.00508171 -0.00849013 0.000144498 0 0 0 
0.463 -0.0078307 0.000698545 0 0 0 
-0.447411 -0.00739303 -0.00140529 0 0 0 
0.00703625 -0.00811177 -0.00119138 0 0 0 
0.461484 -0.00883051 -0.00097748 0 0 0 
-0.45527 -0.00819077 0.00186581 0 0 0 
-0.00130793 -0.0075065 0.000534869 0 0 0 
0.452654 -0.00682224 -0.00079607 0 0 0 
-0.457706 -0.00990585 0.00104739 0 0 0 
-0.00256285 -0.00920596 0.00140784 0 0 0 
0.45258 -0.00850607 0.00176828 0 0 0 
-0.458983 -0.00961331 0.00185469 0 0 0 
-0.00552744 -0.00898029 0.000706167 0 0 0 
0.447928 -0.00834726 -0.000442352 0 0 0 
-0.447503 -0.00980285 -0.00199362 0 0 0 
0.0069408 -0.00902333 -0.00101037 0 0 0 
0.461385 -0.00824381 -2.71183e-05 0 0 0 
-0.466312 -0.00748332 -3.00794e-06 0 0 0 
-0.00821304 -0.0067553 -0.000738105 0 0 0 
0.449886 -0.00602727 -0.0014732 0 0 0 
-0.458019 -0.00799252 0.000755702 0 0 0 
-0.00256079 -0.00816197 0.00122635 0 0 0 
0.452898 -0.00833143 0.00169699 0 0 0 
-0.466436 -0.00647883 -0.000424297 0 0 0 
-0.00516202 -0.00653833 -0.00108836 0 0 0 
0.456112 -0.00659783 -0.00175242 0 0 0 
-0.462179 -0.0075729 0.000657934 0 0 0 
-0.00660701 -0.00792105 0.000399089 0 0 0 
0.448965 -0.00826919 0.000140244 0 0 0 
-0.459866 -0.00947537 0.00138496 0 0 0 
0.00149219 -0.00935559 -0.000264336 0 0 0 
0.462851 -0.00923581 -0.00191363 0 0 0 
-0.466848 -0.00634241 -0.00159652 0 0 0 
-0.0065672 -0.00761963 -0.0017925 0 0 0 
0.453714 -0.00889685 -0.00198848 0 0 0 
-0.453624 -0.00731349 0.00199662 0 0 0 
-0.00204501 -0.00752417 0.000509308 0 0 0 
0.449534 -0.00773485 -0.000978008 0 0 0 
-0.464566 -0.00744658 -5.13904e-05 0 0 0 
-0.00499143 -0.00871537 0.000253447 0 0 0 
0.454583 -0.00998415 0.000558284 0 0 0 
-0.448659 -0.00965693 0.00140519 0 0 0 
0.00189891 -0.00941497 0.000370631 0 0 0 
0.452457 -0.00917301 -0.000663933 0 0 0 
-0.465706 -0.00840432 -0.00198774 0 0 0 
-0.00338861 -0.00794397 -0.000650831 0 0 0 
0.458929 -0.00748362 0.000686078 0 0 0 
-0.447503 -0.00985107 -0.00185435 0 0 0 
0.00943026 -0.0099026 -0.00184566 0 0 0 
0.466364 -0.00995414 -0.00183697 0 0 0 
-0.457357 -0.00705157 -0.000364481 0 0 0 
0.000659958 -0.00821544 -0.00117941 0 0 0 
0.458677 -0.0093793 -0.00199433 0 0 0 
-0.45452 -0.0079494 -0.00152397 0 0 0 
-0.00168033 -0.00723874 -0.000881681 0 0 0 
0.451159 -0.00652808 -0.000239391 0 0 0 
-0.462735 -0.00923881 0.00119509 0 0 0 
-0.00774677 -0.00894772 -0.000140768 0 0 0 
0.447241 -0.00865662 -0.00147662 0 0 0 
-0.454001 -0.00893748 -0.00104238 0 0 0 
-0.00137918 -0.00826596 -0.00138616 0 0 0 
0.451243 -0.00759444 -0.00172994 0 0 0 
-0.460561 -0.00656414 0.00135825 0 0 0 
0.0015026 -0.00681489 0.000894834 0 0 0 
0.463566 -0.00706564 0.000431417 0 0 0 
-0.451408 -0.00698059 -0.00108718 0 0 0 
-0.000230283 -0.00650734 -0.0013223 0 0 0 
0.450947 -0.00603409 -0.00155742 0 0 0 
-0.45058 -0.00674178 0.00114535 0 0 0 
0.000125557 -0.00815948 0.000649123 0 0 0 
0.450831 -0.00957718 0.000152898 0 0 0 
-0.462054 -0.00997373 -1.17777e-05 0 0 0 
0.00163351 -0.00840151 -0.00040765 0 0 0 
0.465321 -0.00682929 -0.000803522 0 0 0 
-0.451921 -0.00848614 6.08133e-05 0 0 0 
-0.000818372 -0.007435 -0.000469865 0 0 0 
0.450284 -0.00638386 -0.00100054 0 0 0 
-0.458376 -0.00838921 -0.00171916 0 0 0 
-0.00301811 -0.00851975 -0.00122433 0 0 0 
0.452339 -0.00865029 -0.000729496 0 0 0 
-0.453281 -0.00730455 0.00122274 0 0 0 
0.00168867 -0.00735045 0.000853045 0 0 0 
0.456658 -0.00739634 0.00048335 0 0 0 
-0.447093 -0.00604355 -0.00169312 0 0 0 
0.00376615 -0.00725987 -0.000696852 0 0 0 
0.454626 -0.00847619 0.000299421 0 0 0 
-0.447529 -0.00997703 0.00154526 0 0 0 
0.0056999 -0.0084151 0.00140727 0 0 0 
0.458928 -0.00685317 0.00126928 0 0 0 
-0.457513 -0.00870438 -0.00140854 0 0 0 
-0.00470993 -0.0087506 -0.00123517 0 0 0 
0.448094 -0.00879683 -0.0010618 0 0 0 
-0.45819 -0.00692209 -0.00107293 0 0 0 
0.00155346 -0.00733866 -0.000351181 0 0 0 
0.461297 -0.00775522 0.000370566 0 0 0 
-0.458725 -0.00908104 0.00125243 0 0 0 
-0.00175117 -0.00904574 0.00137199 0 0 0 
0.455222 -0.00901044 0.00149156 0 0 0 
-0.450388 -0.00637244 -9.16421e-07 0 0 0 
0.00284089 -0.0064212 -0.000867901 0 0 0 
0.45607 -0.00646995 -0.00173488 0 0 0 
-0.464227 -0.00644781 -0.000937733 0 0 0 
-0.00705256 -0.00802252 -0.0011723 0 0 0 
0.450122 -0.00959722 -0.00140687 0 0 0 
-0.459474 -0.00801106 0.000758684 0 0 0 
-0.00424153 -0.00841073 0.000564403 0 0 0 
0.450991 -0.00881039 0.000370122 0 0 0 
-0.465525 -0.00918368 0.000422647 0 0 0 
-0.000479072 -0.0094546 0.000300294 0 0 0 
0.464567 -0.00972551 0.000177941 0 0 0 
-0.466795 -0.00675636 -0.00185176 0 0 0 
-0.00804856 -0.0072493 -0.00106199 0 0 0 
0.450698 -0.00774224 -0.000272223 0 0 0 
-0.456128 -0.00714334 -0.00137536 0 0 0 
0.00288229 -0.00855693 -0.00138119 0 0 0 
0.461892 -0.00997052 -0.00138702 0 0 0 
-0.466668 -0.00690656 0.00170643 0 0 0 
-0.00789647 -0.00729395 0.00158684 0 0 0 
0.450875 -0.00768133 0.00146724 0 0 0 
-0.465521 -0.0094051 -0.000921267 0 0 0 
-0.00354937 -0.0094334 0.000431707 0 0 0 
0.458422 -0.00946169 0.00178468 0 0 0 
-0.459918 -0.00856834 0.000124158 0 0 0 
0.00203344 -0.00833652 0.000804457 0 0 0 
0.463985 -0.0081047 0.00148476 0 0 0 
-0.455165 -0.00877424 0.00182452 0 0 0 
0.00440027 -0.0091738 0.000373989 0 0 0 
0.463965 -0.00957336 -0.00107654 0 0 0 
-0.466862 -0.00750015 -0.000142727 0 0 0 
-0.00150137 -0.00704637 0.000547413 0 0 0 
0.46386 -0.00659259 0.00123755 0 0 0 
-0.453918 -0.0099555 0.000300929 0 0 0 
0.00222224 -0.00957586 0.00100789 0 0 0 
0.458363 -0.00919623 0.00171485 0 0 0 
-0.453849 -0.00932919 -0.000782843 0 0 0 
0.00579545 -0.00964069 0.000243586 0 0 0 
0.46544 -0.0099522 0.00127002 0 0 0 
-0.454503 -0.00832792 -0.00123959 0 0 0 
-0.000101507 -0.00871268 -0.000661286 0 0 0 
0.4543 -0.00909744 -8.29815e-05 0 0 0 
-0.449618 -0.00782771 -4.86074e-05 0 0 0 
0.000361428 -0.00845222 -0.000867361 0 0 0 
0.45034 -0.00907672 -0.00168611 0 0 0 
-0.465867 -0.00846767 0.000124599 0 0 0 
-0.00617282 -0.00765066 -0.000775097 0 0 0 
0.453521 -0.00683365 -0.00167479 0 0 0 
-0.453959 -0.00979799 -0.00176571 0 0 0 
0.00614917 -0.00894266 -0.000619705 0 0 0 
0.466257 -0.00808732 0.000526296 0 0 0 
-0.451281 -0.00633141 0.00166103 0 0 0 
0.00433284 -0.00690355 0.00133723 0 0 0 
0.459947 -0.00747569 0.00101342 0 0 0 
-0.455998 -0.00651233 -0.000793513 0 0 0 
-0.00338429 -0.00766352 -0.00122046 0 0 0 
0.449229 -0.00881471 -0.00164742 0 0 0 
-0.452686 -0.00774949 0.00111523 0 0 0 
0.00205173 -0.00766203 0.0010451 0 0 0 
0.456789 -0.00757458 0.000974974 0 0 0 
-0.454129 -0.00789094 -0.000384346 0 0 0 
-0.00287914 -0.00810518 -0.000620288 0 0 0 
0.44837 -0.00831943 -0.000856229 0 0 0 
-0.463576 -0.00884548 -0.00161441 0 0 0 
-0.00681102 -0.00764144 -0.00118346 0 0 0 
0.449954 -0.0064374 -0.000752521 0 0 0 
-0.456258 -0.00924978 -0.00010152 0 0 0 
0.00400811 -0.00928185 -0.000325326 0 0 0 
0.464274 -0.00931392 -0.000549133 0 0 0 
-0.459674 -0.00719348 0.000775383 0 0 0 
0.000747159 -0.00760271 0.000471556 0 0 0 
0.461168 -0.00801193 0.000167729 0 0 0 
-0.459659 -0.00982763 0.00028128 0 0 0 
0.00210582 -0.00817095 0.00044407 0 0 0 
0.46387 -0.00651427 0.00060686 0 0 0 
-0.457228 -0.00940849 0.00158829 0 0 0 
-0.00475284 -0.00789581 0.0013429 0 0 0 
0.447722 -0.00638314 0.0010975 0 0 0 
-0.461814 -0.00899091 -0.00126991 0 0 0 
-0.00265542 -0.00754862 -0.00124959 0 0 0 
0.456503 -0.00610633 -0.00122927 0 0 0 
-0.450077 -0.00928202 2.44007e-07 0 0 0 
0.00300804 -0.00861544 0.000688081 0 0 0 
0.456093 -0.00794887 0.00137592 0 0 0 
-0.452895 -0.0078629 -0.00104668 0 0 0 
0.00376274 -0.00830067 0.000330893 0 0 0 
0.46042 -0.00873844 0.00170847 0 0 0 
-0.466629 -0.00861979 -0.00118013 0 0 0 
-0.00463472 -0.00888447 -6.78952e-06 0 0 0 
0.457359 -0.00914916 0.00116655 0 0 0 
-0.448258 -0.00865611 -0.00171487 0 0 0 
0.00731631 -0.00845628 -0.000801506 0 0 0 
0.462891 -0.00825645 0.000111859 0 0 0 
-0.458233 -0.00930476 0.0019483 0 0 0 
-0.00211506 -0.00885589 0.000670247 0 0 0 
0.454003 -0.00840703 -0.000607807 0 0 0 
3 0 1 2
3 3 4 5
3 6 7 8
3 9 10 11
3 12 13 14
3 15 16 17
3 18 19 20
3 21 22 23
3 24 25 26
3 27 28 29
3 30 31 32
3 33 34 35
3 36 37 38
3 39 40 41
3 42 43 44
3 45 46 47
3 48 49 50
3 51 52 53
3 54 55 56
3 57 58 59
3 60 61 62
3 63 64 65
3 66 67 68
3 69 70 71
3 72 73 74
3 75 76 77
3 78 79 80
3 81 82 83
3 84 85 86
3 87 88 89
3 90 91 92
3 93 94 95
3 96 97 98
3 99 100 101
3 102 103 104
3 105 106 107
3 108 109 110
3 111 112 113
3 114 115 116
3 117 118 119
3 120 121 122
3 123 124 125
3 126 127 128
3 129 130 131
3 132 133 134
3 135 136 137
3 138 139 140
3 141 142 143
3 144 145 146
3 147 148 149
3 150 151 152
3 153 154 155
3 156 157 158
3 159 160 161
3 162 163 164
3 165 166 167
3 168 169 170
3 171 172 173
3 174 175 176
3 177 178 179
3 180 181 182
3 183 184 185
3 186 187 188
3 189 190 191
3 192 193 194
3 195 196 197
3 198 199 200
3 201 202 203
3 204 205 206
3 207 208 209
3 210 211 212
3 213 214 215
3 216 217 218
3 219 220 221
3 222 223 224
3 225 226 227
3 228 229 230
3 231 232 233
3 234 235 236
3 237 238 239
3 240 241 242
3 243 244 245
3 246 247 248
3 249 250 251
3 252 253 254
3 255 256 257
3 258 259 260
3 261 262 263
3 264 265 266
3 267 268 269
3 270 271 272
3 273 274 275
3 276 277 278
3 279 280 281
3 282 283 284
3 285 286 287
3 288 289 290
3 291 292 293
3 294 295 296
3 297 298 299
