ply
format ascii 1.0
comment Created by object PlyWriter
element vertex 300
property float x
property float y
property float z
property float nx
property float ny
property float nz
element face 100
property list uchar uint vertex_indices
end_header
-0.457922 0.00756678 0.00161438 0 0 0 
-0.000817895 0.00727339 0.000399428 0 0 0 
0.456286 0.00698 -0.00081552 0 0 0 
-0.457506 0.00659455 0.00144282 0 0 0 
0.00145553 0.00688484 5.46623e-05 0 0 0 
0.460417 0.00717514 -0.00133349 0 0 0 
-0.465867 0.00889838 -0.00181972 0 0 0 
-0.00441729 0.00882977 -0.000546941 0 0 0 
0.457033 0.00876115 0.00072584 0 0 0 
-0.455874 0.00619221 -0.000991579 0 0 0 
0.00191475 0.00709939 -0.000691572 0 0 0 
0.459704 0.00800658 -0.000391564 0 0 0 
-0.44713 0.00871791 0.000800052 0 0 0 
0.0041794 0.00738953 0.000902583 0 0 0 
0.455489 0.00606115 0.00100511 0 0 0 
-0.459136 0.00732783 0.000947207 0 0 0 
0.00321989 0.00688021 0.00071899 0 0 0 
0.465576 0.0064326 0.000490773 0 0 0 
-0.462797 0.00879304 -0.000638158 0 0 0 
-0.00296336 0.00876064 -9.08877e-05 0 0 0 
0.45687 0.00872824 0.000456383 0 0 0 
-0.459712 0.00932914 9.26659e-05 0 0 0 
-0.000394538 0.00795849 -0.000504512 0 0 0 
0.458923 0.00658783 -0.00110169 0 0 0 
-0.464615 0.00694349 -0.00146991 0 0 0 
0.00102584 0.00758543 -0.000473888 0 0 0 
0.466667 0.00822736 0.000522137 0 0 0 
-0.452328 0.00883041 -0.0016458 0 0 0 
-0.000483543 0.00751887 -0.00115379 0 0 0 
0.451361 0.00620733 -0.000661777 0 0 0 
-0.462863 0.0095127 0.00156235 0 0 0 
0.00178541 0.00838282 0.00162283 0 0 0 
0.466434 0.00725295 0.00168332 0 0 0 
-0.459418 0.00762304 0.00167058 0 0 0 
-0.00148059 0.00693809 0.00153075 0 0 0 
0.456457 0.00625313 0.00139092 0 0 0 
-0.462568 0.00825244 0.0005988 0 0 0 
-0.00487289 0.00800863 0.000318216 0 0 0 
0.452823 0.00776481 3.76322e-05 0 0 0 
-0.452159 0.00835029 -0.000637627 0 0 0 
-0.000709221 0.0073444 -0.00111216 0 0 0 
0.450741 0.00633851 -0.0015867 0 0 0 
-0.466469 0.00949658 -0.00056332 0 0 0 
-0.00356035 0.00832193 0.000168969 0 0 0 
0.459349 0.00714728 0.000901258 0 0 0 
-0.45388 0.00701824 0.000394524 0 0 0 
0.00577343 0.008318 0.000662292 0 0 0 
0.465427 0.00961776 0.00093006 0 0 0 
-0.45792 0.00790638 -0.00023801 0 0 0 
0.000145733 0.00866299 -0.000692662 0 0 0 
0.458212 0.00941961 -0.00114731 0 0 0 
-0.463433 0.00987285 -0.000530009 0 0 0 
-6.73085e-05 0.00965672 0.000644219 0 0 0 
0.463298 0.00944059 0.00181845 0 0 0 
-0.462055 0.00906443 -0.00169153 0 0 0 
0.00121439 0.00784327 -0.000951611 0 0 0 
0.464484 0.00662211 -0.000211688 0 0 0 
-0.455798 0.00827197 -0.00141866 0 0 0 
-0.000332773 0.00892725 -0.000870275 0 0 0 
0.455133 0.00958253 -0.00032189 0 0 0 
-0.462499 0.00666187 0.000943311 0 0 0 
-0.000170946 0.00824296 -7.68964e-05 0 0 0 
0.462157 0.00982405 -0.0010971 0 0 0 
-0.450267 0.00681297 -7.38469e-06 0 0 0 
-0.000799209 0.00678302 0.00015971 0 0 0 
0.448668 0.00675308 0.000326804 0 0 0 
-0.461784 0.0078286 -0.00117519 0 0 0 
0.00131281 0.00859531 -0.00100547 0 0 0 
0.464409 0.00936202 -0.000835744 0 0 0 
-0.447086 0.00668153 -0.000250996 0 0 0 
0.00824222 0.00794935 0.000334193 0 0 0 
0.46357 0.00921717 0.000919382 0 0 0 
-0.459293 0.0089469 -0.000944229 0 0 0 
0.00273234 0.00916819 1.48811e-05 0 0 0 
0.464758 0.00938947 0.000973991 0 0 0 
-0.451467 0.00978877 0.00173707 0 0 0 
0.0037728 0.00920829 0.00183726 0 0 0 
0.459012 0.00862782 0.00193745 0 0 0 
-0.459025 0.00811535 0.000592913 0 0 0 
0.00197029 0.00905104 0.00017114 0 0 0 
0.462966 0.00998672 -0.000250633 0 0 0 
-0.457809 0.00962086 0.00124292 0 0 0 
0.00180963 0.00858941 -0.000347417 0 0 0 
0.461429 0.00755796 -0.00193776 0 0 0 
-0.447262 0.00801352 5.46165e-05 0 0 0 
0.0027101 0.00785996 0.000877619 0 0 0 
0.452683 0.00770641 0.00170062 0 0 0 
-0.463441 0.0099993 0.000415902 0 0 0 
-0.000455856 0.00945534 0.000604304 0 0 0 
0.462529 0.00891137 0.000792706 0 0 0 
-0.453928 0.00986778 0.000153409 0 0 0 
0.00256057 0.00905953 0.000755764 0 0 0 
0.459049 0.00825128 0.00135812 0 0 0 
-0.458821 0.00608925 0.00167927 0 0 0 
-0.00313766 0.00661905 0.00158433 0 0 0 
0.452546 0.00714886 0.00148939 0 0 0 
-0.461578 0.00872832 -0.0010701 0 0 0 
-0.00669125 0.00851737 -0.000521359 0 0 0 
0.448195 0.00830641 2.73797e-05 0 0 0 
-0.447337 0.006029 -0.000858454 0 0 0 
0.00390629 0.00737368 -0.000508252 0 0 0 
0.455149 0.00871835 -0.000158049 0 0 0 
-0.452546 0.00853937 -0.00140124 0 0 0 
0.00582372 0.00884225 -0.00110856 0 0 0 
0.464193 0.00914514 -0.000815885 0 0 0 
-0.465324 0.00807242 -0.00114925 0 0 0 
-8.24779e-05 0.00743526 -0.000691205 0 0 0 
0.465159 0.00679811 -0.000233164 0 0 0 
-0.458643 0.00824686 0.000750842 0 0 0 
0.00224967 0.00716313 0.00112694 0 0 0 
0.463143 0.00607941 0.00150304 0 0 0 
-0.463386 0.00635911 -0.0019209 0 0 0 
-0.00248151 0.00711049 -0.000596273 0 0 0 
0.458423 0.00786187 0.000728349 0 0 0 
-0.459129 0.00729234 -0.00175176 0 0 0 
0.00249526 0.00678076 -0.00117088 0 0 0 
0.464119 0.00626919 -0.000589999 0 0 0 
-0.45178 0.00842979 -0.0013713 0 0 0 
0.00362261 0.00784064 -0.00107296 0 0 0 
0.459026 0.00725148 -0.000774623 0 0 0 
-0.465066 0.00619435 0.00019124 0 0 0 
-0.00217392 0.00624071 0.000355236 0 0 0 
0.460718 0.00628706 0.000519231 0 0 0 
-0.45487 0.00761148 -4.09898e-06 0 0 0 
-0.00176908 0.00713155 -4.07533e-05 0 0 0 
0.451332 0.00665162 -7.74077e-05 0 0 0 
-0.46233 0.00638506 0.000893179 0 0 0 
-0.005064 0.00680081 0.00122598 0 0 0 
0.452202 0.00721657 0.00155879 0 0 0 
-0.452822 0.00602629 0.00161227 0 0 0 
-0.00134091 0.00752974 0.000136801 0 0 0 
0.45014 0.00903319 -0.00133866 0 0 0 
-0.450949 0.00618062 -0.00121263 0 0 0 
7.38651e-05 0.00673476 -0.000159636 0 0 0 
0.451097 0.0072889 0.000893361 0 0 0 
-0.465426 0.00835808 0.000134081 0 0 0 
-0.00498101 0.0074048 0.000478501 0 0 0 
0.455464 0.00645152 0.000822922 0 0 0 
-0.464641 0.00828766 -0.0010202 0 0 0 
-0.00326973 0.00802799 -0.000896208 0 0 0 
0.458102 0.00776831 -0.000772216 0 0 0 
-0.447826 0.00989019 0.00065469 0 0 0 
0.00874586 0.00808303 -0.000449259 0 0 0 
0.465317 0.00627587 -0.00155321 0 0 0 
-0.461812 0.00889096 8.60842e-05 0 0 0 
0.00165495 0.00813773 0.000578736 0 0 0 
0.465122 0.0073845 0.00107139 0 0 0 
-0.465025 0.0071359 0.00133113 0 0 0 
-0.00589047 0.0069533 0.00038496 0 0 0 
0.453244 0.00677069 -0.000561214 0 0 0 
-0.456197 0.0061715 0.000220628 0 0 0 
0.000617415 0.00690921 0.00105688 0 0 0 
0.457432 0.00764692 0.00189314 0 0 0 
-0.459022 0.00703536 -0.000129113 0 0 0 
-0.00531988 0.00764188 0.000644902 0 0 0 
0.448382 0.0082484 0.00141892 0 0 0 
-0.448487 0.00783215 -0.000302469 0 0 0 
0.000276715 0.00861256 -0.000977156 0 0 0 
0.449041 0.00939297 -0.00165184 0 0 0 
-0.454252 0.00805727 0.00153932 0 0 0 
0.00437957 0.0088632 0.00151596 0 0 0 
0.463011 0.00966914 0.00149261 0 0 0 
-0.460421 0.00849056 0.000990681 0 0 0 
-0.00165369 0.00876558 -0.000482734 0 0 0 
0.457114 0.0090406 -0.00195615 0 0 0 
-0.452219 0.00930931 -0.00147178 0 0 0 
0.00220042 0.00961583 -0.000223335 0 0 0 
0.45662 0.00992235 0.00102511 0 0 0 
-0.463527 0.00622272 0.000831023 0 0 0 
-0.00553682 0.00648807 -0.00027852 0 0 0 
0.452453 0.00675342 -0.00138806 0 0 0 
-0.460314 0.00667011 0.00154072 0 0 0 
-0.00483017 0.00735832 0.000446428 0 0 0 
0.450654 0.00804653 -0.000647863 0 0 0 
-0.451063 0.00934881 0.000173904 0 0 0 
-0.000677422 0.00770966 0.000704921 0 0 0 
0.449708 0.00607052 0.00123594 0 0 0 
-0.447816 0.00630887 0.000321227 0 0 0 
0.00895548 0.00800533 0.000339947 0 0 0 
0.465727 0.00970179 0.000358667 0 0 0 
-0.459328 0.0074459 0.000206955 0 0 0 
0.00175172 0.00870718 -0.000377272 0 0 0 
0.462832 0.00996845 -0.000961499 0 0 0 
-0.455615 0.00604901 -0.000668045 0 0 0 
0.00446522 0.00767616 2.08194e-05 0 0 0 
0.464545 0.00930332 0.000709684 0 0 0 
-0.465302 0.00996605 -0.0008734 0 0 0 
-0.00622024 0.00969909 -0.00130854 0 0 0 
0.452861 0.00943213 -0.00174368 0 0 0 
-0.452178 0.00692558 -0.000111395 0 0 0 
0.00605668 0.00692825 -0.000274646 0 0 0 
0.464291 0.00693092 -0.000437897 0 0 0 
-0.460686 0.00606369 -0.00133755 0 0 0 
0.000233099 0.00694349 0.000313972 0 0 0 
0.461152 0.00782329 0.0019655 0 0 0 
-0.456089 0.00694352 2.81516e-05 0 0 0 
0.000300631 0.00781683 -0.000632437 0 0 0 
0.456691 0.00869014 -0.00129303 0 0 0 
-0.458699 0.00651613 -0.000329204 0 0 0 
-0.0014585 0.00759675 0.000276281 0 0 0 
0.455782 0.00867738 0.000881766 0 0 0 
-0.466154 0.00934187 0.00160528 0 0 0 
-5.92768e-05 0.00892779 0.000791387 0 0 0 
0.466035 0.00851372 -2.2511e-05 0 0 0 
-0.447489 0.00610704 0.000791143 0 0 0 
0.00751036 0.007514 0.000418814 0 0 0 
0.46251 0.00892096 4.64851e-05 0 0 0 
-0.457454 0.00845511 -0.00106346 0 0 0 
0.00473335 0.00744297 -0.000532702 0 0 0 
0.46692 0.00643083 -1.94134e-06 0 0 0 
-0.461635 0.00669981 -0.000289565 0 0 0 
-0.00407833 0.00644945 -0.000644744 0 0 0 
0.453479 0.0061991 -0.000999923 0 0 0 
-0.453327 0.00693266 0.00191248 0 0 0 
0.003068 0.00754952 0.000321996 0 0 0 
0.459463 0.00816639 -0.00126849 0 0 0 
-0.456507 0.00643273 0.00163307 0 0 0 
-0.0024613 0.00738358 0.00140528 0 0 0 
0.451584 0.00833443 0.00117749 0 0 0 
-0.465786 0.00903614 3.39281e-05 0 0 0 
-0.00729734 0.00896731 -0.000359178 0 0 0 
0.451191 0.00889848 -0.000752285 0 0 0 
-0.460932 0.00940317 0.00067416 0 0 0 
-0.00597318 0.00926641 0.0011245 0 0 0 
0.448986 0.00912965 0.00157484 0 0 0 
-0.462044 0.00923442 -0.00177157 0 0 0 
0.000381976 0.00850336 -0.00155391 0 0 0 
0.462808 0.00777231 -0.00133624 0 0 0 
-0.464209 0.0095502 0.00195716 0 0 0 
0.000826001 0.00815057 0.00179151 0 0 0 
0.465861 0.00675094 0.00162585 0 0 0 
-0.447157 0.00805186 0.000296717 0 0 0 
0.006889 0.00786021 2.59259e-05 0 0 0 
0.460935 0.00766857 -0.000244865 0 0 0 
-0.447305 0.00953205 -0.000715253 0 0 0 
0.00465305 0.00827671 -0.000138283 0 0 0 
0.456611 0.00702138 0.000438687 0 0 0 
-0.458393 0.00681412 -0.000206696 0 0 0 
0.00192113 0.00749318 -0.000442322 0 0 0 
0.462235 0.00817224 -0.000677949 0 0 0 
-0.452797 0.00988979 -0.00152883 0 0 0 
0.00629817 0.00891327 -0.000454291 0 0 0 
0.465394 0.00793676 0.000620245 0 0 0 
-0.454814 0.00747481 -0.000573523 0 0 0 
-0.000687525 0.00806829 -0.000393405 0 0 0 
0.453438 0.00866177 -0.000213287 0 0 0 
-0.45451 0.00644265 -0.000674112 0 0 0 
7.2211e-05 0.00626963 -0.000635558 0 0 0 
0.454655 0.00609661 -0.000597003 0 0 0 
-0.447363 0.00945737 0.000100163 0 0 0 
0.00441788 0.00931477 0.000312315 0 0 0 
0.456198 0.00917217 0.000524468 0 0 0 
-0.453728 0.00616612 0.00085756 0 0 0 
0.000310555 0.00608627 0.000441199 0 0 0 
0.45435 0.00600641 2.48367e-05 0 0 0 
-0.453409 0.00835753 -0.001357 0 0 0 
0.00302608 0.0083123 2.67375e-05 0 0 0 
0.459461 0.00826706 0.00141047 0 0 0 
-0.466365 0.00643707 -0.00164885 0 0 0 
-0.00060901 0.0073513 -0.000763268 0 0 0 
0.465147 0.00826554 0.000122319 0 0 0 
-0.45417 0.00836061 0.00155261 0 0 0 
0.000480309 0.00722239 0.000782444 0 0 0 
0.45513 0.00608417 1.22814e-05 0 0 0 
-0.459928 0.00654878 0.00117959 0 0 0 
-0.00284909 0.00693034 0.000615364 0 0 0 
0.45423 0.0073119 5.11364e-05 0 0 0 
-0.461129 0.00965931 -8.24281e-05 0 0 0 
0.00230733 0.00947226 -0.000615244 0 0 0 
0.465744 0.00928522 -0.00114806 0 0 0 
-0.46602 0.00821802 0.00110272 0 0 0 
-0.000114873 0.0076883 0.000279096 0 0 0 
0.46579 0.00715857 -0.000544529 0 0 0 
-0.456896 0.00968732 -0.000355372 0 0 0 
0.00436184 0.00978885 7.58215e-05 0 0 0 
0.46562 0.00989038 0.000507016 0 0 0 
-0.463961 0.00877594 0.00193843 0 0 0 
-0.00656351 0.00854457 0.000807134 0 0 0 
0.450834 0.00831319 -0.000324162 0 0 0 
-0.449243 0.00678984 -0.00163996 0 0 0 
0.00408064 0.00696797 -0.00164349 0 0 0 
0.457404 0.00714611 -0.00164702 0 0 0 
-0.448435 0.00936516 -0.000797213 0 0 0 
0.00203621 0.0085472 -2.35248e-05 0 0 0 
0.452507 0.00772924 0.000750163 0 0 0 
-0.456224 0.00612793 -0.000813366 0 0 0 
0.000784412 0.00751825 -0.00052946 0 0 0 
0.457792 0.00890856 -0.000245554 0 0 0 
-0.463356 0.00827054 -0.000820197 0 0 0 
-0.006363 0.0085256 0.00017904 0 0 0 
0.45063 0.00878065 0.00117828 0 0 0 
-0.461329 0.00932203 -0.000158802 0 0 0 
-0.00082022 0.00791665 8.29542e-05 0 0 0 
0.459688 0.00651126 0.00032471 0 0 0 
-0.44787 0.00999587 -0.00102895 0 0 0 
0.00240117 0.0096892 0.000294364 0 0 0 
0.452672 0.00938253 0.00161768 0 0 0 
-0.459481 0.00721755 0.00161641 0 0 0 
-0.00199248 0.00854458 0.00102132 0 0 0 
0.455496 0.00987161 0.000426225 0 0 0 
3 0 1 2
3 3 4 5
3 6 7 8
3 9 10 11
3 12 13 14
3 15 16 17
3 18 19 20
3 21 22 23
3 24 25 26
3 27 28 29
3 30 31 32
3 33 34 35
3 36 37 38
3 39 40 41
3 42 43 44
3 45 46 47
3 48 49 50
3 51 52 53
3 54 55 56
3 57 58 59
3 60 61 62
3 63 64 65
3 66 67 68
3 69 70 71
3 72 73 74
3 75 76 77
3 78 79 80
3 81 82 83
3 84 85 86
3 87 88 89
3 90 91 92
3 93 94 95
3 96 97 98
3 99 100 101
3 102 103 104
3 105 106 107
3 108 109 110
3 111 112 113
3 114 115 116
3 117 118 119
3 120 121 122
3 123 124 125
3 126 127 128
3 129 130 131
3 132 133 134
3 135 136 137
3 138 139 140
3 141 142 143
3 144 145 146
3 147 148 149
3 150 151 152
3 153 154 155
3 156 157 158
3 159 160 161
3 162 163 164
3 165 166 167
3 168 169 170
3 171 172 173
3 174 175 176
3 177 178 179
3 180 181 182
3 183 184 185
3 186 187 188
3 189 190 191
3 192 193 194
3 195 196 197
3 198 199 200
3 201 202 203
3 204 205 206
3 207 208 209
3 210 211 212
3 213 214 215
3 216 217 218
3 219 220 221
3 222 223 224
3 225 226 227
3 228 229 230
3 231 232 233
3 234 235 236
3 237 238 239
3 240 241 242
3 243 244 245
3 246 247 248
3 249 250 251
3 252 253 254
3 255 256 257
3 258 259 260
3 261 262 263
3 264 265 266
3 267 268 269
3 270 271 272
3 273 274 275
3 276 277 278
3 279 280 281
3 282 283 284
3 285 286 287
3 288 289 290
3 291 292 293
3 294 295 296
3 297 298 299
